<?xml version="1.0" encoding="UTF-8"?>
<svg xmlns="http://www.w3.org/2000/svg" viewBox="0 0 911.74 897.45">
  <defs>
    <style>
      .cls-1 {
        fill: #333944;
        stroke-width: 0px;
      }
    </style>
  </defs>
  <g id="Circle">
    <path class="cls-1" d="m855.68,469.63c-21.97,505.74-778.2,505.35-799.98,0H5.7c24.58,569.11,875.62,568.68,899.98,0h-50Z"/>
    <path class="cls-1" d="m903.05,380.54h-50.34C784.69-61.72,126.51-61.39,58.67,380.54H8.33c71.07-505.23,823.86-504.86,894.72,0Z"/>
  </g>
  <g id="Compass">
    <path class="cls-1" d="m686.73,348.26l-50.63,32.29h-33.7c-51.78-103.47-245.6-103.39-297.33,0h-32.23l-50.56-32.29,58.95,16.34c27.23-44.85,83.65-77.34,150.73-83.34l22.51-97.38,22.51,97.38c67.09,6,123.52,38.49,150.74,83.36l59-16.36Z"/>
  </g>
  <g id="I">
    <polygon class="cls-1" points="760.02 469.6 760.02 519.43 759.85 519.6 705.98 519.6 706.24 639.6 759.68 639.6 759.68 689.6 589.38 689.6 589.38 639.6 643.94 639.6 643.94 519.6 589.38 519.6 589.38 469.6 760.02 469.6"/>
    <polygon class="cls-1" points="760.02 519.43 760.02 519.56 759.89 519.56 760.02 519.43"/>
  </g>
  <g id="H">
    <path class="cls-1" d="m908.43,448.72c0,.3,0,.61,0,.91h-342.73v201h-.01s0-16.32,0-16.32h-.33v16.75l.33-.42v88.63h-79.99v-150.14h-60v150.14h-80v-289.64H3.33c-.01-.3-.01-.61-.01-.91,0-16.59.89-32.97,2.64-49.09h419.73v150.5h60v-150.5h420.1c1.75,16.12,2.64,32.5,2.64,49.09Z"/>
    <polygon class="cls-1" points="565.68 634.31 565.68 650.64 565.35 651.06 565.35 634.31 565.68 634.31"/>
    <rect class="cls-1" x="485.64" y="634.31" width=".05" height="104.96"/>
    <polygon class="cls-1" points="565.68 634.31 565.68 650.64 565.35 651.06 565.35 634.31 565.68 634.31"/>
    <rect class="cls-1" x="434.25" y="588.77" width="42.89" height=".36"/>
  </g>
  <g id="B">
    <path class="cls-1" d="m315.27,596.11c-6.52-9.6-15.66-15.94-27.41-19.03,9.92-2.89,17.86-8.72,23.83-17.49,14.43-20.21,11.3-60.02-8.12-74.73-11.39-9.69-27-14.54-46.84-14.54h-99.44v219.09h102.2c21.12,0,37.33-5.21,48.62-15.63,19.18-16.31,22.84-55.96,7.16-77.67Zm-96.83-71.33h23.69c5.51,0,9.6,1.29,12.26,3.87,5.2,4.4,5.45,18.93,0,23.36-2.66,2.48-6.75,3.71-12.26,3.71h-23.69v-30.94Zm40.08,105.98c-2.66,2.38-6.74,3.56-12.25,3.56h-27.83v-30.94h27.83c10.83,0,16.25,5.26,16.25,15.78,0,5.37-1.34,9.24-4,11.6Z"/>
  </g>
  <g id="Bright_Horizon_Institute" data-name="Bright Horizon Institute">
    <g>
      <path class="cls-1" d="m126.58,333.56c2.55-.96,5.15-1.01,7.78-.16,2.38.77,4.28,2.02,5.7,3.77,1.43,1.75,2.29,3.89,2.6,6.42.31,2.53-.02,5.31-.99,8.32l-6.17,19.15-44.41-14.3,5.9-18.32c.97-3.01,2.29-5.45,3.97-7.32,1.68-1.87,3.57-3.09,5.67-3.65,2.1-.56,4.25-.49,6.46.22,2.59.83,4.53,2.22,5.82,4.16,1.3,1.94,1.93,4.17,1.92,6.69,1.27-2.35,3.19-4.01,5.74-4.96Zm-14.3,20.18l2.62-8.14c1.25-3.84.49-7.13-3.4-8.4-1.78-.57-3.34-.44-4.69.39-1.34.83-2.36,2.31-3.04,4.43l-2.62,8.14,11.13,3.59Zm21.82-8.45c-.63-1.54-1.88-2.6-3.74-3.21-1.91-.61-3.61-.46-5.1.46-1.49.92-2.59,2.47-3.28,4.63l-2.83,8.78,11.96,3.85,2.89-8.97c.7-2.16.73-4.01.1-5.55Z"/>
      <path class="cls-1" d="m158.93,309.82l-20.83,1.61-1.87,4,16.46,7.71-3.97,8.47-42.25-19.78,7.43-15.86c2.63-5.67,6.88-9.91,12.72-10.54,2.5-.23,4.95.22,7.38,1.35,2.78,1.3,4.92,3.29,6.4,5.95,1.48,2.66,1.9,5.79,1.26,9.37l21.86-2.09-4.59,9.81Zm-29.06,2.63l3.32-7.08c1.08-2.3,1.33-4.27.74-5.92-.58-1.65-1.86-2.94-3.84-3.86-1.94-.91-3.7-1.04-5.3-.42-1.6.63-2.94,2.09-4.01,4.39l-3.32,7.08,12.41,5.81Z"/>
      <path class="cls-1" d="m131.67,262.59l40.3,23.5-4.71,8.08-40.31-23.5,4.71-8.08Z"/>
      <path class="cls-1" d="m168.47,233.41c-2.21-.29-4.29.02-6.22.93-1.93.91-3.63,2.37-5.1,4.39-1.63,2.23-2.57,4.58-2.82,7.04-.25,2.46.21,4.86,1.37,7.2,1.16,2.34,2.97,4.4,5.42,6.18,2.52,1.84,5.08,2.94,7.67,3.32,2.59.38,5.04.05,7.33-.98,2.29-1.03,4.29-2.71,6-5.06,2.1-2.88,3.05-5.8,2.86-8.75-.19-2.95-1.45-5.71-3.76-8.28l-9.45,12.96-5.78-4.21,14.88-20.42,6.59,4.8c2.26,2.42,3.9,5.27,4.93,8.56,1.03,3.28,1.26,6.72.71,10.32-.55,3.6-2.01,7.01-4.37,10.25-2.65,3.64-5.86,6.33-9.64,8.07-7.79,3.61-16.61,2.41-23.64-2.8-3.71-2.7-6.42-5.96-8.14-9.77-1.71-3.81-2.32-7.78-1.82-11.91.5-4.13,2.06-7.99,4.69-11.6,3.1-4.25,6.82-7.19,11.18-8.81,4.35-1.62,8.84-1.67,13.45-.12l-6.34,8.7Z"/>
      <path class="cls-1" d="m199.22,178.8l33.36,32.61-6.54,6.69-14.2-13.88-13.97,14.29,14.2,13.88-6.54,6.69-33.36-32.61,6.54-6.69,13.72,13.41,13.97-14.29-13.72-13.41,6.54-6.69Z"/>
      <path class="cls-1" d="m234.45,150.1l4.7,5.91-9.74,7.73,24.31,30.62-7.33,5.82-24.31-30.62-9.74,7.73-4.7-5.92,26.8-21.28Z"/>
      <path class="cls-1" d="m292.41,115.48l22.31,40.98-8.22,4.47-9.49-17.44-17.55,9.55,9.49,17.44-8.22,4.47-22.31-40.98,8.22-4.47,9.17,16.85,17.55-9.55-9.17-16.85,8.22-4.47Z"/>
      <path class="cls-1" d="m329.7,147.42c-4.14-.67-7.83-2.34-11.09-5.01-6.42-5.13-10.07-15-8.46-23.1.76-4.15,2.5-7.81,5.23-10.99,5.27-6.3,14.56-9.7,22.62-8.29,4.11.68,7.79,2.35,11.03,5.04,6.41,5.15,10.01,15.05,8.46,23.1-.74,4.14-2.47,7.8-5.2,10.98-2.73,3.18-6.14,5.52-10.24,7.03-4.1,1.5-8.22,1.92-12.35,1.25Zm15.79-13.44c1.57-1.93,2.52-4.21,2.83-6.84.32-2.63-.06-5.41-1.13-8.34-1.07-2.93-2.58-5.28-4.51-7.07-1.93-1.78-4.12-2.89-6.56-3.33-2.44-.44-4.97-.17-7.61.8-2.64.97-4.75,2.41-6.35,4.32-1.6,1.92-2.56,4.18-2.89,6.79-.32,2.61.05,5.38,1.12,8.31,1.07,2.93,2.58,5.3,4.52,7.1,1.94,1.8,4.15,2.93,6.61,3.38,2.47.45,5.02.19,7.65-.77,2.64-.97,4.74-2.41,6.31-4.34Z"/>
      <path class="cls-1" d="m393.17,131.46l-13.87-15.62-4.31.92,3.81,17.78-9.15,1.96-9.77-45.62,17.12-3.67c6.11-1.33,12.05-.5,16.08,3.77,1.69,1.85,2.82,4.08,3.38,6.69.64,3.01.35,5.91-.87,8.7-1.23,2.79-3.46,5.01-6.71,6.67l14.88,16.16-10.59,2.27Zm-19.65-21.56l7.65-1.64c2.48-.53,4.21-1.53,5.17-2.99.96-1.46,1.22-3.26.76-5.39-.45-2.09-1.41-3.58-2.87-4.48-1.47-.89-3.44-1.07-5.93-.54l-7.65,1.64,2.87,13.4Z"/>
      <path class="cls-1" d="m414.38,81.19l5.63,46.31-9.29,1.13-5.63-46.31,9.29-1.13Z"/>
      <path class="cls-1" d="m437.49,118.19l20.97-.8.3,7.88-31.79,1.21-.27-7.21,19.64-32.32-20.84.79-.3-7.88,31.79-1.21.28,7.21-19.77,32.32Z"/>
      <path class="cls-1" d="m475.08,123.37c-3.45-2.38-6.07-5.48-7.86-9.29-1.79-3.81-2.48-8.01-2.05-12.58.42-4.53,1.87-8.5,4.33-11.91,2.47-3.42,5.61-5.98,9.44-7.68,3.83-1.7,7.92-2.35,12.26-1.95,4.39.41,8.3,1.8,11.73,4.18,3.42,2.38,6.02,5.47,7.79,9.29,1.77,3.81,2.45,7.98,2.02,12.51-.74,8.75-5.84,16.19-13.71,19.67-3.83,1.7-7.92,2.35-12.26,1.95-4.35-.41-8.25-1.8-11.69-4.18Zm20.03-5.35c2.25-1.07,4.08-2.72,5.5-4.96,1.42-2.24,2.27-4.91,2.56-8.02.29-3.1-.06-5.88-1.04-8.32-.98-2.44-2.48-4.38-4.49-5.82-2.01-1.44-4.42-2.29-7.21-2.55-2.79-.26-5.33.13-7.59,1.17-2.27,1.04-4.11,2.67-5.52,4.89-1.42,2.22-2.27,4.88-2.56,7.98-.29,3.11.06,5.89,1.03,8.35.98,2.46,2.48,4.43,4.52,5.89,2.03,1.46,4.45,2.33,7.24,2.59,2.8.26,5.32-.14,7.56-1.21Z"/>
      <path class="cls-1" d="m554.53,140.02l-9.08-2.24-12.91-36.16-7.66,31.09-9.09-2.24,11.18-45.36,9.09,2.24,12.89,36.22,7.68-31.15,9.09,2.24-11.18,45.36Z"/>
      <path class="cls-1" d="m602.84,108.72l-17.66,43.18-8.66-3.54,17.66-43.18,8.66,3.54Z"/>
      <path class="cls-1" d="m628.09,173.34l-8.27-4.38-3.72-38.21-15,28.29-8.27-4.38,21.88-41.28,8.27,4.38,3.69,38.27,15.03-28.35,8.27,4.38-21.88,41.28Z"/>
      <path class="cls-1" d="m641.23,180.93c-1.48-2.42-2.23-4.92-2.25-7.51-.02-2.58.78-5.05,2.4-7.4l8.17,5.81c-1,1.64-1.33,3.27-.98,4.89.35,1.62,1.4,3.05,3.14,4.29,1.78,1.27,3.48,1.83,5.1,1.71,1.62-.13,2.93-.88,3.91-2.26.8-1.12,1.11-2.3.94-3.51-.17-1.22-.63-2.4-1.37-3.56-.74-1.15-1.83-2.63-3.29-4.43-1.95-2.48-3.45-4.63-4.49-6.43-1.04-1.81-1.6-3.82-1.69-6.04-.09-2.22.72-4.53,2.43-6.93,1.6-2.25,3.56-3.81,5.87-4.68,2.31-.87,4.8-1.02,7.47-.47,2.67.56,5.31,1.77,7.92,3.63,3.92,2.79,6.43,6.01,7.52,9.66,1.09,3.65.55,7.27-1.62,10.86l-8.38-5.97c.86-1.36,1.07-2.83.65-4.42-.43-1.59-1.49-2.99-3.2-4.21-1.49-1.06-2.95-1.52-4.38-1.4-1.43.13-2.67.92-3.7,2.37-.72,1.02-.99,2.1-.79,3.25.19,1.15.64,2.29,1.34,3.42.7,1.13,1.76,2.61,3.19,4.45,1.95,2.48,3.45,4.64,4.49,6.48,1.04,1.84,1.61,3.88,1.7,6.14.09,2.25-.7,4.56-2.38,6.92-1.45,2.03-3.32,3.55-5.61,4.54-2.29.99-4.83,1.28-7.59.87-2.77-.41-5.55-1.61-8.35-3.6-2.65-1.89-4.71-4.04-6.19-6.46Z"/>
      <path class="cls-1" d="m721.18,187.56l-5.06,5.61-9.23-8.33-26.19,29.03-6.95-6.27,26.19-29.03-9.23-8.33,5.06-5.61,25.41,22.92Z"/>
      <path class="cls-1" d="m734.2,201.59l-34.01,31.93-6.4-6.82,34.01-31.93,6.4,6.82Z"/>
      <path class="cls-1" d="m762.19,235.38l-5.92,4.7-7.73-9.74-30.63,24.31-5.82-7.33,30.63-24.31-7.73-9.74,5.92-4.69,21.27,26.81Z"/>
      <path class="cls-1" d="m773.49,252.4l-24.67,15.01c-2.7,1.65-4.34,3.61-4.91,5.88-.57,2.28-.08,4.69,1.47,7.24,1.58,2.59,3.51,4.15,5.79,4.69,2.28.54,4.78-.01,7.48-1.66l24.67-15.01,4.9,8.05-24.61,14.98c-3.39,2.06-6.7,3.07-9.93,3.03-3.23-.04-6.19-.93-8.86-2.67-2.67-1.74-4.93-4.11-6.76-7.12-1.81-2.97-2.86-6.02-3.15-9.16-.29-3.14.3-6.12,1.79-8.95,1.48-2.83,3.92-5.28,7.31-7.34l24.61-14.98,4.87,7.99Z"/>
      <path class="cls-1" d="m807.26,317.6l-6.89,3.09-5.09-11.34-35.67,16.02-3.83-8.54,35.67-16.02-5.09-11.34,6.89-3.09,14.02,31.22Z"/>
      <path class="cls-1" d="m806.6,338.9l-11.13,3.6,4.84,14.94-7.06,2.28-4.84-14.94-11.76,3.81,5.45,16.85-7.25,2.35-8.33-25.75,44.45-14.38,8.33,25.75-7.25,2.35-5.45-16.85Z"/>
    </g>
  </g>
  <g id="Dots">
    <circle class="cls-1" cx="192.94" cy="333.93" r="10.02"/>
    <circle class="cls-1" cx="718.85" cy="333.93" r="10.02"/>
    <circle class="cls-1" cx="454.49" cy="155.38" r="10.02"/>
  </g>
  <g id="ESTD_2010" data-name="ESTD 2010">
    <g>
      <path class="cls-1" d="m368.03,784.25v4.97h8.02v4.62h-8.02v5.39h9.07v4.79h-15.05v-24.57h15.05v4.79h-9.07Z"/>
      <path class="cls-1" d="m385.04,803.39c-2.86-1.17-4.7-3.55-4.76-6.72h6.37c.06,2.67,3.3,3.54,5.15,2.19,1.64-1.47.5-3.53-1.35-4.18-1.6-.66-5.02-1.57-6.42-2.35-4.37-1.85-4.96-8.49-1.19-11.29,4.91-3.8,15.65-2.16,15.68,5.41h-6.48c.02-2.31-3.08-3.29-4.69-1.98-1.01.88-.89,2.85.46,3.52,2.84,1.65,7.89,2.16,9.94,5.11,2.38,3.27.7,8.52-3.08,10.15-2.62,1.37-6.91,1.29-9.62.14Z"/>
      <path class="cls-1" d="m420.18,779.45v4.79h-6.51v19.78h-5.98v-19.78h-6.51v-4.79h19.01Z"/>
      <path class="cls-1" d="m439.18,780.99c8.13,3.99,8.12,17.5-.02,21.49-1.95,1.03-4.21,1.54-6.77,1.54h-9.21v-24.57h9.21c2.59,0,4.85.51,6.79,1.54Zm-1.89,16c2.53-2.25,2.51-8.27,0-10.54-1.26-1.26-3.02-1.89-5.28-1.89h-2.84v14.28h2.84c2.26,0,4.02-.62,5.28-1.86Z"/>
      <path class="cls-1" d="m474.35,798.35c2.29-1.89,4.09-3.44,5.41-4.66,2.6-2.47,6.25-6.47,4.04-9.94-.88-1.13-3.25-1.08-4.08.19-.5.67-.75,1.6-.75,2.82h-5.78c.06-3.52,1.48-6.44,4.46-7.91,3.1-1.58,8.54-1.18,10.67,1.19,3.24,3.28,2.52,8.97-.44,12.51-1.7,2.14-3.87,4.22-6.51,6.25h9.45v4.87h-17.57v-4.45c.79-.63,1.16-.92,1.08-.88Z"/>
      <path class="cls-1" d="m495.79,781.41c2.67-4.62,12.34-4.62,15.01,0,1.55,2.31,2.33,5.47,2.33,9.49-.1,7.2-2.15,13-9.83,13.02-7.69-.02-9.73-5.82-9.84-13.02,0-4.01.78-7.17,2.33-9.49Zm10.69,4.04c-.79-2.55-5.58-2.55-6.37,0-.51,1.27-.77,3.09-.77,5.44.09,2.58-.05,4.67,1.42,6.46,1.02,1.28,4.06,1.28,5.08,0,.57-.64.95-1.48,1.14-2.52.46-2.37.4-7.47-.49-9.38Z"/>
      <path class="cls-1" d="m515.65,784.04v-5.56h9.7v25.55h-6.23v-19.99h-3.46Z"/>
      <path class="cls-1" d="m531.77,781.41c2.67-4.62,12.34-4.62,15.01,0,1.55,2.31,2.33,5.47,2.33,9.49-.1,7.2-2.15,13-9.83,13.02-7.69-.02-9.73-5.82-9.84-13.02,0-4.01.78-7.17,2.33-9.49Zm10.69,4.04c-.79-2.55-5.58-2.55-6.37,0-.51,1.27-.77,3.09-.77,5.44.09,2.58-.05,4.67,1.42,6.46,1.02,1.28,4.06,1.28,5.08,0,.57-.64.95-1.48,1.14-2.52.46-2.37.4-7.47-.49-9.38Z"/>
    </g>
  </g>
</svg>