<?xml version="1.0" encoding="utf-8"?>
<!-- Generator: Adobe Illustrator 27.9.0, SVG Export Plug-In . SVG Version: 6.00 Build 0)  -->
<svg version="1.1" xmlns="http://www.w3.org/2000/svg" xmlns:xlink="http://www.w3.org/1999/xlink" x="0px" y="0px"
	 viewBox="0 0 296.87 637.02" style="enable-background:new 0 0 296.87 637.02;" xml:space="preserve">
<style type="text/css">
	.st0{fill:#F5EE81;stroke:#F5EE81;stroke-width:0.3775;stroke-miterlimit:10;}
	.st1{fill:none;stroke:#FEFDF2;stroke-miterlimit:10;}
	.st2{fill:#26619C;stroke:#26619C;stroke-width:0.1888;stroke-miterlimit:10;}
	.st3{fill:#D744DC;stroke:#D744DC;stroke-width:0.1888;stroke-miterlimit:10;}
	.st4{fill:#918D91;stroke:#918D91;stroke-width:0.2831;stroke-miterlimit:10;}
	.st5{fill:none;stroke:#6F96BD;stroke-miterlimit:10;}
	.st6{fill:#3F3F3F;stroke:#3F3F3F;stroke-width:0.2831;stroke-miterlimit:10;}
	.st7{fill:#26619C;stroke:#26619C;stroke-width:0.3775;stroke-miterlimit:10;}
	.st8{fill:#918D91;stroke:#918D91;stroke-width:0.3775;stroke-miterlimit:10;}
	.st9{fill:#3F3F3F;stroke:#3F3F3F;stroke-width:0.3775;stroke-miterlimit:10;}
	.st10{fill:#F5EE81;stroke:#F5EE81;stroke-width:0.1888;stroke-miterlimit:10;}
	.st11{stroke:#000000;stroke-width:1.1326;stroke-miterlimit:10;}
	.st12{fill:#26619C;stroke:#26619C;stroke-width:0.0944;stroke-miterlimit:10;}
	.st13{fill:#26619C;stroke:#26619C;stroke-width:0.2615;stroke-miterlimit:10;}
	.st14{fill:none;stroke:#6F96BD;stroke-width:0.6926;stroke-miterlimit:10;}
	.st15{fill:#202020;}
	.st16{stroke:#000000;stroke-width:0.3295;stroke-miterlimit:10;}
	.st17{fill:#2DF15B;}
	.st18{fill:#26619C;stroke:#26619C;stroke-width:0.1915;stroke-miterlimit:10;}
	.st19{fill:#26619C;stroke:#26619C;stroke-width:0.1905;stroke-miterlimit:10;}
	.st20{fill:none;stroke:#6F96BD;stroke-width:0.5045;stroke-miterlimit:10;}
	.st21{stroke:#000000;stroke-width:0.9886;stroke-miterlimit:10;}
	.st22{fill:#F5EE81;stroke:#F5EE81;stroke-width:0.7551;stroke-miterlimit:10;}
	.st23{fill:none;stroke:#FEFDF2;stroke-width:2;stroke-miterlimit:10;}
</style>
<g id="shine">
</g>
<g id="spyglass">
</g>
<g id="plug_prong">
</g>
<g id="female_plug">
</g>
<g id="electicity">
	<g>
		<g>
			<g>
				<g>
					<path class="st22" d="M180.53,68.06c-9.03,9.76-18.15,19.44-27.37,29.01c-8.33,8.67-22.18,22.67-19.78,20.23l-0.35,0.34
						l-0.09,0.08c-0.01-0.01,0-0.07-0.01-0.11l0-0.24v-0.06v-0.03l0.01,6.52l0.01,7.35l0,1.64l0-0.31l0-0.63l0-2.51l-0.02-10.05
						l-0.08-52.92l-57.39,48.69L7.84,192.42l87.34-54.14l7.33-6.22l0,0.24l0,0.12v0.03v0.01v0l0-2.68l-0.02-11.81l0-0.74
						c0-0.34,0-0.42,0-0.33l0,0.08l0,0.16l0,0.31l0,0.63l0,1.26l0.11,42l0.16,19.56l0.04,4.89l0.02,2.45l0.01,1.22l0,0.31l0,0.15
						c0.01,0.04-0.02,0.14,0.04,0.07l0.44-0.43l7.05-6.88l28.12-27.47c21.39-21.22,26.34-26.39,36.61-36.99
						c9.37-9.73,18.63-19.56,27.8-29.48c19.44-28.52,38.04-57.46,55.78-86.76C233.13,24.78,207.07,46.82,180.53,68.06z"/>
				</g>
			</g>
		</g>
		<g>
			<g>
				<g>
					<path class="st22" d="M191.07,331.98c-15.69,2.13-31.45,3.76-47.24,4.87l-11.85,0.71c-1.97,0.14-3.95,0.19-5.93,0.28
						l-5.43,0.22l-0.63,0.01l-0.29,0l-0.15,0c-0.02,0-0.06,0-0.06,0l0.06-0.05l0.23-0.18l0.11-0.09l-2.15,1.71l-2.67,2.12
						l-1.33,1.06l2.26-1.79l18.32-14.57l40.17-31.93l-25.59-2.16c-19.22-0.35-36.34-0.52-51.36-0.51l-0.7,0l-0.43,0.02l-0.82,0.05
						l-1.63,0.1l-3.26,0.2l-6.53,0.4l-13.05,0.81l-52.2,3.24l50.92,11.94l12.73,2.98l6.37,1.49l3.18,0.75l1.59,0.37l0.8,0.19
						c0.12,0.03,0.29,0.06,0.37,0.09l0.1,0.07c2.16,1.46,2.23,2.73,0.2,3.84l0.31,0.03l-0.23,0.18l-0.11,0.09c0,0-0.05,0.04,0,0
						l0.85-0.68l1.7-1.35l3.41-2.71l-4.06,3.23L76.31,333.5l-6.08,4.83l-3.04,2.42l-0.76,0.6l-0.54,0.45l-1.08,0.9l-8.67,7.2
						L38.8,364.32l-4.33,3.6c-0.73,0.43,0.19,0.28,0.59,0.32l1.45,0.02l2.91,0.04l11.62,0.17l22.98,0.34l11.39,0.17
						c3.84,0.02,7.82-0.05,11.73-0.07l11.77-0.1c3.89-0.03,7.91-0.07,11.83-0.26l6.69-0.28c2.06-0.09,4.12-0.15,6.18-0.29
						l12.35-0.75c16.46-1.16,32.87-2.86,49.22-5.07c34.2-9.76,67.37-21.84,99.21-36.05C259.79,330.55,225.24,332.47,191.07,331.98z"
						/>
				</g>
			</g>
		</g>
		<g>
			<g>
				<g>
					<path class="st22" d="M138.44,580.8c-16.14-8.68-31.79-18.25-46.85-28.68c-7.53-5.21-14.92-10.62-22.14-16.26l-3.41-2.62
						l-0.38-0.31l-0.42-0.35c-0.17-0.09,0.03-0.11,0.13-0.15l0.33-0.11l22.87-7.65l21.41-7.16l13.27-4.44l1.65-0.56l1.56-0.57
						l3.11-1.13l6.22-2.27l12.44-4.54l3.11-1.13l1.56-0.57l0.78-0.28l0.19-0.07c0.01-0.03-0.1-0.08-0.14-0.11l-0.35-0.24l-5.67-3.76
						l-22.47-14.87c-4.22-2.35-8.26-4.64-12.32-6.81l-12.11-6.18c-0.93-0.48-2.08-1.05-2.73-1.32l-1.7-0.69l-3.4-1.38
						c-2.25-0.94-4.56-1.77-6.83-2.66c-9.12-3.48-18.31-6.66-27.54-9.56c-18.48-5.77-37.18-10.33-55.93-13.75
						c17.18,8.25,33.73,17.45,49.52,27.57c7.89,5.07,15.59,10.35,23.1,15.84c1.87,1.39,3.76,2.73,5.59,4.15l2.76,2.11l1.38,1.05
						c0.38,0.31,0.26,0.33,0.32,0.46c0.23,0.87-0.05,1.45-0.81,1.74l0.29,0.19l0.07,0.05c0,0.01-0.05,0.02-0.07,0.03l-0.16,0.05
						l-5.78,1.93l-30.87,10.32c-8.81,2.97-17.82,5.9-26.3,8.92l-12.89,4.51l-3.22,1.13l-0.81,0.28c-0.05,0.01-0.07,0.02-0.02,0.05
						l0.08,0.07l0.16,0.14l0.33,0.28l1.31,1.13l5.23,4.53c6.96,6,13.96,12.19,20.84,17.87l10.36,8.69l2.59,2.17L47,557l0.31,0.25
						l0.18,0.14l0.36,0.28l2.89,2.23c7.67,5.99,15.52,11.74,23.52,17.28c16,11.07,32.62,21.24,49.76,30.46
						c36.67,13.96,74.41,23.54,112.19,28.64C201.12,621.38,168.3,602.62,138.44,580.8z"/>
				</g>
			</g>
		</g>
	</g>
</g>
</svg>
