<?xml version="1.0" encoding="utf-8"?>
<!-- Generator: Adobe Illustrator 27.9.0, SVG Export Plug-In . SVG Version: 6.00 Build 0)  -->
<svg version="1.1" xmlns="http://www.w3.org/2000/svg" xmlns:xlink="http://www.w3.org/1999/xlink" x="0px" y="0px"
	 viewBox="0 0 978.27 392.89" style="enable-background:new 0 0 978.27 392.89;" xml:space="preserve">
<style type="text/css">
	.st0{fill:#F5EE81;stroke:#F5EE81;stroke-width:0.3775;stroke-miterlimit:10;}
	.st1{fill:none;stroke:#FEFDF2;stroke-miterlimit:10;}
	.st2{fill:#26619C;stroke:#26619C;stroke-width:0.1888;stroke-miterlimit:10;}
	.st3{fill:#D744DC;stroke:#D744DC;stroke-width:0.1888;stroke-miterlimit:10;}
	.st4{fill:#918D91;stroke:#918D91;stroke-width:0.2831;stroke-miterlimit:10;}
	.st5{fill:none;stroke:#6F96BD;stroke-miterlimit:10;}
	.st6{fill:#3F3F3F;stroke:#3F3F3F;stroke-width:0.2831;stroke-miterlimit:10;}
	.st7{fill:#26619C;stroke:#26619C;stroke-width:0.3775;stroke-miterlimit:10;}
	.st8{fill:#918D91;stroke:#918D91;stroke-width:0.3775;stroke-miterlimit:10;}
	.st9{fill:#3F3F3F;stroke:#3F3F3F;stroke-width:0.3775;stroke-miterlimit:10;}
	.st10{fill:#F5EE81;stroke:#F5EE81;stroke-width:0.1888;stroke-miterlimit:10;}
	.st11{stroke:#000000;stroke-width:1.1326;stroke-miterlimit:10;}
	.st12{fill:#26619C;stroke:#26619C;stroke-width:0.0944;stroke-miterlimit:10;}
	.st13{fill:#26619C;stroke:#26619C;stroke-width:0.2615;stroke-miterlimit:10;}
	.st14{fill:none;stroke:#6F96BD;stroke-width:0.6926;stroke-miterlimit:10;}
	.st15{fill:#202020;}
	.st16{stroke:#000000;stroke-width:0.3295;stroke-miterlimit:10;}
	.st17{fill:#2DF15B;}
	.st18{fill:#26619C;stroke:#26619C;stroke-width:0.1915;stroke-miterlimit:10;}
	.st19{fill:#26619C;stroke:#26619C;stroke-width:0.1905;stroke-miterlimit:10;}
	.st20{fill:none;stroke:#6F96BD;stroke-width:0.5045;stroke-miterlimit:10;}
	.st21{stroke:#000000;stroke-width:0.9886;stroke-miterlimit:10;}
	.st22{fill:#F5EE81;stroke:#F5EE81;stroke-width:0.7551;stroke-miterlimit:10;}
	.st23{fill:none;stroke:#FEFDF2;stroke-width:2;stroke-miterlimit:10;}
</style>
<g id="shine">
</g>
<g id="spyglass">
</g>
<g id="plug_prong">
	<g>
		<g>
			<g>
				<g>
					<path class="st2" d="M933.31,229.92c2.07-0.3,3.96-0.91,5.35-1.79c1.39-0.89,2.4-2.03,2.97-3.42c0.6-1.37,0.51-3.23-0.09-4.5
						c-0.59-1.27-1.47-2.26-3.1-3.15c-1.63-0.86-3.72-1.47-5.74-1.98c-0.6-0.15-0.81-0.19-1.11-0.25l-0.88-0.17
						c-0.59-0.1-1.18-0.2-1.77-0.28c-0.59-0.08-1.19-0.14-1.78-0.2l-0.89-0.07c-0.32-0.02-0.49-0.04-1.16-0.05
						c-2.11,0-4.21,0.44-5.8,1.39c-1.35,1.18-2.15,2.72-2.26,4.37c-0.12,1.64,0.55,3.22,1.64,4.32c1.07,1.13,2.55,1.75,3.96,1.92
						c0.7,0.09,1.39,0.09,2,0.03c0.57-0.06,1.12-0.14,1.68-0.23c-0.51-0.23-1.02-0.45-1.51-0.7c-0.45-0.24-0.81-0.49-1.11-0.76
						c-0.59-0.53-0.88-1.16-0.81-1.74c0.05-0.57,0.45-1.06,0.99-1.23c0.54-0.18,1.12-0.01,1.4,0.27c0.02-0.01,0.05-0.01,0.08-0.01
						c-0.13,0,0.23,0.01,0.44,0.02l0.71,0.05c0.47,0.04,0.95,0.09,1.42,0.16c0.47,0.06,0.94,0.14,1.41,0.22l1.16,0.24l0.08,0.02
						c0.05,0.01,0.11,0.05,0.07,0.1c-0.03,0.04-0.09,0.05-0.14,0.06c0.02,0.07,0.03,0.14,0.02,0.2c0,0.03-0.01,0.07,0,0.1
						c0.01,0.03,0.02,0.07-0.11,0.11c-0.38,0.14-0.76,0.29-1.16,0.41c-0.79,0.25-1.62,0.44-2.48,0.56
						c-1.72,0.25-3.53,0.24-5.39-0.08l-0.03,0.95l1.43-1.18l-1.84,0.21l-0.95,0.11l0.92,0.84c1.45,1.34,3.17,2.51,5.1,3.4
						c0.96,0.46,1.98,0.84,3.03,1.15c0.53,0.16,1.07,0.29,1.61,0.41c0.1,0.03,0.35,0.05,0.59,0.07c0.24,0.02,0.46,0.04,0.69,0.05
						C932.39,229.92,932.84,229.92,933.31,229.92z"/>
				</g>
			</g>
		</g>
		<g>
			<g>
				<g>
					<g>
						<path class="st11" d="M270.82,208.28c18.43,9.71,33.98,22.86,43.81,39.01c0.65,0.99,1.21,2.03,1.79,3.06
							c0.61,1.04,1.12,2.03,1.62,3.01c0.99,1.97,1.82,3.91,2.49,5.76c1.35,3.72,1.96,7.08,1.94,9.6c-0.01,1.27-0.15,2.33-0.39,3.29
							c-0.25,0.97-0.65,2.03-1.3,3.25c-1.28,2.44-3.65,5.47-6.89,8.68c-1.61,1.61-3.43,3.27-5.41,4.99l-6.25,5.17l-1.57,1.3
							l-1.62,1.23l-3.25,2.46c-1.09,0.81-2.15,1.66-3.26,2.44l-3.35,2.33c-8.93,6.2-18.25,11.87-27.97,16.79
							c-9.72,4.92-19.77,9.2-30.04,12.8l-3.87,1.32c-1.29,0.45-2.57,0.89-3.89,1.26l-7.83,2.32l-7.91,2.01
							c-2.64,0.66-5.32,1.15-7.97,1.74c-10.66,2.15-21.47,3.54-32.26,4.26c-5.34,0.31-10.39,0.4-15.05,0.09
							c-4.66-0.31-8.9-0.99-12.67-2.09c-0.97-0.28-1.81-0.57-2.66-0.88l-1.26-0.5l-1.23-0.54c-1.61-0.76-3.13-1.62-4.49-2.56
							c-2.73-1.87-4.8-4-6.08-6.03c-0.64-1.03-1.08-1.99-1.46-3.11c-0.37-1.12-0.65-2.37-0.79-3.77c-0.31-2.78-0.01-6.12,0.91-9.47
							c0.46-1.68,1.04-3.34,1.78-4.99c0.77-1.73,1.71-3.47,2.8-5.22c2.18-3.5,4.97-7.05,8.25-10.58c3.28-3.52,7.08-7.08,11.19-10.48
							c3.92-3.54,8.26-6.64,12.47-9.89c8.72-6.15,17.97-11.7,27.63-16.7c9.72-4.92,19.88-9.2,30.3-13.07
							c10.12-4.71,20.67-8.88,31.42-12.76c10.78-3.83,21.85-7.22,33.05-10.41c11.22-3.15,22.62-5.96,34.11-8.66
							c11.49-2.67,23.04-5.1,34.65-7.38c46.44-9.01,93.81-14.7,141.62-16.92c-47.55-5.39-95.77-7.35-144.15-5.78
							c-12.09,0.42-24.2,1-36.31,1.84c-12.09,0.86-24.24,1.87-36.44,3.27c-12.2,1.44-24.45,3.13-36.73,5.39
							c-12.27,2.32-24.59,5.02-36.88,8.49c-11.95,4.43-23.79,9.42-35.36,15.28c-11.53,5.95-22.78,12.68-33.55,20.3
							c-5.26,4.01-10.61,7.88-15.57,12.32c-5.07,4.23-10,8.8-14.87,14.01c-4.84,5.2-9.53,11.01-13.65,17.65
							c-2.06,3.31-3.97,6.83-5.63,10.54c-1.7,3.79-3.13,7.77-4.23,11.84c-2.19,8.15-3.18,16.86-2.25,25.96
							c0.46,4.54,1.41,9.15,2.93,13.69c1.51,4.53,3.63,9.01,6.18,13.02c5.12,8.06,11.77,14.42,18.86,19.28
							c3.56,2.44,7.25,4.52,11.04,6.29l2.86,1.26l2.9,1.14c1.95,0.72,3.93,1.38,5.83,1.93c7.69,2.25,15.3,3.36,22.54,3.84
							c7.25,0.47,14.14,0.3,20.7-0.08c13.01-0.85,25.9-2.52,38.62-5.08c3.17-0.69,6.36-1.3,9.51-2.07l9.43-2.4l9.32-2.76
							c1.56-0.44,3.09-0.97,4.62-1.49l4.6-1.57c12.23-4.29,24.17-9.38,35.73-15.23c11.56-5.86,22.68-12.6,33.33-20.01l3.99-2.78
							c1.33-0.93,2.6-1.95,3.9-2.92l3.88-2.95l1.94-1.48l1.88-1.55c2.51-2.08,5.01-4.11,7.53-6.24c2.52-2.19,5.12-4.55,7.73-7.15
							c5.19-5.2,10.57-11.41,14.93-19.51c2.16-4.04,4-8.55,5.24-13.36c1.24-4.83,1.81-9.73,1.83-14.42
							c0.03-9.42-1.96-17.89-4.65-25.37c-1.35-3.75-2.9-7.3-4.59-10.66c-0.85-1.68-1.72-3.33-2.6-4.87
							c-0.88-1.57-1.76-3.15-2.73-4.66c-7.52-12.29-17-23.18-27.49-32.38c-10.51-9.23-22-16.83-33.87-23.11
							c-12.33-5.45-24.89-9.53-37.48-12.63c-12.59-3.09-25.23-5.19-37.84-6.49l-9.35-0.78l-4.66-0.38l-4.67-0.22l-9.31-0.43
							l-9.29-0.13l-4.63-0.06l-4.62,0.08l-9.23,0.17l-9.19,0.43l-4.59,0.22l-4.57,0.33l-9.13,0.67l-9.09,0.88l-4.54,0.45l-4.52,0.53
							l-9.03,1.08c-12,1.62-23.93,3.36-35.78,5.44c-23.72,4.04-47.15,8.92-70.58,13.76c23.9-1.06,47.81-2.16,71.62-2.38
							c11.9-0.18,23.77,0,35.59,0.29l8.85,0.36l4.42,0.18l4.41,0.27l8.8,0.55l8.76,0.76l4.37,0.38l4.35,0.49l8.69,0.98l8.63,1.23
							l4.3,0.61l4.28,0.75l8.53,1.49l8.44,1.77l4.21,0.88l4.17,1.03l8.31,2.05C232.54,188.36,253.28,196.85,270.82,208.28z"/>
					</g>
				</g>
			</g>
			<g>
				<g>
					<g>
						<g>
							<path class="st2" d="M760.86,18.94c-7.49,8.39-13.25,18.19-17.63,28.26c-4.46,10.03-8.07,20.39-10.97,30.93
								c-2.87,10.55-5.1,21.24-6.55,32.11c-1.44,10.84-2.12,21.7-2.6,32.5c-0.23,5.4-0.41,10.78-0.59,16.17
								c-0.17,5.41-0.28,10.83-0.28,16.26c0.01,10.86,0.5,21.79,1.83,32.66c1.31,10.87,3.58,21.73,7.12,32.22
								c3.58,10.46,8.43,20.66,15.3,29.65c7.03,8.82,16.32,16.08,26.88,20.18c2.65,0.98,5.33,1.87,8.08,2.47
								c2.72,0.68,5.56,1.08,8.37,1.28c2.83,0.21,5.67,0.08,8.47-0.21c2.81-0.33,5.56-0.96,8.25-1.78
								c5.35-1.7,10.34-4.36,14.74-7.72c4.4-3.36,8.23-7.38,11.43-11.81c6.4-8.87,10.38-19.33,11.55-30.03
								c-1.8,10.61-6.36,20.66-13.06,28.87c-6.67,8.19-15.67,14.53-25.7,17.03c-2.5,0.6-5.04,1.02-7.59,1.17
								c-2.55,0.11-5.11,0.08-7.64-0.26c-2.53-0.34-5.02-0.83-7.48-1.61c-2.48-0.69-4.86-1.66-7.2-2.68
								c-9.3-4.28-17.15-11.2-23.05-19.55c-6.22-8.13-10.77-17.61-14.14-27.47c-3.35-9.91-5.51-20.21-6.78-30.7
								c-1.28-10.48-1.77-21.1-1.78-31.74c-0.01-5.33,0.1-10.66,0.27-16.01c0.18-5.37,0.36-10.74,0.59-16.09
								c0.47-10.69,1.14-21.33,2.54-31.83c1.39-10.47,3.57-20.88,6.34-31.09c2.81-10.2,6.3-20.21,10.58-29.85
								c2.14-4.86,4.45-9.45,7.18-13.87c1.35-2.21,2.81-4.34,4.33-6.43c1.54-2.07,3.15-4.07,4.85-5.99
								c3.3-3.92,6.96-7.54,11.03-10.61c2.02-1.51,4.1-2.9,6.34-4.02c1.09-0.62,2.26-1.06,3.4-1.58c1.17-0.41,2.33-0.9,3.54-1.19
								c1.19-0.38,2.41-0.6,3.63-0.86c0.61-0.11,1.23-0.16,1.84-0.25c0.62-0.1,1.23-0.14,1.85-0.15c2.48-0.17,4.97,0.03,7.4,0.52
								c2.45,0.45,4.8,1.32,7.04,2.43l1.67,0.87l1.59,1.03c0.54,0.32,1.06,0.7,1.57,1.11l1.55,1.18c4.04,3.26,7.58,7.17,10.67,11.44
								c3.1,4.27,5.67,8.94,7.94,13.77c2.26,4.83,4.15,9.86,5.8,14.96c1.67,5.1,3.07,10.3,4.28,15.54c-0.9-5.3-2-10.59-3.37-15.81
								c-1.36-5.22-2.95-10.4-4.96-15.45c-2.01-5.04-4.36-9.99-7.32-14.61c-2.95-4.62-6.44-8.98-10.56-12.73l-1.59-1.36
								c-0.52-0.46-1.06-0.91-1.65-1.32l-1.73-1.27l-1.84-1.11c-2.49-1.42-5.17-2.59-7.99-3.29c-2.8-0.74-5.71-1.15-8.6-1.12
								c-0.73-0.02-1.45-0.02-2.17,0.05c-0.72,0.06-1.45,0.08-2.17,0.17c-1.43,0.2-2.87,0.39-4.27,0.74
								c-1.43,0.27-2.79,0.74-4.18,1.14c-1.34,0.51-2.72,0.96-4.02,1.58c-2.65,1.13-5.16,2.6-7.54,4.17
								C769,11.1,764.73,14.85,760.86,18.94z"/>
						</g>
					</g>
				</g>
				<g>
					<g>
						<g>
							<path class="st2" d="M764.62,43.96c-1.08,2.03-2.13,4.08-3.13,6.13l-1.48,3.08l-0.73,1.54l-0.18,0.38
								c-0.04,0.11-0.23,0.43-0.29,0.68l-0.3,0.9c-1.41,4.17-3,8.35-4.51,12.65c-2.98,8.73-5.27,17.56-7.15,26.5
								c-3.71,17.88-5.38,36.12-5.47,54.29c-0.05,9.1,0.29,18.15,0.96,27.25c0.27,4.58,0.89,9.06,1.34,13.52
								c0.49,4.47,0.98,8.95,1.54,13.44c1.09,8.98,2.46,17.99,4.4,26.94c2.01,8.93,4.56,17.82,8.13,26.36l0.72,1.58l0.36,0.79
								l0.21,0.47c0.08,0.24,0.3,0.52,0.36,0.64c0.62,0.99,1.24,1.97,1.9,2.94c1.31,1.95,2.71,3.86,4.24,5.69
								c3.04,3.67,6.69,7.05,11.04,9.46l0.49,0.28c0.1,0.07,0.22,0.1,0.33,0.15l0.26,0.1l0.79,0.3l1.59,0.61l3.22,1.19
								c2.17,0.77,4.38,1.5,6.67,2.06c2.29,0.56,4.65,1,7.07,1.12c1.18,0.07,2.51,0.08,3.7-0.1c0.62-0.06,1.21-0.15,1.8-0.26
								c0.59-0.1,1.18-0.2,1.76-0.36c4.68-1.09,9.03-3.39,12.58-6.46c3.57-3.06,6.41-6.79,8.71-10.74c2.3-3.96,4.07-8.17,5.47-12.47
								c1.4-4.3,2.44-8.69,3.19-13.13c-1.06,4.37-2.4,8.66-4.08,12.8c-1.68,4.14-3.71,8.13-6.19,11.78
								c-2.48,3.65-5.42,6.96-8.88,9.52c-3.44,2.57-7.42,4.29-11.56,4.96c-0.51,0.11-1.04,0.15-1.56,0.21
								c-0.52,0.07-1.04,0.11-1.55,0.12c-1.04,0.08-1.97,0-3.03-0.13c-2.06-0.24-4.11-0.78-6.14-1.43
								c-2.03-0.65-4.04-1.48-6.05-2.35l-3.02-1.36l-1.52-0.71l-0.76-0.36l-0.1-0.04l-0.03-0.02c-0.02-0.01-0.03-0.02-0.05-0.03
								l-0.23-0.16c-3.38-2.2-6.25-5.23-8.7-8.65c-1.23-1.71-2.37-3.51-3.44-5.38c-0.54-0.93-1.05-1.88-1.56-2.84l-1.01-2.7
								c-3.37-8.05-5.8-16.5-7.73-25.09c-1.86-8.61-3.2-17.38-4.27-26.24c-0.55-4.42-1.03-8.88-1.52-13.34
								c-0.45-4.48-1.06-8.91-1.32-13.3c-0.64-8.83-0.98-17.74-0.93-26.61c0.09-17.75,1.72-35.47,5.31-52.79
								c1.81-8.65,4.05-17.25,6.87-25.51c1.47-4.17,3.08-8.39,4.54-12.73l0.24-0.7l0.22-0.47l0.71-1.51l1.44-2.99
								c0.97-1.98,1.97-3.94,3-5.87c3.86-7.83,8.42-15.27,14.57-21.13c0.78-0.71,1.57-1.41,2.38-2.1c0.84-0.63,1.65-1.33,2.53-1.91
								l1.32-0.88c0.25-0.16,0.38-0.27,0.45-0.3l0.25-0.11l0.35-0.15c0.93-0.36,1.88-0.66,2.84-0.87c1.93-0.43,3.92-0.51,5.91-0.22
								c0.99,0.14,1.98,0.36,2.96,0.66l0.68,0.22c0.1,0.03,0.38,0.18,0.6,0.29c0.46,0.23,0.94,0.45,1.38,0.73
								c3.63,2.04,6.63,5.14,8.87,8.82c2.26,3.68,3.83,7.84,5.12,12.1c1.29,4.26,2.33,8.64,3.48,12.99c1.16,4.35,2.42,8.7,4.3,12.8
								c-1.58-4.21-2.52-8.61-3.37-13.01c-0.84-4.41-1.56-8.85-2.57-13.27c-1.01-4.41-2.31-8.85-4.47-13.01
								c-2.13-4.15-5.3-7.98-9.35-10.64c-0.49-0.36-1.02-0.65-1.54-0.96c-0.27-0.15-0.48-0.3-0.89-0.5l-0.9-0.37
								c-1.14-0.44-2.33-0.81-3.55-1.07c-2.43-0.53-5-0.62-7.5-0.25c-1.25,0.18-2.47,0.47-3.67,0.84l-0.99,0.34
								c-0.46,0.16-0.77,0.42-1.01,0.53l-1.55,0.89c-1.04,0.59-1.99,1.3-3,1.94c-0.96,0.7-1.9,1.43-2.84,2.16
								C774.78,28.21,769.26,36.02,764.62,43.96z"/>
						</g>
					</g>
				</g>
				<g>
					<g>
						<g>
							<path class="st2" d="M675.6,257.46c-3.87-7.95-7.33-16.18-10.22-24.57c-2.88-8.41-5.23-17-7.08-25.69
								c-3.67-17.4-5.38-35.23-4.93-53.03c0.43-17.79,2.8-35.55,7.21-52.79c4.42-17.24,10.81-33.97,19.09-49.7
								c3.87-8.01,8.27-15.77,13.14-23.26l0.45-0.7l0.2-0.31l0.06-0.12c0.1-0.15,0.13-0.36,0.32-0.36c0.18-0.05,0.17-0.07,0.9-0.21
								l1.66-0.34l6.65-1.34l13.31-2.68l53.23-10.72l-53.85,6.96l-13.46,1.74l-6.73,0.87c-1.23,0.16-1.87,0.23-4.13,0.56l-0.72,0.1
								l-0.18,0.03c-0.05,0.02-0.07,0.09-0.11,0.13l-0.21,0.29l-0.84,1.16l-1.22,1.65c-5.52,7.32-10.62,14.99-15.2,22.98
								c-8.58,16.28-15.17,33.57-19.74,51.37c-4.55,17.81-7,36.14-7.44,54.5c-0.46,18.37,1.29,36.79,5.09,54.78
								c1.91,8.99,4.34,17.88,7.32,26.59c3,8.71,6.56,17.19,10.61,25.49c4.42,8.12,9.64,16.17,16.81,22.56
								c7.12,6.44,16.25,10.48,25.46,11.89c4.61,0.81,9.27,0.91,13.86,0.76c4.6-0.14,9.15-0.76,13.64-1.51
								c8.98-1.56,17.72-4.02,26.38-6.63c-8.82,2-17.7,3.82-26.64,4.74c-4.47,0.42-8.95,0.73-13.39,0.54
								c-4.44-0.16-8.86-0.57-13.11-1.64c-4.24-1.04-8.39-2.43-12.11-4.58c-0.47-0.26-0.97-0.47-1.41-0.77l-1.34-0.89l-1.34-0.88
								l-0.67-0.44l-0.63-0.49c-1.71-1.27-3.27-2.74-4.77-4.24C683.55,273.15,679.25,265.46,675.6,257.46z"/>
						</g>
					</g>
				</g>
				<g>
					<g>
						<g>
							<path class="st2" d="M572.38,267.5c-3.16-2.48-5.99-5.42-8.51-8.66c-2.52-3.25-4.69-6.81-6.65-10.52
								c-3.92-7.42-6.82-15.49-9.33-23.7c-4.98-16.49-8.39-33.49-9.3-50.58c-0.89-17.04,0.79-34.32,6.69-50.12
								c1.45-3.95,3.17-7.79,5.16-11.48c2-3.68,4.18-7.27,6.7-10.62c2.5-3.36,5.23-6.56,8.16-9.56c2.95-2.99,6.12-5.77,9.44-8.36
								c6.44-5.46,13.66-10.08,21.23-14.12c7.6-4,15.57-7.4,23.74-10.33c16.35-5.88,33.39-10.03,50.44-13.92
								c-17.29,2.65-34.6,5.54-51.6,10.3c-8.5,2.37-16.89,5.25-25.07,8.82c-8.14,3.62-16.09,7.91-23.42,13.26
								c-3.57,2.79-6.99,5.79-10.18,9.03c-3.18,3.25-6.14,6.72-8.86,10.38c-2.74,3.65-5.12,7.55-7.29,11.55
								c-2.17,4-4.03,8.16-5.59,12.43c-3.18,8.51-5.18,17.39-6.31,26.31c-1.09,8.94-1.32,17.93-0.85,26.86
								c0.95,17.86,4.49,35.41,9.62,52.39c2.6,8.49,5.62,16.98,9.88,25.04c2.13,4.02,4.52,7.96,7.36,11.63
								c2.85,3.66,6.12,7.07,9.84,9.99c3.81,2.78,8.03,5.1,12.49,6.6c4.45,1.53,9.06,2.38,13.62,2.72c9.15,0.68,18.03-0.55,26.7-1.9
								c8.68-1.37,17.23-3.01,25.89-3.6c8.62-0.58,17.47,0.01,25.65,3.26c-7.91-3.84-16.9-5.12-25.7-5.16
								c-8.84-0.04-17.61,0.99-26.29,1.72c-8.66,0.73-17.34,1.24-25.62,0c-4.13-0.61-8.13-1.67-11.85-3.26
								C578.83,272.31,575.44,270.09,572.38,267.5z"/>
						</g>
					</g>
				</g>
				<g>
					<g>
						<g>
							<path class="st2" d="M517.32,206.56c-2.58-5.18-2.75-11.93-3.07-18.85c-0.15-3.41-0.22-6.75,0.02-9.96
								c0.23-3.2,0.78-6.34,1.82-9.13c0.45-3,1.52-6.04,3.28-8.74c1.76-2.69,4.29-5.06,7.59-6.36c-3.54,0.04-7.21,1.44-10.3,3.69
								c-3.11,2.25-5.72,5.27-7.71,8.77c-1.38,3.73-2,7.51-2.27,11.22c-0.27,3.71-0.18,7.33-0.03,10.85
								c0.17,3.48,0.28,6.99,0.74,10.7c0.47,3.68,1.31,7.54,3.12,11.21c0.3,0.42,0.62,0.83,0.93,1.23l1.04,1.21
								c0.38,0.37,0.74,0.75,1.12,1.1c0.4,0.34,0.78,0.68,1.18,0.99c1.62,1.25,3.39,2.23,5.25,2.9c1.85,0.66,3.81,1.01,5.71,0.92
								c1.9-0.08,3.73-0.61,5.23-1.54c-3.52,0.67-6.77-0.7-9.1-2.71c-1.18-1.01-2.17-2.21-2.93-3.48c-0.19-0.32-0.35-0.65-0.53-0.97
								l-0.44-0.98l-0.34-0.99L517.32,206.56z"/>
						</g>
					</g>
				</g>
				<g>
					<g>
						<g>
							<path class="st12" d="M840.62,165.16c0.63-6.34,0.88-12.72,0.76-19.09c-0.7-3.17-1.49-6.31-2.37-9.39
								c-0.38,3.19-0.86,6.35-1.43,9.47c0.12,6.22-0.12,12.45-0.74,18.64c0.32,3.16,0.55,6.34,0.68,9.55
								C838.63,171.33,839.67,168.27,840.62,165.16z"/>
						</g>
					</g>
				</g>
				<g>
					<g>
						<g>
							<path class="st12" d="M853.2,172.88c1.39-7.7,2.22-15.51,2.49-23.33c-0.5-3.93-1.14-7.83-1.91-11.67
								c-0.49,3.89-1.12,7.74-1.89,11.54c-0.27,7.64-1.08,15.26-2.44,22.79c-0.05,3.87-0.25,7.77-0.59,11.68
								C850.43,180.29,851.88,176.62,853.2,172.88z"/>
						</g>
					</g>
				</g>
				<g>
					<g>
						<g>
							<path class="st2" d="M888.93,128.95c14.38-1.87,28.69-4.56,42.79-8.21c3.54-0.85,7.02-1.95,10.53-2.93
								c3.54-1.01,7.21-2.32,10.7-4.14c1.76-0.89,3.48-1.97,5.13-3.23c1.65-1.25,3.23-2.75,4.54-4.58c1.31-1.81,2.37-3.94,2.91-6.23
								c0.5-2.28,0.54-4.65,0.1-6.96c-0.45-2.31-1.44-4.41-2.62-6.26c-1.19-1.86-2.63-3.42-4.14-4.8c-3.04-2.77-6.42-4.8-9.89-6.51
								c-1.74-0.87-3.53-1.57-5.23-2.2l-5.17-1.95c-1.71-0.7-3.49-1.16-5.24-1.73l-5.27-1.64c-14.19-3.91-28.78-5.97-43.35-6.79
								c-14.61-0.21-29.1,0.89-43.44,2.54c-14.35,1.65-28.58,3.88-42.78,6.17c14.35-1.03,28.72-2,43.05-2.37
								c14.33-0.38,28.65-0.19,42.75,1.27c14.13,0.8,28.17,2.79,41.71,6.52l5.02,1.56c1.67,0.54,3.37,0.98,4.99,1.65l4.92,1.86
								c1.67,0.62,3.23,1.23,4.71,1.97c2.98,1.46,5.81,3.19,8.08,5.28c2.31,2.06,3.93,4.49,4.43,6.94c0.22,1.23,0.2,2.51-0.05,3.74
								c-0.29,1.22-0.85,2.37-1.64,3.46c-0.78,1.1-1.82,2.12-3.04,3.03c-1.2,0.92-2.54,1.77-3.99,2.5c-1.44,0.74-2.95,1.42-4.52,2
								c-1.59,0.59-3.13,1.12-4.87,1.6c-3.41,0.96-6.79,2.03-10.25,2.86c-13.74,3.55-27.74,6.19-41.88,8.03
								c-28.11,5.03-56.85,7.35-85.53,9.64C831.17,131.29,860,131.52,888.93,128.95z"/>
						</g>
					</g>
				</g>
				<g>
					<g>
						<g>
							<path class="st2" d="M897.46,244.21c14.83-0.99,29.65-2.5,44.37-4.83l5.52-0.88l5.5-1c1.85-0.35,3.63-0.64,5.54-1.05
								c1.89-0.4,3.82-0.88,5.77-1.53c1.94-0.65,3.91-1.47,5.82-2.63c1.9-1.16,3.74-2.72,5.18-4.68c0.73-0.97,1.31-2.04,1.81-3.18
								c0.45-1.15,0.82-2.33,0.99-3.52c0.39-2.39,0.23-4.76-0.31-6.97c-0.52-2.22-1.4-4.3-2.56-6.2c-0.57-0.96-1.24-1.86-1.96-2.72
								c-0.71-0.84-1.46-1.61-2.25-2.34c-3.16-2.91-6.78-4.91-10.33-6.54c-3.56-1.65-7.1-2.8-10.67-4.11l-2.67-0.95l-2.72-0.81
								l-5.43-1.61c-14.57-4-29.58-5.96-44.53-6.77c-3.75-0.11-7.49,0.06-11.23,0.11c-3.74,0.09-7.46,0.35-11.18,0.52
								c-3.71,0.3-7.43,0.54-11.13,0.9c-3.7,0.39-7.4,0.7-11.08,1.17c-14.74,1.72-29.35,4.03-43.94,6.4
								c14.74-1.12,29.49-2.16,44.22-2.61c3.68-0.16,7.36-0.15,11.04-0.21c3.68-0.04,7.35,0.04,11.01,0.06
								c3.66,0.15,7.33,0.21,10.98,0.44c3.65,0.27,7.3,0.41,10.92,0.83c14.52,0.78,28.98,2.68,42.92,6.51l5.19,1.54l2.59,0.77
								l2.54,0.91c3.37,1.24,6.86,2.38,10,3.84c3.15,1.44,6.05,3.1,8.34,5.21c0.57,0.52,1.11,1.08,1.59,1.65
								c0.46,0.56,0.9,1.14,1.27,1.77c0.77,1.24,1.33,2.61,1.66,3.99c0.34,1.38,0.41,2.76,0.2,4.02c-0.19,1.28-0.66,2.38-1.43,3.41
								c-0.75,1.02-1.76,1.92-3.01,2.68c-1.25,0.76-2.7,1.38-4.26,1.9c-1.56,0.52-3.22,0.94-4.94,1.3c-1.7,0.37-3.57,0.67-5.35,1.01
								l-5.4,0.98l-5.42,0.87c-14.46,2.3-29.06,3.78-43.7,4.76c-29.22,3.25-58.79,4.43-88.33,5.61
								C838.15,243.57,867.72,244.95,897.46,244.21z"/>
						</g>
					</g>
				</g>
				<g>
					<g>
						<g>
							<path class="st2" d="M798.06,115.74c-3.91-5.61-7.02-11.63-8.64-18.02c-1.62-6.35-1.7-13,0.5-18.86
								c0.26-1.57,0.64-3.16,1.18-4.72c0.56-1.54,1.24-3.07,2.09-4.54c0.87-1.44,1.88-2.84,3.07-4.13c1.2-1.26,2.56-2.42,4.07-3.43
								c-1.76,0.43-3.51,1.06-5.21,1.9c-1.67,0.86-3.28,1.93-4.79,3.14c-1.5,1.24-2.88,2.64-4.16,4.16
								c-1.26,1.54-2.38,3.2-3.39,4.97c-0.68,1.89-1.21,3.83-1.58,5.81c-0.34,2-0.52,3.97-0.57,5.95c-0.02,1.98,0.1,3.94,0.33,5.89
								c0.25,1.94,0.63,3.85,1.09,5.73c1.91,7.51,5.51,14.38,9.77,20.48c5.3,5.4,11.03,9.91,16.74,14.39
								C804.72,128.31,800.92,122.1,798.06,115.74z"/>
						</g>
					</g>
				</g>
				<g>
					<g>
						<g>
							<path class="st2" d="M807.69,232.74c-3.33-4.97-5.65-10.62-6.67-16.48c-1.02-5.85-0.75-11.96,0.7-17.76
								c0.22-6.11,1.74-12.44,4.74-18.35c-5,4.34-9.2,10-12.13,16.5c-1.7,6.8-2.03,13.96-0.81,20.92
								c1.21,6.96,3.95,13.58,7.85,19.41c4.96,5.12,10.82,9.02,17,11.42C813.54,243.85,809.97,238.41,807.69,232.74z"/>
						</g>
					</g>
				</g>
				<g>
					<g>
						<g>
							<path class="st2" d="M919.53,108.79l1.44-0.09c0.58-0.05,1.14-0.16,1.71-0.26c0.55-0.11,1.14-0.17,1.67-0.31l1.56-0.45
								c0.55-0.13,0.96-0.36,1.44-0.54l0.69-0.29l0.35-0.15l0.26-0.18c0.69-0.49,1.46-0.95,1.89-1.53c0.47-0.56,0.84-1.18,1.1-1.93
								c0.11-0.38,0.24-0.78,0.25-1.21c0.07-0.42,0.04-0.86,0-1.28c-0.24-1.68-1.04-2.88-2.24-3.95c-0.33-0.26-0.62-0.51-1.03-0.74
								l-0.58-0.35l-0.67-0.32c-0.91-0.43-2.02-0.74-3.13-1.02c-0.56-0.14-1.12-0.28-1.69-0.4l-0.86-0.18l-0.76-0.15
								c-0.63-0.11-1.27-0.22-1.9-0.31c-1.27-0.18-2.55-0.32-3.84-0.4l-0.96-0.05c-0.38-0.01-0.77-0.02-1.17-0.01
								c-0.8,0.03-1.63,0.11-2.54,0.32c-0.87,0.37-1.81,0.87-2.7,1.72c-0.89,0.83-1.62,2.07-1.79,3.31
								c-0.22,1.3,0.12,2.56,0.67,3.44c0.55,0.89,1.26,1.51,2.01,1.95c0.75,0.43,1.59,0.71,2.41,0.77c0.78,0.05,1.5-0.04,2.17-0.21
								c1.33-0.35,2.41-0.96,3.48-1.55c-1.22-0.02-2.47-0.05-3.52-0.35c-0.52-0.15-0.99-0.36-1.36-0.63
								c-0.33-0.25-0.54-0.58-0.7-0.91c-0.14-0.33-0.18-0.68-0.09-0.88c0.03-0.1,0.15-0.16,0.16-0.16
								c-0.11,0.02-0.23-0.02-0.14,0.01l0.01,0l0.28,0.1l0,0l-0.01,0l-0.02-0.01c-0.03-0.01-0.06-0.02-0.09-0.04
								c-0.03-0.02-0.02-0.01-0.01,0c0.09,0.07,0.2,0.16,0.43,0.46l0.07,0.1c0,0.01,0.01,0.02,0.02,0.02l0.04,0.04
								c0.03,0.03,0.08,0.05,0.11,0.08c0.1,0.05,0.21,0.09,0.36,0.14c0.24-0.06,0.6-0.1,0.98-0.12c0.19-0.01,0.4,0,0.61,0l0.81,0.05
								c1.08,0.07,2.17,0.18,3.24,0.34c0.54,0.08,1.07,0.17,1.61,0.26l0.14,0.03l0.08,0.02c0.06,0.01,0.1,0.1,0.02,0.12
								c-0.03,0.01-0.05,0.02-0.08,0.03l-0.04,0.01l-0.02,0l0.02,0l-0.36,0.02c-3.81,1.37-8.62,1.42-13.12-0.58
								C909.07,104.58,913.86,107.68,919.53,108.79z"/>
						</g>
					</g>
				</g>
				<g>
					<g>
						<g>
							<path class="st2" d="M922.13,78.92c-13.34-2.71-26.76-3.65-39.98-4.64c-13.24-0.97-26.57-1.88-39.99-1.94
								c-13.42,1.21-26.8,3.29-39.62,6.95c13.28-1.16,26.5-0.66,39.59,0.66c13.1,0.06,26.26,0.94,39.47,1.91
								c13.22,0.98,26.34,1.92,39.01,4.5c6.45,0.67,12.87,1.77,19.14,3.58c6.26,1.8,12.39,4.33,18.1,7.77
								c-4.95-4.46-10.63-8.22-16.69-11.3C935.09,83.33,928.66,80.9,922.13,78.92z"/>
						</g>
					</g>
				</g>
				<g>
					<g>
						<g>
							<path class="st2" d="M932.09,202.58c-24.97-6.35-50.87-9.06-76.61-8c-12.82,1.8-25.42,4.53-37.66,8.16
								c12.71-1.14,25.41-1.31,37.97-0.56c25.01-1.03,50.17,1.6,74.42,7.77c12.44,1.86,24.83,4.64,37.04,8.39
								C956.03,212.26,944.27,206.98,932.09,202.58z"/>
						</g>
					</g>
				</g>
			</g>
		</g>
	</g>
</g>
<g id="female_plug">
</g>
<g id="electicity">
</g>
</svg>
