<?xml version="1.0" encoding="utf-8"?>
<!-- Generator: Adobe Illustrator 27.9.0, SVG Export Plug-In . SVG Version: 6.00 Build 0)  -->
<svg version="1.1" xmlns="http://www.w3.org/2000/svg" xmlns:xlink="http://www.w3.org/1999/xlink" x="0px" y="0px"
	 viewBox="0 0 769.67 646.53" style="enable-background:new 0 0 769.67 646.53;" xml:space="preserve">
<style type="text/css">
	.st0{fill:#F5EE81;stroke:#F5EE81;stroke-width:0.3775;stroke-miterlimit:10;}
	.st1{fill:none;stroke:#FEFDF2;stroke-miterlimit:10;}
	.st2{fill:#26619C;stroke:#26619C;stroke-width:0.1888;stroke-miterlimit:10;}
	.st3{fill:#D744DC;stroke:#D744DC;stroke-width:0.1888;stroke-miterlimit:10;}
	.st4{fill:#918D91;stroke:#918D91;stroke-width:0.2831;stroke-miterlimit:10;}
	.st5{fill:none;stroke:#6F96BD;stroke-miterlimit:10;}
	.st6{fill:#3F3F3F;stroke:#3F3F3F;stroke-width:0.2831;stroke-miterlimit:10;}
	.st7{fill:#26619C;stroke:#26619C;stroke-width:0.3775;stroke-miterlimit:10;}
	.st8{fill:#918D91;stroke:#918D91;stroke-width:0.3775;stroke-miterlimit:10;}
	.st9{fill:#3F3F3F;stroke:#3F3F3F;stroke-width:0.3775;stroke-miterlimit:10;}
	.st10{fill:#F5EE81;stroke:#F5EE81;stroke-width:0.1888;stroke-miterlimit:10;}
	.st11{stroke:#000000;stroke-width:1.1326;stroke-miterlimit:10;}
	.st12{fill:#26619C;stroke:#26619C;stroke-width:0.0944;stroke-miterlimit:10;}
	.st13{fill:#26619C;stroke:#26619C;stroke-width:0.2615;stroke-miterlimit:10;}
	.st14{fill:none;stroke:#6F96BD;stroke-width:0.6926;stroke-miterlimit:10;}
	.st15{fill:#202020;}
	.st16{stroke:#000000;stroke-width:0.3295;stroke-miterlimit:10;}
	.st17{fill:#2DF15B;}
	.st18{fill:#26619C;stroke:#26619C;stroke-width:0.1915;stroke-miterlimit:10;}
	.st19{fill:#26619C;stroke:#26619C;stroke-width:0.1905;stroke-miterlimit:10;}
	.st20{fill:none;stroke:#6F96BD;stroke-width:0.5045;stroke-miterlimit:10;}
	.st21{stroke:#000000;stroke-width:0.9886;stroke-miterlimit:10;}
	.st22{fill:#F5EE81;stroke:#F5EE81;stroke-width:0.7551;stroke-miterlimit:10;}
	.st23{fill:none;stroke:#FEFDF2;stroke-width:2;stroke-miterlimit:10;}
</style>
<g id="shine">
	<g>
		<g>
			<g>
				<g>
					<path class="st0" d="M143.61,470.45l-105.4-27.99l-0.64,14.86c26.64-4.68,52.97-11.11,78.76-19.23
						c29.68-12.02,58.25-26.28,85.36-42.58c-29.37,11.75-59.48,21.11-89.93,28.05c-25.16,7.92-50.83,14.2-76.81,18.76L0.88,448.3
						l33.43,8.88l105.4,27.99l93.38,16.92L143.61,470.45z"/>
				</g>
			</g>
		</g>
		<g>
			<g>
				<g>
					<path class="st0" d="M241.25,217.74l-12.44-5.78l-7.57-3.52l-7.23-3.16l-7.22-3.14l-1.8-0.79c-0.28-0.11-0.64-0.3-0.86-0.35
						l0.35,0.95l1.41,3.8l5.59,15.02c0.98,2.52,1.87,5.01,2.92,7.56l3.2,7.66l1.89,4.25c0.58,1.32,1.21,2.62,1.82,3.93
						c2.46,5.23,5.05,10.38,7.78,15.47c7.71,8.96,15.86,17.37,24.34,25.2c-4.3-10.72-7.96-21.55-10.93-32.42
						c-2.6-4.84-5.07-9.75-7.41-14.72c-0.57-1.25-1.17-2.48-1.73-3.74l-1.55-3.46l-0.08-0.19c-0.04-0.11-0.17-0.33,0.03-0.19
						l3.07,1.43l33.86,7.34L241.25,217.74z"/>
				</g>
			</g>
		</g>
		<g>
			<g>
				<g>
					<path class="st0" d="M491.16,241.5l16.91-49.07l-23.06,11.76c-3.55,2.52-6.68,4.83-9.39,6.92c-0.81,0.59-0.96,0.85-1.37,1.23
						l-1.07,1.08l-2.14,2.16l-8.55,8.63l12.01-1.85l3-0.46l1.5-0.23c0.45-0.05,1.16-0.23,1.2-0.08c0.71,0.35,1.01,0.91,0.89,1.68
						l0.28-0.14l-4.62,13.41l-0.28,21.31l-0.11,8.59l1.79-7.8l0.67-2.9l-2.27,1.94l1.68,0.79L491.16,241.5z"/>
				</g>
			</g>
		</g>
		<g>
			<g>
				<g>
					<path class="st0" d="M237.6,610.89l-0.24,0.16l-0.12,0.07c-0.03,0.01-0.12,0.09-0.07,0.01c0.05-0.12,0.09-0.25,0.13-0.37
						l0.26-0.85l1.03-3.49c0.78-2.71,1.52-5.44,2.22-8.17c-0.06-9.58-0.65-19.04-1.73-28.31l-0.71-0.05l0.36,1.33l0.35-1.33
						l-0.71-0.05c-3.7,8.55-7.82,16.78-12.32,24.66c-0.67,2.58-1.36,5.15-2.1,7.71l-0.56,1.92l-0.28,0.96l-0.48,1.53l-1.07,3.37
						l-0.54,1.7l-0.68,1.96c-0.93,2.62-1.76,5.18-2.86,7.92l-3.18,8.18l-6.47,16.39l4.37-2.38l4.73-2.6l9.16-5.05
						c1.54-0.86,3.03-1.65,4.6-2.58c1.57-0.94,3.13-1.82,4.72-2.81l4.8-3.07l4.8-3.31c0.44-0.41,0.87-0.81,1.27-1.21
						c0.25-0.23,0.29-0.31,0.4-0.44l0.3-0.37l1.2-1.48c0.78-1.01,1.57-1.99,2.33-3c1.52-2.02,3-4.04,4.41-6.11
						c2.84-4.11,5.46-8.31,7.86-12.57c-4.22,2.48-8.5,4.75-12.83,6.8c-2.16,1.03-4.34,1.99-6.52,2.91
						c-1.08,0.47-2.19,0.89-3.28,1.33l-1.65,0.63l-0.41,0.16c-0.13,0.04-0.32,0.14-0.31,0.08
						C237.7,611.02,237.64,610.96,237.6,610.89z"/>
				</g>
			</g>
		</g>
		<g>
			<g>
				<g>
					<path class="st0" d="M544.91,589.92l1.56,4.04l0.03,0.09c-0.01,0.01-0.05-0.01-0.08-0.01l-0.18-0.05l-2.81-0.93
						c-2.3-0.8-4.59-1.64-6.86-2.54c-4.54-1.79-9-3.79-13.35-5.98c-5.68-1.22-11.37-2.77-17.02-4.65l-1.94,5.93l13.16-2.4
						l-12.75-4.03l-10.92-3.45l8.97,9.39c4.27,4.46,8.83,8.75,13.66,12.82c4.77,2.4,9.64,4.58,14.6,6.54
						c2.48,0.98,4.99,1.9,7.51,2.77l1.9,0.63l0.95,0.31c0.47,0.15,1.12,0.37,1.7,0.55l7.2,2.09l7.05,1.74l6.99,1.65l3.56,0.84
						l1.78,0.42l0.89,0.21l0.22,0.05c0-0.04-0.04-0.13-0.06-0.2l-0.14-0.42l-2.32-6.69c-0.79-2.24-1.51-4.43-2.35-6.72l-2.73-7.06
						l-4.03-10.43l-18.14-25.85L544.91,589.92z"/>
				</g>
			</g>
		</g>
		<g>
			<g>
				<g>
					<polygon class="st0" points="659.18,474.94 769.06,441.06 664.69,404.82 577.65,382.65 659.7,419.2 720.17,440.2 
						654.69,460.39 577.24,491.69 574.79,492.68 577.34,492.73 583.63,492.84 577.45,491.67 577.56,492.7 					"/>
				</g>
			</g>
		</g>
		<g>
			<g>
				<g>
					<path class="st0" d="M416.85,107.34l-11.17-43.07l-7.03-27.1l-5.52-21.16l-2.76-10.49l-1.38-5.25
						c-0.02-0.21-0.07,0.05-0.11,0.12l-0.12,0.32l-0.23,0.64l-0.46,1.28l-0.93,2.57c-4.94,13.71-9.86,27.36-14.73,41.11l-3.81,11.01
						l-3.59,10.57c-4.75,14.11-9.33,28.28-13.75,42.5c-6.41,29.19-12.14,58.47-17.17,87.81c9.94-28.06,20.52-55.84,31.71-83.3
						c4.38-14.11,8.93-28.16,13.64-42.16l3.56-10.49l3.46-10.01l0.18-0.51l0.02-0.06l0.02,0.07l0.03,0.13l0.07,0.26l4.14,15.97
						l11.17,43.07l29.71,84.23L416.85,107.34z"/>
				</g>
			</g>
		</g>
	</g>
</g>
<g id="spyglass">
</g>
<g id="plug_prong">
</g>
<g id="female_plug">
</g>
<g id="electicity">
</g>
</svg>
