<?xml version="1.0" encoding="utf-8"?>
<!-- Generator: Adobe Illustrator 27.9.0, SVG Export Plug-In . SVG Version: 6.00 Build 0)  -->
<svg version="1.1" xmlns="http://www.w3.org/2000/svg" xmlns:xlink="http://www.w3.org/1999/xlink" x="0px" y="0px"
	 viewBox="0 0 616.24 786.43" style="enable-background:new 0 0 616.24 786.43;" xml:space="preserve">
<style type="text/css">
	.st0{fill:#D744DC;}
	.st1{fill:none;stroke:#EBA2EE;stroke-width:2.5206;stroke-miterlimit:10;}
	.st2{fill:none;stroke:#EBA2EE;stroke-miterlimit:10;}
	.st3{fill:#26619C;}
	.st4{fill:#FF007A;}
	.st5{fill:#F5EE81;}
	.st6{fill:#DC5CE0;}
</style>
<g id="brand">
</g>
<g id="web">
</g>
<g id="spider">
	<g>
		<g>
			<path d="M244,471.04c9.06,16.99,28.55,26.96,47.8,27.48s38.04-7.42,53.38-19.07c15.34-11.65,27.6-26.83,38.85-42.47
				c16.09-22.37,30.63-46.47,37.18-73.23c6.54-26.76,4.22-56.69-11.34-79.42c-13.06-19.08-34.4-31.53-56.9-36.85
				c-22.5-5.32-46.13-4-68.83,0.36c-25.65,4.93-51.64,14.41-69.17,33.76c-20.09,22.17-26.03,54.27-23.09,84.05
				c4.17,42.28,25.05,82.67,57.11,110.54"/>
			<g>
				<g>
					<g>
						<path d="M399.34,423.16c-4.43,6.5-9.07,12.79-13.82,18.98c-4.77,6.19-9.72,12.28-15.03,18.1c-5.3,5.82-10.96,11.37-17.07,16.4
							c-3.06,2.51-6.22,4.89-9.51,7.12c-3.3,2.2-6.71,4.23-10.22,6.07c-3.5,1.85-7.14,3.44-10.84,4.84c-3.7,1.4-7.5,2.55-11.37,3.4
							c-7.72,1.75-15.71,2.28-23.56,1.43c-7.83-0.97-15.47-3.3-22.32-7.07c-3.44-1.86-6.69-4.05-9.63-6.61
							c-2.94-2.54-5.64-5.37-7.91-8.5c2.43,3.01,5.26,5.67,8.29,8.03c3.03,2.37,6.34,4.36,9.8,6c6.89,3.34,14.43,5.21,21.99,5.74
							c7.57,0.42,15.19-0.48,22.46-2.54c3.64-1,7.21-2.28,10.67-3.8c3.46-1.52,6.84-3.21,10.08-5.15
							c13.06-7.65,24.02-18.38,33.65-30.11c4.82-5.88,9.32-12.05,13.68-18.35c4.34-6.32,8.56-12.72,12.52-19.23
							c8.56-13.31,16.09-27.25,21.29-41.96c2.58-7.35,4.61-14.87,5.85-22.49c1.26-7.62,1.66-15.37,1.29-23.04
							c-0.41-7.66-1.58-15.29-3.86-22.55c-2.25-7.26-5.47-14.19-9.66-20.45c-8.46-12.51-20.92-22.19-34.84-28.58
							c-13.96-6.43-29.39-9.43-44.96-9.91c-15.58-0.5-31.32,1.49-46.72,4.8c-7.67,1.7-15.23,3.8-22.53,6.49
							c-7.28,2.72-14.3,6.03-20.82,10.05c-6.48,4.08-12.43,8.9-17.55,14.46c-5.09,5.58-9.28,11.98-12.58,18.85
							c-6.73,13.04-10.22,27.9-11.18,42.9c-0.47,7.52-0.35,15.1,0.44,22.65c0.28,3.79,0.92,7.54,1.45,11.31
							c0.32,1.87,0.72,3.74,1.08,5.61c0.19,0.93,0.35,1.87,0.56,2.8l0.68,2.78c7.13,29.65,22.5,57.57,44.33,79.53
							c-22.95-20.79-40.09-48.18-49.01-78.28l-0.85-2.82c-0.27-0.94-0.49-1.9-0.73-2.85c-0.47-1.91-0.98-3.81-1.41-5.72
							c-0.76-3.86-1.61-7.71-2.12-11.62c-1.22-7.79-1.77-15.72-1.69-23.65c0.19-15.85,3.01-31.97,9.71-46.85l0,0
							c3.67-7.63,8.38-14.84,14.14-21.16c5.78-6.29,12.45-11.67,19.59-16.16c7.18-4.43,14.79-8,22.58-10.91
							c7.8-2.88,15.79-5.09,23.82-6.87c8.04-1.75,16.12-3.1,24.33-3.99c4.09-0.46,8.22-0.74,12.34-0.95
							c4.13-0.15,8.28-0.22,12.43-0.08c4.15,0.15,8.3,0.4,12.44,0.91c2.07,0.2,4.13,0.56,6.2,0.85c2.05,0.39,4.12,0.7,6.16,1.18
							c8.2,1.72,16.23,4.38,23.89,7.86c7.63,3.55,14.94,7.9,21.52,13.27c6.63,5.3,12.49,11.63,17.31,18.7
							c4.77,7.11,8.39,14.93,10.9,23.03c2.54,8.11,3.83,16.51,4.28,24.9c0.41,8.4-0.04,16.81-1.4,25.07
							c-1.35,8.28-3.53,16.35-6.28,24.18C416.07,394.85,408.17,409.43,399.34,423.16z"/>
						<path d="M205.91,303.49L205.91,303.49c3.31-6.88,7.51-13.3,12.61-18.89c5.13-5.58,11.1-10.41,17.59-14.49
							c6.54-4.03,13.57-7.34,20.86-10.07c7.31-2.7,14.88-4.8,22.56-6.5c15.41-3.31,31.17-5.3,46.77-4.81
							c15.58,0.49,31.04,3.49,45.03,9.93c13.95,6.41,26.44,16.11,34.92,28.65c4.21,6.28,7.43,13.22,9.69,20.5
							c2.29,7.28,3.46,14.92,3.87,22.6c0.38,7.69-0.03,15.45-1.29,23.08c-1.24,7.63-3.27,15.16-5.86,22.52
							c-5.21,14.73-12.74,28.67-21.31,42c-3.8,6.25-7.84,12.4-12,18.47c-4.17,6.07-8.47,12-13.05,17.7
							c-9.14,11.36-19.5,21.83-31.75,29.66c-6.12,3.9-12.66,7.18-19.54,9.53c-3.43,1.21-6.96,2.11-10.54,2.8
							c-3.57,0.7-7.21,1.09-10.85,1.18c-1.83,0.09-3.64-0.01-5.47-0.07c-1.82-0.17-3.64-0.3-5.45-0.62
							c-3.61-0.57-7.2-1.42-10.66-2.67c-6.95-2.41-13.47-6.16-18.99-11.13c5.25,5.25,11.64,9.4,18.58,12.22
							c3.46,1.46,7.08,2.52,10.76,3.3c1.84,0.42,3.71,0.66,5.58,0.93c1.88,0.16,3.77,0.37,5.65,0.37c3.78,0.11,7.57-0.1,11.32-0.63
							c3.75-0.52,7.48-1.27,11.11-2.34c7.3-2.07,14.3-5.13,20.9-8.88c13.25-7.52,24.62-17.9,34.66-29.13
							c5.03-5.63,9.76-11.48,14.32-17.43c4.55-5.95,8.99-11.99,13.24-18.22c8.82-13.72,16.72-28.28,22.26-43.93
							c2.75-7.81,4.93-15.88,6.27-24.14c1.36-8.25,1.81-16.65,1.4-25.03c-0.44-8.38-1.73-16.77-4.27-24.86
							c-2.5-8.09-6.11-15.89-10.87-22.98c-4.81-7.05-10.66-13.37-17.27-18.65c-6.57-5.36-13.87-9.7-21.48-13.24
							c-7.65-3.47-15.66-6.13-23.85-7.84c-2.04-0.48-4.1-0.79-6.15-1.17c-2.06-0.29-4.12-0.64-6.19-0.85
							c-4.13-0.51-8.28-0.76-12.43-0.91c-4.15-0.14-8.28-0.07-12.41,0.08c-4.12,0.21-8.24,0.49-12.33,0.95
							c-8.19,0.89-16.27,2.24-24.3,3.99c-8.03,1.78-16,3.99-23.8,6.86c-7.78,2.91-15.38,6.47-22.55,10.89
							c-7.13,4.48-13.78,9.85-19.55,16.12c-5.75,6.3-10.44,13.5-14.11,21.11c-6.43,14.25-9.28,29.65-9.67,44.86
							c-0.19,7.61,0.24,15.22,1.24,22.72l0.84,5.6c0.12,0.94,0.29,1.86,0.49,2.79l0.55,2.78c0.66,3.71,1.67,7.35,2.57,11.01
							c7.97,29.05,23.54,55.73,44.61,76.68c-19.95-22.02-33.83-49.17-40.1-77.78c-0.68-3.6-1.48-7.17-1.93-10.8l-0.4-2.71
							c-0.14-0.9-0.26-1.81-0.33-2.72l-0.53-5.45c-0.59-7.26-0.61-14.54-0.05-21.76C195.95,330.25,199.43,316.03,205.91,303.49
							 M206.26,303.66c-6.98,13.54-10.49,29.03-11.28,44.64c-0.81,15.65,1.25,31.51,5.21,46.85c8.1,30.66,25.03,59.28,48.79,81.05
							c-24.86-20.5-43.65-48.53-53.63-79.63c-2.52-7.78-4.38-15.77-5.79-23.85c-1.37-8.08-2.14-16.32-2.14-24.59
							c-0.01-16.5,2.77-33.33,9.76-48.85c3.68-7.64,8.4-14.87,14.17-21.2c5.79-6.3,12.48-11.7,19.63-16.19
							c7.19-4.44,14.82-8.01,22.62-10.93c7.81-2.88,15.81-5.1,23.85-6.88c8.05-1.75,16.14-3.1,24.35-4
							c4.1-0.46,8.22-0.74,12.36-0.95c4.14-0.15,8.29-0.22,12.44-0.08c4.15,0.15,8.31,0.4,12.46,0.91c2.08,0.2,4.14,0.56,6.21,0.85
							c2.06,0.39,4.13,0.7,6.17,1.18c8.22,1.72,16.26,4.39,23.93,7.87c7.64,3.56,14.97,7.91,21.56,13.29
							c6.64,5.31,12.51,11.65,17.35,18.74c4.78,7.13,8.41,14.97,10.92,23.09c2.55,8.12,3.84,16.55,4.29,24.95
							c0.41,8.41-0.04,16.84-1.4,25.11c-1.35,8.29-3.54,16.38-6.29,24.21c-5.55,15.68-13.46,30.27-22.3,44.01
							c-4.61,6.76-9.44,13.3-14.4,19.74c-4.98,6.43-10.17,12.76-15.75,18.77c-5.59,6-11.54,11.72-18.04,16.81
							c-6.46,5.12-13.5,9.58-20.96,13.12c-7.46,3.54-15.38,6.14-23.53,7.46c-8.14,1.25-16.53,1.34-24.58-0.43
							c-4.01-0.86-7.95-2.06-11.7-3.68c-3.75-1.63-7.33-3.62-10.66-5.96c-6.69-4.64-12.21-10.9-15.88-18.07
							c4.04,6.97,9.81,12.83,16.58,17.02c3.37,2.11,6.96,3.86,10.67,5.25c3.72,1.38,7.57,2.34,11.46,2.96
							c7.78,1.29,15.76,0.78,23.43-0.81c7.67-1.67,15.06-4.52,21.95-8.25c13.85-7.44,25.5-18.34,35.6-30.44
							c5.06-6.06,9.77-12.45,14.31-18.99c4.53-6.56,8.92-13.21,13.04-19.98c8.56-13.31,16.08-27.23,21.27-41.92
							c2.58-7.35,4.6-14.85,5.84-22.45c1.25-7.61,1.66-15.34,1.29-23c-0.41-7.65-1.58-15.26-3.85-22.51
							c-2.24-7.25-5.45-14.16-9.64-20.4c-8.43-12.47-20.87-22.13-34.76-28.52c-13.94-6.42-29.34-9.41-44.88-9.9
							c-15.56-0.5-31.29,1.49-46.67,4.8c-7.67,1.7-15.22,3.79-22.5,6.48c-7.27,2.72-14.28,6.02-20.79,10.03
							c-6.47,4.07-12.4,8.88-17.51,14.42C213.73,290.42,209.56,296.81,206.26,303.66z"/>
					</g>
				</g>
			</g>
		</g>
		<g>
			<path d="M313.24,450.59c-16.03,4.98-32.35,10.09-46.13,19.69c-13.78,9.6-24.86,24.56-25.54,41.34
				c-0.58,14.44,6.72,28.5,17.45,38.18c13.19,11.91,31.65,17.77,49.29,15.64c17.65-2.13,34.18-12.21,44.16-26.92
				c8.4-12.39,11.98-29.15,5.14-42.47c-4.51-8.78-12.77-14.9-20.76-20.7c-16.43-11.94-33.89-24.28-54.08-26.44"/>
			<g>
				<g>
					<g>
						<path d="M237.56,506.8c1.58-8.44,5.47-16.1,10.52-22.5c5.06-6.43,11.22-11.76,17.97-16c6.74-4.22,13.97-7.39,21.31-10
							c7.35-2.61,14.82-4.65,22.31-6.6c-7.26,2.66-14.5,5.41-21.46,8.66c-6.95,3.25-13.64,7.01-19.61,11.6
							c-5.93,4.58-11.11,10.07-15.05,16.22c-3.95,6.13-6.55,13-7.14,19.89c-0.51,3.55-0.51,7.14,0.03,10.71
							c0.53,3.56,1.6,7.07,3.05,10.43c2.93,6.71,7.45,12.83,13.03,17.7c5.56,4.95,12.19,8.69,19.24,11.16
							c7.06,2.47,14.59,3.63,22.03,3.24c7.42-0.36,14.78-2.23,21.55-5.42c6.76-3.21,12.92-7.68,18.02-13.12
							c5.13-5.44,9.09-11.85,11.33-18.84c2.25-6.95,2.79-14.43,0.83-21.1c-0.74-3.26-2.12-6.33-4.03-9.24
							c-1.93-2.9-4.34-5.61-7.03-8.15c-2.68-2.56-5.62-4.96-8.62-7.38c-3.01-2.41-6.02-4.83-9.06-7.17
							c-6.08-4.69-12.31-9.16-18.97-12.95c-3.34-1.87-6.77-3.6-10.32-5.05c-3.56-1.43-7.24-2.6-11.01-3.47
							c3.84,0.5,7.64,1.32,11.38,2.41c3.73,1.12,7.38,2.54,10.96,4.11c7.14,3.2,13.93,7.13,20.52,11.28c3.3,2.07,6.55,4.2,9.79,6.32
							c3.24,2.13,6.53,4.32,9.7,6.81c3.18,2.48,6.25,5.28,8.94,8.59c1.33,1.66,2.56,3.45,3.64,5.35c0.49,0.98,1.02,1.94,1.47,2.95
							c0.4,1.02,0.86,2.03,1.2,3.07l0,0c1.28,4.39,1.73,8.95,1.51,13.4c-0.21,4.46-1.08,8.82-2.42,12.98
							c-2.67,8.34-7.41,15.93-13.3,22.18c-5.89,6.29-12.97,11.42-20.74,15.1c-7.78,3.67-16.29,5.85-24.93,6.26
							c-8.63,0.44-17.28-0.9-25.39-3.73c-8.11-2.84-15.74-7.15-22.21-12.9c-6.52-5.71-11.8-12.82-15.31-20.84
							c-1.74-4.01-3.04-8.26-3.69-12.65C236.94,515.73,236.93,511.2,237.56,506.8z"/>
						<path d="M355.69,502.79L355.69,502.79c1.96,6.72,1.43,14.23-0.84,21.21c-2.25,7.02-6.23,13.45-11.37,18.9
							c-5.12,5.46-11.3,9.94-18.07,13.16c-6.79,3.2-14.17,5.08-21.61,5.44c-7.46,0.38-15.02-0.78-22.1-3.25
							c-7.07-2.48-13.73-6.24-19.3-11.2c-5.6-4.89-10.13-11.03-13.07-17.77c-1.46-3.37-2.54-6.89-3.07-10.47
							c-0.54-3.58-0.54-7.19-0.03-10.76c0.55-6.65,3.03-13.25,6.71-19.21c1.84-2.99,3.97-5.83,6.34-8.49c2.39-2.65,5-5.12,7.8-7.38
							c5.61-4.55,11.94-8.32,18.56-11.55c6.62-3.25,13.52-5.99,20.48-8.58c-7.17,1.91-14.33,3.97-21.33,6.61
							c-7,2.63-13.86,5.85-20.23,10.06c-6.38,4.21-12.19,9.44-16.91,15.7c-4.72,6.22-8.41,13.56-9.9,21.64
							c-0.63,4.39-0.62,8.89,0.04,13.26c0.65,4.38,1.95,8.61,3.68,12.61c3.5,7.99,8.77,15.09,15.27,20.78
							c6.45,5.73,14.06,10.03,22.15,12.86c8.09,2.82,16.72,4.16,25.33,3.72c8.61-0.41,17.11-2.59,24.86-6.25
							c7.75-3.68,14.81-8.79,20.68-15.06c5.88-6.23,10.59-13.8,13.26-22.11c1.34-4.15,2.2-8.5,2.41-12.93
							c0.21-4.43-0.23-8.97-1.51-13.34c-1.34-3.98-3.44-7.72-5.97-10.91c-2.53-3.21-5.45-5.93-8.47-8.36
							c-3.03-2.42-6.16-4.57-9.28-6.63c-3.12-2.05-6.22-4.08-9.38-6.09c-6.3-4.01-12.76-7.85-19.52-11.08
							c-3.38-1.62-6.85-3.04-10.37-4.28c-3.54-1.21-7.15-2.15-10.8-2.85c3.56,1.05,7.04,2.33,10.4,3.85
							c3.34,1.56,6.6,3.27,9.76,5.17c6.3,3.8,12.24,8.15,18.06,12.7c2.91,2.27,5.81,4.59,8.68,6.91c2.86,2.32,5.65,4.65,8.19,7.13
							c2.54,2.48,4.83,5.1,6.63,7.92C353.67,496.67,354.96,499.65,355.69,502.79 M355.35,502.89c-1.45-6.74-5.98-12.7-11.65-17.92
							c-2.83-2.63-5.91-5.12-9.05-7.63c-3.13-2.52-6.27-5-9.44-7.42c-3.17-2.43-6.39-4.76-9.7-6.98c-3.3-2.22-6.69-4.31-10.21-6.16
							c-3.52-1.84-7.13-3.56-10.9-4.86c-3.76-1.33-7.65-2.35-11.62-3c4.02,0.27,8.02,0.91,11.96,1.89
							c3.95,0.95,7.78,2.34,11.55,3.87c3.77,1.54,7.44,3.34,11.01,5.27c3.58,1.93,7.1,3.99,10.54,6.13
							c3.45,2.14,6.85,4.34,10.22,6.55c3.37,2.21,6.79,4.46,10.12,7c3.32,2.55,6.58,5.39,9.41,8.82c1.41,1.71,2.72,3.55,3.86,5.54
							c0.53,1.01,1.06,2.03,1.56,3.07c0.42,1.06,0.9,2.12,1.25,3.21c1.29,4.41,1.74,8.99,1.52,13.46
							c-0.22,4.47-1.08,8.85-2.43,13.03c-2.68,8.37-7.43,15.98-13.34,22.24c-5.91,6.31-13,11.45-20.79,15.14
							c-7.8,3.68-16.34,5.86-25,6.28c-8.65,0.44-17.33-0.9-25.46-3.74c-8.13-2.85-15.78-7.17-22.27-12.93
							c-6.54-5.73-11.84-12.86-15.36-20.91c-1.75-4.03-3.05-8.29-3.71-12.7c-0.67-4.4-0.68-8.95-0.04-13.37
							c1.65-8.82,5.83-16.76,11.16-23.36c5.35-6.62,11.93-12.04,19.05-16.26c7.11-4.23,14.69-7.37,22.37-9.94
							c7.68-2.58,15.48-4.61,23.27-6.62c-7.56,2.75-15.13,5.52-22.43,8.78c-7.3,3.26-14.33,7.02-20.65,11.66
							c-6.3,4.6-11.82,10.17-16,16.51c-4.17,6.32-6.96,13.42-7.58,20.55c-0.51,3.53-0.5,7.11,0.03,10.66
							c0.52,3.55,1.59,7.04,3.04,10.38c2.92,6.68,7.42,12.78,12.98,17.64c5.54,4.93,12.15,8.67,19.18,11.13
							c7.04,2.46,14.55,3.62,21.96,3.23c7.4-0.36,14.73-2.22,21.48-5.4c6.73-3.2,12.88-7.66,17.96-13.08
							c5.11-5.43,9.06-11.81,11.29-18.77C356.76,516.97,357.29,509.52,355.35,502.89z"/>
					</g>
				</g>
			</g>
		</g>
		<g>
			<g>
				<g>
					<g>
						<path class="st0" d="M302.12,538.51c-0.7,4.06-2.49,7.85-5.07,10.81c-2.58,2.96-5.87,5.16-9.41,6.34
							c3.22-1.88,5.83-4.58,7.56-7.66c1.73-3.08,2.51-6.52,2.4-9.86c0.28-3.42-0.39-7-1.97-9.93c-0.8-1.47-1.85-2.78-3.07-3.78
							c-1.23-0.99-2.63-1.63-4.08-1.82c-2.96-0.38-6.23,1.04-8.31,3.47c-2.16,2.44-3.39,5.84-3.72,9.27
							c-0.68,3.26-0.52,6.8,0.8,10.01c1.33,3.2,3.83,6.09,7.21,7.7c-3.64-0.89-6.96-3.32-9.2-6.61c-2.24-3.32-3.33-7.41-3.32-11.53
							v0c0.42-4.22,1.87-8.46,4.83-11.84c2.94-3.38,7.51-5.55,12.28-4.97c2.38,0.3,4.6,1.36,6.36,2.8c1.76,1.45,3.15,3.22,4.19,5.14
							C301.68,529.93,302.45,534.25,302.12,538.51z"/>
						<path class="st0" d="M276.36,535.35c0.33-3.44,1.56-6.86,3.74-9.32c2.09-2.45,5.39-3.89,8.39-3.5
							c1.48,0.19,2.89,0.84,4.13,1.84c1.23,1.01,2.29,2.33,3.09,3.81c1.59,2.95,2.27,6.54,1.98,9.98c0.1,3.22-0.6,6.54-2.22,9.53
							c-1.59,3-4.02,5.66-7.03,7.6c3.34-1.29,6.43-3.48,8.83-6.37c2.43-2.88,4.08-6.53,4.76-10.4c0.33-4.24-0.44-8.55-2.5-12.41
							c-1.04-1.91-2.42-3.67-4.17-5.11c-1.75-1.43-3.96-2.48-6.32-2.78c-4.73-0.58-9.28,1.57-12.2,4.94
							c-2.94,3.37-4.39,7.59-4.81,11.79c0,3.93,0.99,7.85,3.05,11.07c2.05,3.22,5.12,5.65,8.54,6.73c-3.13-1.75-5.42-4.61-6.61-7.72
							C275.82,541.89,275.71,538.49,276.36,535.35 M276.55,535.36c-0.7,3.37-0.52,7.05,0.96,10.34c1.45,3.28,4.2,6.2,7.81,7.64
							c-3.83-0.68-7.44-3.08-9.85-6.45c-2.45-3.39-3.62-7.68-3.61-11.97c0.42-4.23,1.88-8.49,4.85-11.89c2.96-3.4,7.56-5.58,12.36-5
							c2.4,0.3,4.63,1.37,6.41,2.82c1.78,1.46,3.17,3.24,4.21,5.17c2.08,3.89,2.85,8.23,2.52,12.51c-0.72,4.24-2.65,8.19-5.41,11.21
							c-2.75,3.03-6.25,5.22-9.98,6.29c3.44-1.8,6.23-4.54,8.09-7.7c1.87-3.16,2.72-6.72,2.6-10.18c0.28-3.4-0.39-6.97-1.96-9.88
							c-0.79-1.46-1.84-2.76-3.04-3.76c-1.22-0.98-2.6-1.61-4.04-1.8c-2.92-0.38-6.17,1.03-8.23,3.44
							C278.1,528.57,276.87,531.95,276.55,535.36z"/>
					</g>
				</g>
			</g>
		</g>
		<g>
			<g>
				<g>
					<g>
						<path class="st0" d="M331.23,538.04c-0.7,4.06-2.49,7.85-5.07,10.81c-2.58,2.96-5.87,5.16-9.41,6.34
							c3.22-1.88,5.83-4.58,7.56-7.66c1.73-3.08,2.51-6.52,2.4-9.86c0.28-3.42-0.39-7-1.97-9.93c-0.8-1.47-1.85-2.78-3.07-3.78
							c-1.23-0.99-2.63-1.63-4.08-1.82c-2.96-0.38-6.23,1.04-8.31,3.47c-2.16,2.44-3.39,5.84-3.72,9.27
							c-0.69,3.26-0.52,6.8,0.8,10.01c1.33,3.2,3.83,6.09,7.21,7.7c-3.64-0.89-6.96-3.32-9.2-6.61c-2.24-3.32-3.33-7.41-3.32-11.53
							v0c0.42-4.22,1.87-8.46,4.83-11.84c2.94-3.38,7.51-5.55,12.28-4.97c2.38,0.3,4.6,1.36,6.36,2.8c1.76,1.45,3.15,3.22,4.19,5.14
							C330.79,529.45,331.56,533.78,331.23,538.04z"/>
						<path class="st0" d="M305.47,534.87L305.47,534.87c0.33-3.44,1.56-6.86,3.74-9.32c2.09-2.45,5.39-3.89,8.39-3.5
							c1.48,0.19,2.89,0.84,4.13,1.84c1.23,1.01,2.28,2.33,3.09,3.81c1.59,2.95,2.27,6.54,1.98,9.98c0.1,3.22-0.6,6.54-2.22,9.53
							c-1.59,3-4.02,5.66-7.03,7.6c3.34-1.29,6.43-3.48,8.83-6.37c2.43-2.88,4.08-6.53,4.76-10.4c0.33-4.24-0.44-8.55-2.5-12.41
							c-1.04-1.91-2.42-3.67-4.17-5.11c-1.75-1.43-3.96-2.48-6.32-2.78c-4.73-0.58-9.28,1.57-12.2,4.94
							c-2.94,3.37-4.39,7.59-4.81,11.79c0,3.93,0.99,7.85,3.05,11.07c2.05,3.22,5.12,5.65,8.54,6.73c-3.13-1.75-5.42-4.61-6.61-7.72
							C304.93,541.41,304.82,538.01,305.47,534.87 M305.66,534.88c-0.7,3.37-0.52,7.05,0.96,10.34c1.45,3.28,4.2,6.2,7.81,7.64
							c-3.83-0.68-7.44-3.08-9.85-6.45c-2.45-3.39-3.62-7.68-3.62-11.97c0.42-4.23,1.88-8.49,4.85-11.89c2.96-3.4,7.56-5.58,12.36-5
							c2.4,0.3,4.63,1.37,6.41,2.82c1.78,1.46,3.17,3.24,4.21,5.17c2.08,3.89,2.85,8.23,2.52,12.51c-0.72,4.24-2.65,8.19-5.41,11.21
							c-2.75,3.03-6.25,5.22-9.98,6.29c3.44-1.8,6.23-4.54,8.09-7.7c1.87-3.16,2.72-6.72,2.6-10.18c0.28-3.4-0.39-6.97-1.96-9.88
							c-0.79-1.46-1.84-2.76-3.04-3.76c-1.22-0.98-2.6-1.61-4.04-1.8c-2.92-0.38-6.17,1.03-8.23,3.44
							C307.21,528.09,305.98,531.48,305.66,534.88z"/>
					</g>
				</g>
			</g>
		</g>
		<g>
			<g>
				<g>
					<g>
						<path class="st0" d="M281.14,521.31c0.92-0.56,1.74-1.39,2.4-2.33c0.62-0.94,1.13-2.15,1.45-3.39
							c0.66-2.52,0.7-5.32,0.66-8.09c0.77,2.66,1.53,5.37,1.59,8.34c0.03,1.49-0.12,2.99-0.61,4.56c-0.52,1.54-1.31,3.01-2.44,4.27
							c-1.29,1.18-2.9,2.12-4.76,2.55c-0.93,0.21-1.92,0.25-2.9,0.15c-0.98-0.14-1.92-0.42-2.78-0.86c-1.72-0.87-3.01-2.2-3.98-3.59
							c-0.97-1.41-1.65-2.91-2.14-4.49c-0.92-3.16-1.05-6.56,0.07-9.85c0.55-1.64,1.52-3.23,2.86-4.49l0.51-0.47l0.56-0.41
							c0.36-0.28,0.77-0.51,1.18-0.74c0.83-0.43,1.71-0.72,2.61-0.91c3.5-0.34,6.95,1.15,8.82,3.8c1.85,2.6,2.08,5.92,0.97,8.46
							c0.38-2.75-0.78-5.47-2.65-6.94c-1.83-1.48-4.37-1.66-6.24-0.88h0c-2.02,0.38-3.61,1.93-4.34,4.06c-0.74,2.14-0.7,4.73,0,7.04
							c0.69,2.3,2.12,4.51,3.82,5.35c0.85,0.44,1.73,0.53,2.66,0.33C279.37,522.57,280.33,522.06,281.14,521.31z"/>
						<path class="st0" d="M275.42,501.65L275.42,501.65c-0.89,0.18-1.76,0.47-2.58,0.9c-0.41,0.22-0.81,0.45-1.17,0.73l-0.55,0.4
							l-0.5,0.46c-1.33,1.25-2.29,2.83-2.84,4.45c-1.1,3.27-0.98,6.65-0.06,9.79c0.49,1.58,1.16,3.07,2.13,4.47
							c0.96,1.39,2.25,2.7,3.95,3.56c0.85,0.43,1.78,0.71,2.75,0.85c0.97,0.1,1.95,0.06,2.87-0.14c1.85-0.42,3.44-1.36,4.72-2.53
							c1.08-1.21,1.85-2.6,2.36-4.06c0.52-1.5,0.64-2.93,0.67-4.36c-0.01-2.85-0.68-5.47-1.41-8.02c0.02,2.66-0.07,5.34-0.75,7.74
							c-0.35,1.18-0.82,2.35-1.46,3.23c-0.64,0.91-1.45,1.7-2.34,2.25c-0.82,0.76-1.79,1.29-2.74,1.5c-0.95,0.2-1.85,0.1-2.72-0.34
							c-1.74-0.86-3.17-3.09-3.87-5.4c-0.7-2.33-0.74-4.94,0.01-7.1c0.74-2.16,2.35-3.73,4.41-4.12c1.82-0.75,4.27-0.62,6.1,0.73
							c1.85,1.35,3.11,3.87,2.96,6.53c0.85-2.52,0.45-5.64-1.42-8.06C282.03,502.66,278.75,501.35,275.42,501.65 M275.38,501.47
							c3.66-0.36,7.3,1.28,9.13,4.14c1.8,2.79,1.87,6.29,0.47,8.83c0.66-2.83-0.43-5.72-2.28-7.32c-1.82-1.61-4.46-1.84-6.38-1.03
							c-1.99,0.38-3.55,1.89-4.27,4c-0.73,2.11-0.69,4.69,0,6.98c0.68,2.29,2.11,4.48,3.77,5.29c0.83,0.43,1.69,0.52,2.6,0.33
							c0.91-0.21,1.85-0.72,2.65-1.46c0.95-0.58,1.8-1.43,2.45-2.42c0.64-0.99,1.13-2.25,1.44-3.55c0.63-2.63,0.62-5.55,0.58-8.43
							c0.81,2.76,1.64,5.56,1.77,8.64c0.05,1.55-0.06,3.12-0.55,4.76c-0.51,1.62-1.34,3.16-2.52,4.49c-1.3,1.19-2.92,2.14-4.81,2.57
							c-0.94,0.21-1.94,0.25-2.93,0.15c-0.99-0.14-1.94-0.43-2.81-0.87c-1.74-0.88-3.04-2.22-4.02-3.62
							c-0.98-1.42-1.66-2.92-2.15-4.52c-0.93-3.17-1.05-6.59,0.07-9.91c0.56-1.65,1.53-3.25,2.88-4.52l0.51-0.47l0.56-0.41
							c0.37-0.28,0.78-0.52,1.19-0.75C273.59,501.95,274.48,501.66,275.38,501.47z"/>
					</g>
				</g>
			</g>
		</g>
		<g>
			<g>
				<g>
					<g>
						<path class="st0" d="M325.01,519.57c0.7,0.32,1.74,0.28,2.76-0.22c1.02-0.49,1.98-1.35,2.64-2.42
							c1.37-2.23,1.66-5.26,1.76-8.16c0.62,2.84,1.23,5.85,0.33,9.05c-0.49,1.61-1.41,3.11-2.76,4.3c-1.33,1.18-3.27,2.09-5.47,1.92
							c-1.09-0.19-2.13-0.61-3.02-1.24c-0.89-0.62-1.58-1.41-2.13-2.21c-1.09-1.63-1.65-3.36-1.97-5.07
							c-0.32-1.75-0.36-3.39-0.25-5.11c0.12-1.71,0.51-3.52,1.35-5.22c0.87-1.74,2.23-3.23,3.98-4.22c1.72-1,4.08-1.42,6.15-0.74
							c4.15,1.38,6.23,5.29,6.68,8.79c0.05,1.71-0.18,3.3-0.48,4.8c-0.15,0.75-0.32,1.48-0.49,2.19c-0.17,0.73-0.35,1.49-0.61,2.25
							c-0.5,1.49-1.38,3.18-3.1,3.85c-0.85,0.29-1.71,0.21-2.45-0.09c-0.73-0.28-1.39-0.87-1.55-1.6c0.35,0.66,1.04,0.98,1.7,1.05
							c0.66,0.09,1.35-0.06,1.82-0.39c0.44-0.3,0.81-0.87,1.01-1.43c0.22-0.57,0.31-1.21,0.36-1.87c0.07-1.3-0.01-2.82-0.08-4.22
							c-0.08-1.4-0.26-2.74-0.62-3.91v0c-0.18-1.27-0.54-2.32-1.19-3.24c-0.63-0.92-1.49-1.6-2.33-1.85
							c-0.83-0.26-1.71-0.14-2.6,0.36c-0.89,0.5-1.67,1.33-2.15,2.3c-0.51,1.02-0.79,2.22-0.89,3.52c-0.09,1.3-0.04,2.71,0.19,3.94
							c0.23,1.26,0.66,2.46,1.27,3.35C323.48,518.95,324.2,519.43,325.01,519.57z"/>
						<path class="st0" d="M334.97,509.04c-0.44-3.48-2.51-7.35-6.62-8.71c-2.05-0.67-4.38-0.26-6.08,0.73
							c-1.74,0.98-3.08,2.46-3.94,4.18c-0.84,1.68-1.22,3.48-1.35,5.18c-0.11,1.71-0.07,3.34,0.25,5.08
							c0.32,1.7,0.88,3.42,1.96,5.03c0.54,0.8,1.22,1.57,2.1,2.19c0.88,0.62,1.9,1.04,2.98,1.23c2.07,0.16,3.94-0.66,5.23-1.76
							c1.32-1.12,2.23-2.51,2.77-4.02c1-3.05,0.51-5.97-0.06-8.7c-0.11,2.78-0.51,5.68-1.9,7.76c-0.69,1-1.64,1.8-2.63,2.26
							c-1,0.46-2,0.49-2.71,0.18c-0.84-0.14-1.58-0.64-2.2-1.56c-0.62-0.9-1.05-2.12-1.28-3.38c-0.24-1.24-0.28-2.66-0.19-3.96
							c0.09-1.31,0.38-2.53,0.9-3.56c0.49-0.99,1.28-1.83,2.18-2.34c0.91-0.5,1.82-0.64,2.68-0.37c0.86,0.26,1.73,0.95,2.38,1.88
							c0.66,0.94,1.02,2.01,1.2,3.28c0.35,1.13,0.52,2.42,0.61,3.76c0.07,1.33,0.14,2.8,0.1,4.08c-0.05,1.28-0.28,2.53-1.11,3.41
							c-0.74,0.8-2.42,1-3.51,0.13c0.41,0.58,1.11,0.95,1.85,1.11c0.74,0.15,1.58,0.09,2.33-0.37c1.42-0.87,2.16-2.46,2.59-3.89
							c0.43-1.48,0.71-2.8,1.01-4.25C334.81,512.2,335.02,510.67,334.97,509.04 M335.16,509.01c0.05,1.79-0.2,3.45-0.51,5
							c-0.16,0.78-0.34,1.53-0.51,2.28c-0.18,0.76-0.38,1.56-0.68,2.36c-0.29,0.8-0.7,1.61-1.3,2.3c-0.3,0.34-0.64,0.65-1.02,0.9
							c-0.42,0.27-0.88,0.43-1.34,0.5c-0.91,0.11-1.78-0.09-2.49-0.55c-0.72-0.43-1.18-1.31-1-2.07c0.03,0.79,0.61,1.35,1.26,1.54
							c0.65,0.22,1.37,0.17,1.94-0.07c0.28-0.13,0.51-0.3,0.69-0.49c0.2-0.23,0.37-0.49,0.5-0.77c0.26-0.56,0.4-1.19,0.46-1.86
							c0.07-0.67,0.06-1.38,0.04-2.11c-0.02-0.75-0.04-1.51-0.08-2.24c-0.08-1.46-0.26-2.85-0.63-4.06
							c-0.18-1.26-0.53-2.29-1.17-3.2c-0.62-0.9-1.47-1.57-2.28-1.81c-0.8-0.25-1.65-0.13-2.53,0.35c-0.87,0.49-1.64,1.3-2.11,2.26
							c-0.5,1-0.78,2.2-0.88,3.49c-0.09,1.29-0.04,2.7,0.19,3.92c0.23,1.25,0.65,2.44,1.25,3.31c0.6,0.9,1.29,1.35,2.07,1.49
							c0.7,0.33,1.77,0.27,2.81-0.27c1.04-0.53,2.01-1.45,2.64-2.58c1.34-2.38,1.53-5.54,1.62-8.57c0.65,2.95,1.4,6.04,0.58,9.4
							c-0.44,1.7-1.36,3.3-2.74,4.58c-1.35,1.26-3.38,2.27-5.7,2.08c-1.1-0.19-2.16-0.62-3.06-1.26c-0.9-0.63-1.6-1.42-2.15-2.23
							c-1.1-1.64-1.66-3.38-1.99-5.1c-0.32-1.76-0.37-3.4-0.26-5.13c0.13-1.72,0.51-3.54,1.36-5.25c0.88-1.75,2.25-3.26,4.02-4.26
							c1.74-1.01,4.12-1.43,6.22-0.75C332.61,501.55,334.71,505.49,335.16,509.01z"/>
					</g>
				</g>
			</g>
		</g>
		<g>
			<g>
				<g>
					<g>
						<path class="st0" d="M238.55,349.6c7.91-5.46,15.45-11.73,22.44-18.75c-4.11,9.02-9.13,17.81-15,26.18
							c-3.7,3.71-7.57,7.25-11.59,10.6c-2.02,1.67-4.07,3.3-6.15,4.89l-0.91,0.68c-0.03,0.03-0.11,0.05-0.09,0.09l1.41,1.47
							c1.73,1.77,3.49,3.5,5.28,5.21c3.58,3.41,7.3,6.68,11.13,9.81c6.25,7.37,13.15,14.37,20.62,20.89
							c-9.27-3.51-18.41-7.76-27.27-12.74l0,0c-4.03-3.29-7.95-6.74-11.72-10.33c-1.88-1.8-3.74-3.63-5.56-5.49
							c-0.47-0.47-0.88-0.92-1.38-1.43c-0.86-0.91-1.74-1.81-2.56-2.72l-5.03-5.48l-0.63-0.69c-0.1-0.06,0.03-0.1,0.08-0.15
							l0.19-0.14l0.37-0.27l1.49-1.09l2.99-2.18l3.04-2.18l2.2-1.64c1.96-1.49,3.88-3.02,5.77-4.58
							C231.45,356.4,235.08,353.08,238.55,349.6z"/>
						<path class="st0" d="M244.92,389.93L244.92,389.93c-3.83-3.13-7.55-6.41-11.14-9.82c-1.79-1.71-3.55-3.45-5.28-5.22
							l-1.36-1.41l-0.2-0.22c-0.04-0.07,0.13-0.12,0.18-0.18l1-0.74c2.08-1.58,4.13-3.21,6.15-4.88c4.02-3.35,7.89-6.88,11.58-10.59
							c5.62-8.03,10.46-16.43,14.47-25.06c-6.77,6.69-14.02,12.69-21.62,17.94c-3.48,3.49-7.11,6.81-10.89,9.96
							c-1.89,1.57-3.82,3.1-5.78,4.59l-2.18,1.62l-2.98,2.14l-2.93,2.13l-1.47,1.07l-0.37,0.27l-0.18,0.13
							c-0.05,0.05-0.18,0.08-0.07,0.14l0.62,0.67l4.93,5.37c0.81,0.89,1.66,1.78,2.51,2.67c0.49,0.51,0.9,0.96,1.37,1.43
							c1.82,1.86,3.67,3.69,5.56,5.48c3.77,3.58,7.68,7.03,11.71,10.32c8.5,4.77,17.25,8.87,26.13,12.29
							C257.53,403.74,250.93,397.01,244.92,389.93 M245.19,389.6c6.5,7.66,13.68,14.92,21.5,21.66c-9.67-3.6-19.18-8-28.41-13.19
							c-4.04-3.3-7.95-6.75-11.73-10.34c-1.89-1.8-3.74-3.63-5.57-5.49c-0.47-0.47-0.88-0.92-1.38-1.43
							c-0.88-0.92-1.77-1.85-2.61-2.78l-5.12-5.59l-0.64-0.7c-0.11-0.06,0.03-0.1,0.08-0.15l0.19-0.14l0.38-0.28l1.52-1.11
							l3.05-2.22l3.1-2.23l2.23-1.66c1.95-1.48,3.87-3.01,5.76-4.58c3.77-3.14,7.4-6.46,10.86-9.93
							c8.22-5.67,16.04-12.21,23.27-19.57c-4.21,9.42-9.41,18.58-15.52,27.3c-3.7,3.71-7.58,7.26-11.61,10.62
							c-2.02,1.67-4.07,3.31-6.16,4.89l-0.83,0.62l-0.01-0.01c0.38,0.4,0.83,0.89,1.26,1.31c1.73,1.77,3.49,3.5,5.27,5.2
							C237.65,383.21,241.36,386.47,245.19,389.6z"/>
					</g>
				</g>
			</g>
		</g>
		<g>
			<g>
				<g>
					<g>
						<path class="st0" d="M355.71,357.02c-5.87-8.37-10.88-17.16-15-26.18c7,7.03,14.53,13.3,22.45,18.76
							c3.47,3.48,7.1,6.8,10.88,9.95c1.89,1.57,3.82,3.1,5.77,4.58l2.2,1.64l3.04,2.18l2.99,2.18l1.49,1.09l0.37,0.27l0.19,0.14
							c0.05,0.05,0.18,0.09,0.07,0.15l-0.63,0.69l-5.03,5.48c-0.82,0.91-1.7,1.82-2.56,2.72c-0.5,0.51-0.9,0.96-1.38,1.43
							c-1.82,1.86-3.68,3.69-5.56,5.49c-3.78,3.59-7.69,7.03-11.72,10.33c-8.86,4.98-18,9.23-27.27,12.74
							c7.47-6.52,14.37-13.51,20.62-20.89l0,0c3.83-3.13,7.54-6.4,11.13-9.81c1.79-1.71,3.55-3.44,5.28-5.21l1.4-1.46
							c0.02-0.03-0.06-0.06-0.09-0.09l-0.91-0.68c-2.09-1.59-4.14-3.22-6.15-4.89C363.28,364.27,359.41,360.73,355.71,357.02z"/>
						<path class="st0" d="M363.17,397.74L363.17,397.74c4.03-3.29,7.94-6.73,11.71-10.32c1.88-1.8,3.74-3.62,5.56-5.48
							c0.47-0.47,0.88-0.92,1.37-1.43c0.85-0.89,1.7-1.77,2.51-2.67l4.93-5.37l0.62-0.67c0.1-0.06-0.03-0.1-0.07-0.14l-0.18-0.13
							l-0.37-0.27l-1.47-1.07l-2.93-2.13l-2.98-2.14l-2.18-1.62c-1.96-1.49-3.88-3.02-5.78-4.59c-3.78-3.15-7.42-6.48-10.89-9.96
							c-7.6-5.25-14.85-11.24-21.62-17.94c4.01,8.63,8.85,17.03,14.47,25.06c3.69,3.71,7.56,7.24,11.58,10.59
							c2.01,1.67,4.06,3.3,6.15,4.88l1,0.74c0.05,0.06,0.22,0.11,0.18,0.18l-0.2,0.22l-1.36,1.41c-1.73,1.77-3.49,3.51-5.28,5.22
							c-3.59,3.41-7.31,6.69-11.14,9.82c-6.01,7.08-12.61,13.81-19.74,20.11C345.92,406.61,354.67,402.51,363.17,397.74
							 M363.44,398.07c-9.23,5.18-18.74,9.59-28.41,13.19c7.81-6.74,15-14,21.5-21.66c3.83-3.12,7.54-6.39,11.12-9.8
							c1.79-1.71,3.55-3.44,5.27-5.2c0.43-0.42,0.88-0.91,1.26-1.31l-0.01,0.01l-0.83-0.62c-2.09-1.59-4.14-3.22-6.16-4.89
							c-4.03-3.36-7.91-6.9-11.61-10.62c-6.12-8.72-11.31-17.88-15.52-27.3c7.23,7.36,15.05,13.91,23.27,19.57
							c3.47,3.48,7.09,6.79,10.86,9.93c1.89,1.57,3.81,3.09,5.76,4.58l2.23,1.66l3.1,2.23l3.05,2.22l1.52,1.11l0.38,0.28l0.19,0.14
							c0.05,0.05,0.18,0.09,0.08,0.15l-0.64,0.7l-5.12,5.59c-0.84,0.93-1.73,1.85-2.61,2.78c-0.5,0.52-0.91,0.96-1.38,1.43
							c-1.82,1.86-3.68,3.69-5.57,5.49C371.39,391.32,367.48,394.77,363.44,398.07z"/>
					</g>
				</g>
			</g>
		</g>
		<g>
			<g>
				<g>
					<g>
						<polygon class="st0" points="296.85,392.51 281.17,409.57 287.7,387.33 310.81,346.47 324.98,331.06 325.84,331.59 
							324.2,333.11 325,331.02 325.86,331.56 319.96,351.64 319.96,351.64 						"/>
						<path class="st0" d="M310.99,346.57L310.99,346.57l-23.11,40.87l-6.27,21.34l15.05-16.37l23.11-40.87l5.9-20.09l-0.5-0.31
							l-0.46,1.22l0.95-0.89l-0.5-0.31L310.99,346.57 M310.62,346.36l14.17-15.41l1.22,0.76l-2.32,2.16l1.13-2.96l1.22,0.76
							l-5.9,20.09l-23.11,40.87l-16.31,17.74l6.79-23.13L310.62,346.36z"/>
					</g>
				</g>
			</g>
		</g>
		<g>
			<g>
				<g>
					<g>
						<path class="st0" d="M251.22,581.46c3.06-3.31,6.62-5.88,10.31-7.5c-1.55,3.72-2.17,7.51-2.09,11.07
							c-2.68,6.18-3.21,13.42-1.44,19.92c-0.59,3.51-0.52,7.35,0.48,11.25c-3.42-2.14-6.57-5.2-9.12-8.91l0,0
							C247.06,598.74,247.72,589.58,251.22,581.46z"/>
						<path class="st0" d="M257.82,604.98c-1.78-6.54-1.25-13.82,1.45-20.04c-0.06-3.43,0.52-7.07,1.95-10.66
							c-3.52,1.61-6.9,4.09-9.84,7.24c-3.48,8.08-4.14,17.2-1.86,25.7c2.45,3.54,5.45,6.48,8.7,8.58
							C257.32,612.05,257.27,608.37,257.82,604.98 M258.17,604.89c-0.62,3.63-0.54,7.62,0.56,11.67c-3.59-2.17-6.89-5.35-9.55-9.23
							c-2.31-8.58-1.64-17.78,1.88-25.94c3.19-3.46,6.92-6.13,10.78-7.76c-1.67,3.85-2.33,7.79-2.23,11.47
							C256.94,591.23,256.42,598.43,258.17,604.89z"/>
					</g>
				</g>
			</g>
		</g>
		<g>
			<g>
				<g>
					<g>
						<path class="st0" d="M343.74,581.96c0.08-3.56-0.54-7.35-2.09-11.06c3.69,1.62,7.25,4.2,10.31,7.5
							c3.5,8.12,4.16,17.28,1.87,25.82c-2.55,3.71-5.7,6.77-9.12,8.91c1-3.9,1.07-7.74,0.48-11.25v0
							C346.94,595.37,346.42,588.13,343.74,581.96z"/>
						<path class="st0" d="M353.65,604.17L353.65,604.17c2.28-8.5,1.62-17.62-1.86-25.7c-2.94-3.15-6.32-5.63-9.84-7.24
							c1.43,3.59,2.01,7.23,1.95,10.66c2.7,6.22,3.23,13.5,1.45,20.04c0.55,3.38,0.5,7.07-0.4,10.83
							C348.2,610.65,351.19,607.71,353.65,604.17 M354,604.26c-2.66,3.88-5.96,7.06-9.55,9.23c1.1-4.05,1.18-8.04,0.56-11.67
							c1.76-6.46,1.23-13.66-1.43-19.8c0.1-3.68-0.56-7.62-2.23-11.47c3.86,1.64,7.59,4.3,10.78,7.76
							C355.64,586.48,356.3,595.68,354,604.26z"/>
					</g>
				</g>
			</g>
		</g>
		<g>
			<g>
				<g>
					<g>
						<path d="M481.97,357.83l-83.51-11.13l83.97-6.78l21.78,0.57l10.89,0.28l1.25,0.03c0.04,0.01,0.07,0,0.1-0.03l2.98-2.04
							c5.64-4.03,11.08-8.34,16.29-12.92c5.19-4.61,10.12-9.52,14.82-14.63c18.74-20.55,33.22-45.02,42.42-71.3
							c11.66-24.27,18.83-51.36,19.87-79.44c4.93,27.66,3.83,56.95-2.96,85.36l0,0c-10,28.54-25.68,55.07-46.09,77.46
							c-5.13,5.57-10.51,10.92-16.18,15.96c-5.7,5.01-11.65,9.73-17.84,14.14l-6.02,4.1l-1.1,0.75l-0.55,0.38
							c-0.19,0.1-0.35,0.32-0.59,0.25l-2.67-0.07l-4.2-0.11l-10.89-0.28L481.97,357.83z"/>
						<path d="M593.3,240.02L593.3,240.02c-9.22,26.33-23.72,50.85-42.49,71.43c-4.71,5.12-9.65,10.03-14.85,14.65
							c-5.23,4.59-10.67,8.91-16.32,12.94l-3.04,2.08c-0.05,0.05-0.12,0.06-0.19,0.05l-1.31-0.03l-10.89-0.28l-21.78-0.57
							l-80.59,6.5l80.15,10.68l21.78,0.57l10.89,0.28l4.14,0.11l2.62,0.07c0.24,0.06,0.39-0.15,0.58-0.25l0.54-0.37l1.08-0.74
							l5.95-4.06c6.17-4.4,12.11-9.12,17.8-14.11c5.66-5.03,11.03-10.37,16.15-15.93c20.38-22.36,36.04-48.84,46.02-77.34
							c6.5-27.23,7.78-55.25,3.53-81.88C611.57,190.75,604.5,216.68,593.3,240.02 M592.62,239.78
							c12.11-25.2,19.39-53.46,19.97-82.69c5.62,28.69,4.7,59.25-2.39,88.84c-10.01,28.58-25.72,55.16-46.17,77.59
							c-5.14,5.58-10.52,10.94-16.2,15.99c-5.71,5.01-11.67,9.75-17.87,14.16l-6.08,4.14l-1.12,0.77l-0.56,0.38
							c-0.19,0.11-0.35,0.32-0.6,0.26l-2.72-0.07l-4.26-0.11l-10.89-0.28l-21.78-0.57l-86.87-11.58l87.35-7.05l21.78,0.57
							l10.89,0.28l1.19,0.03l2.92-1.99c5.63-4.02,11.05-8.32,16.26-12.89c5.18-4.6,10.1-9.5,14.8-14.6
							C568.98,290.45,583.43,266.01,592.62,239.78z"/>
					</g>
				</g>
			</g>
		</g>
		<g>
			<g>
				<g>
					<g>
						<path d="M133.81,332.26l83.97,6.78l-83.51,11.13l-21.78,0.57l-10.89,0.28l-4.2,0.11l-2.67,0.07c-0.24,0.07-0.4-0.15-0.59-0.25
							l-0.55-0.38l-1.1-0.75l-6.02-4.1c-6.19-4.41-12.14-9.13-17.84-14.14c-5.67-5.04-11.05-10.39-16.18-15.96
							c-20.41-22.39-36.1-48.92-46.09-77.46c-6.79-28.41-7.89-57.7-2.96-85.36c1.04,28.08,8.21,55.18,19.87,79.44l0,0
							c9.2,26.28,23.68,50.76,42.42,71.3c4.71,5.11,9.64,10.02,14.82,14.63c5.22,4.58,10.65,8.89,16.29,12.92l2.98,2.03
							c0.03,0.03,0.06,0.03,0.1,0.03l1.25-0.03l10.89-0.28L133.81,332.26z"/>
						<path d="M6.72,238.04L6.72,238.04c9.98,28.49,25.64,54.98,46.02,77.34c5.12,5.56,10.49,10.9,16.15,15.93
							c5.69,5,11.63,9.71,17.8,14.11l5.95,4.06l1.08,0.74l0.54,0.37c0.19,0.1,0.34,0.31,0.58,0.25l2.62-0.07l4.14-0.11l10.89-0.28
							l21.78-0.57l80.15-10.68l-80.59-6.5l-21.78,0.57l-10.89,0.28l-1.31,0.03c-0.07,0.01-0.14,0-0.19-0.05l-3.05-2.08
							c-5.65-4.03-11.1-8.35-16.32-12.94c-5.2-4.62-10.14-9.53-14.85-14.65c-18.77-20.58-33.27-45.1-42.49-71.43
							c-11.2-23.33-18.27-49.27-19.76-76.2C-1.06,182.79,0.22,210.81,6.72,238.04 M6.04,238.27c-7.08-29.6-8-60.16-2.39-88.84
							c0.59,29.23,7.86,57.49,19.97,82.69c9.18,26.23,23.64,50.67,42.34,71.18c4.7,5.1,9.62,10,14.8,14.6
							c5.21,4.57,10.63,8.87,16.26,12.89l2.92,1.99l1.19-0.03l10.89-0.28l21.78-0.57l87.35,7.05l-86.87,11.58l-21.78,0.57
							l-10.89,0.28l-4.26,0.11l-2.72,0.07c-0.24,0.07-0.41-0.15-0.6-0.26l-0.56-0.38l-1.12-0.77l-6.08-4.14
							c-6.2-4.42-12.16-9.15-17.87-14.16c-5.68-5.05-11.07-10.41-16.2-15.99C31.76,293.43,16.05,266.86,6.04,238.27z"/>
					</g>
				</g>
			</g>
		</g>
		<g>
			<g>
				<g>
					<g>
						<path d="M148.32,419.11l83.3,12.56L147.54,437l-21.77-0.94l-10.88-0.47l-1.25-0.05c-0.04-0.01-0.07,0-0.1,0.02l-3.02,1.98
							c-5.71,3.93-11.22,8.15-16.51,12.63c-5.27,4.52-10.28,9.34-15.07,14.37C59.87,484.78,44.97,509,35.32,535.12
							c-12.07,24.06-19.71,51.03-21.23,79.09c-4.46-27.74-2.86-57.01,4.42-85.3l0,0c10.48-28.36,26.62-54.62,47.41-76.66
							c5.22-5.48,10.69-10.74,16.45-15.68c5.78-4.91,11.82-9.53,18.08-13.83l6.09-4l1.12-0.73l0.56-0.37
							c0.19-0.1,0.35-0.31,0.59-0.24l2.67,0.12l4.2,0.18l10.88,0.47L148.32,419.11z"/>
						<path d="M34.98,535L34.98,535c9.67-26.16,24.59-50.43,43.71-70.69c4.8-5.04,9.82-9.87,15.1-14.4
							c5.3-4.5,10.82-8.72,16.54-12.66l3.08-2.02c0.05-0.05,0.12-0.06,0.19-0.05l1.31,0.06l10.88,0.47l21.77,0.94l80.69-5.12
							l-79.95-12.06l-21.77-0.94l-10.88-0.47l-4.14-0.18l-2.62-0.11c-0.23-0.07-0.39,0.14-0.58,0.24l-0.55,0.36l-1.09,0.72
							l-6.02,3.96c-6.25,4.3-12.27,8.91-18.04,13.81c-5.75,4.93-11.21,10.18-16.42,15.66c-20.76,22-36.87,48.22-47.34,76.54
							c-6.97,27.11-8.72,55.11-4.94,81.8C15.87,583.95,23.38,558.14,34.98,535 M35.66,535.25c-12.54,24.98-20.3,53.12-21.39,82.34
							c-5.12-28.78-3.68-59.32,3.91-88.79c10.5-28.41,26.66-54.71,47.49-76.78c5.23-5.49,10.71-10.76,16.48-15.71
							c5.79-4.92,11.84-9.54,18.11-13.86l6.15-4.04l1.14-0.75l0.57-0.37c0.2-0.1,0.36-0.32,0.6-0.25l2.72,0.12l4.25,0.18l10.88,0.47
							l21.77,0.94l86.66,13.07l-87.46,5.55l-21.77-0.94l-10.88-0.47l-1.19-0.05l-2.96,1.94c-5.7,3.92-11.2,8.13-16.48,12.61
							C89,454.97,84,459.78,79.21,464.8C60.16,484.99,45.29,509.17,35.66,535.25z"/>
					</g>
				</g>
			</g>
		</g>
		<g>
			<g>
				<g>
					<g>
						<path d="M461.05,435.07l-83.97-6.84l83.52-11.07l21.78-0.55l10.89-0.27l4.2-0.11l2.67-0.07c0.24-0.07,0.4,0.15,0.59,0.25
							l0.55,0.38l1.1,0.75l6.01,4.11c6.18,4.42,12.13,9.14,17.82,14.15c5.67,5.04,11.04,10.4,16.16,15.97
							c20.4,22.41,36.06,48.95,46.03,77.5c6.77,28.42,7.84,57.7,2.89,85.36c-1.02-28.08-8.17-55.18-19.8-79.46l0,0
							c-9.18-26.29-23.64-50.78-42.36-71.34c-4.7-5.12-9.63-10.02-14.81-14.64c-5.21-4.58-10.65-8.9-16.28-12.93l-2.98-2.04
							c-0.03-0.03-0.06-0.03-0.1-0.03l-1.25,0.03l-10.89,0.27L461.05,435.07z"/>
						<path d="M588.07,529.4L588.07,529.4c-9.96-28.5-25.6-55-45.96-77.37c-5.11-5.57-10.48-10.91-16.14-15.95
							c-5.69-5-11.62-9.72-17.79-14.13l-5.95-4.06l-1.08-0.74l-0.54-0.37c-0.19-0.1-0.34-0.31-0.58-0.25l-2.62,0.07l-4.14,0.1
							l-10.89,0.27l-21.78,0.55l-80.15,10.62l80.59,6.56l21.78-0.55l10.89-0.27l1.31-0.03c0.07-0.01,0.14,0,0.19,0.05l3.04,2.08
							c5.65,4.04,11.09,8.36,16.31,12.95c5.19,4.62,10.13,9.54,14.84,14.67c18.75,20.6,33.24,45.13,42.43,71.46
							c11.18,23.34,18.23,49.28,19.7,76.21C595.8,584.65,594.55,556.63,588.07,529.4 M588.75,529.16
							c7.06,29.6,7.96,60.16,2.32,88.85c-0.56-29.23-7.82-57.5-19.91-82.71c-9.16-26.24-23.6-50.69-42.29-71.21
							c-4.69-5.11-9.61-10.01-14.78-14.61c-5.2-4.57-10.63-8.88-16.25-12.9l-2.92-2l-1.19,0.03l-10.89,0.27l-21.78,0.55l-87.35-7.12
							l86.88-11.51l21.78-0.55l10.89-0.27l4.26-0.11l2.72-0.07c0.24-0.07,0.41,0.15,0.6,0.26l0.56,0.38l1.12,0.77l6.07,4.15
							c6.19,4.42,12.15,9.16,17.86,14.18c5.68,5.05,11.06,10.41,16.19,16C563.07,473.98,578.76,500.57,588.75,529.16z"/>
					</g>
				</g>
			</g>
		</g>
		<g>
			<g>
				<g>
					<g>
						<path d="M162.01,226.09c24.05,19.43,48.89,38.06,74.51,55.76c-28.53-12.48-56.67-26.12-84.38-40.81
							c-8.18-5.42-16.31-10.92-24.38-16.5c-4.02-2.82-8.05-5.61-12.04-8.47l-5.99-4.28l-9.68-7l0.11-12.91l-0.06-8.21l-0.19-8.21
							l-0.32-8.21c-0.51-10.94-1.36-21.87-2.55-32.76c-1.19-10.89-2.73-21.74-4.6-32.53l-1.47-8.08l-1.6-8.06l-1.72-8.03
							l-2.81-12.16l1.56-2.05l3.69-4.4l0.21-0.25l0.13-0.14l0.25-0.28l0.51-0.55l1.03-1.09c1.39-1.44,2.76-2.9,4.16-4.32l4.24-4.23
							l4.31-4.14c5.8-5.45,11.8-10.65,17.96-15.59c12.33-9.88,25.35-18.72,38.88-26.42C149.98,12.29,139.07,23.3,129.15,35
							c-4.96,5.85-9.67,11.87-14.12,18.04l-3.28,4.66l-3.18,4.72c-1.05,1.58-2.06,3.18-3.08,4.77l-0.76,1.2l-0.37,0.6l-0.19,0.3
							l-0.09,0.15c-0.03,0.06-0.01,0.03-0.01,0.04c0.04,0.1,0.11,0.16,0.18,0.23l-0.03,0.04l0.95,4.12l1.78,8.31l1.65,8.33
							l1.52,8.36c1.94,11.16,3.53,22.38,4.76,33.65c1.23,11.26,2.11,22.56,2.64,33.88l0.33,8.49l0.19,8.49l0.06,8.5l-0.03,3.8
							l8.06,5.78c3.93,2.82,7.91,5.58,11.87,8.35C145.93,215.33,153.95,220.75,162.01,226.09z"/>
						<path d="M86.78,63.68L86.78,63.68l-1.53,2.01l2.77,12l1.72,8.04l1.6,8.06l1.47,8.09c1.88,10.8,3.41,21.66,4.6,32.55
							s2.05,21.83,2.55,32.78l0.32,8.21l0.19,8.22l0.06,8.22l-0.11,12.73l9.53,6.9l5.98,4.28c3.99,2.86,8.02,5.65,12.03,8.47
							c8.07,5.59,16.19,11.08,24.37,16.5c26.59,14.09,53.57,27.22,80.91,39.28c-24.54-17.06-48.36-34.98-71.45-53.63
							c-8.07-5.34-16.08-10.76-24.04-16.27c-3.96-2.78-7.94-5.53-11.87-8.35l-8.21-5.9l0.04-3.99l-0.06-8.49l-0.19-8.49l-0.33-8.48
							c-0.52-11.31-1.4-22.6-2.64-33.85c-1.23-11.25-2.82-22.47-4.76-33.62l-1.52-8.35l-1.65-8.33l-1.78-8.3l-0.99-4.28l0.06-0.08
							c-0.04-0.09-0.09-0.18-0.11-0.3l0-0.02l0-0.01l0.04-0.07l0.18-0.29l0.36-0.58c0.23-0.39,0.48-0.77,0.73-1.15l2.96-4.59
							l3.05-4.54l3.15-4.48c4.26-5.94,8.75-11.75,13.48-17.39c9.45-11.29,19.81-21.98,31.04-31.84
							c-12.91,7.54-25.29,16.16-37.06,25.71c-5.88,4.78-11.61,9.79-17.16,15.03l-4.13,3.97l-4.06,4.06l-3.98,4.15
							c-0.33,0.35-0.66,0.69-0.99,1.05l-0.49,0.53l-0.24,0.26l-0.06,0.07l-0.11,0.13l-0.21,0.26L86.78,63.68 M86.06,63.43l3.91-4.67
							c0.74-0.81,1.42-1.55,2.15-2.31c1.45-1.5,2.86-3.03,4.34-4.49c2.92-2.96,5.9-5.86,8.92-8.69
							c6.05-5.66,12.32-11.05,18.77-16.15C137.05,16.91,150.68,7.83,164.86,0c-12.42,10.4-23.88,21.74-34.26,33.84
							c-5.19,6.05-10.11,12.29-14.75,18.7c-2.32,3.21-4.57,6.45-6.75,9.73c-1.1,1.63-2.14,3.31-3.21,4.95
							c-0.53,0.81-1.07,1.68-1.55,2.48c0.07,0.07,0.16,0.1,0.26,0.14l0.92,3.96l1.78,8.31l1.65,8.34l1.52,8.37
							c1.94,11.17,3.53,22.4,4.76,33.67c1.23,11.27,2.12,22.58,2.64,33.9l0.33,8.5l0.19,8.5l0.06,8.5l-0.03,3.62l7.91,5.67
							c3.93,2.82,7.9,5.57,11.86,8.35c7.95,5.51,15.96,10.93,24.03,16.26c12.51,10.1,25.23,19.99,38.15,29.65
							c12.94,9.64,26.09,19.06,39.43,28.24c-14.85-6.47-29.61-13.22-44.26-20.27c-14.64-7.07-29.17-14.42-43.59-22.06
							c-8.19-5.42-16.32-10.92-24.39-16.51c-4.02-2.82-8.05-5.62-12.04-8.47l-5.99-4.28l-9.83-7.11l0.12-13.09l-0.06-8.21
							l-0.19-8.21l-0.32-8.2c-0.51-10.93-1.36-21.85-2.55-32.73s-2.73-21.72-4.6-32.51l-1.47-8.08l-1.59-8.05l-1.72-8.03
							l-2.85-12.32L86.06,63.43z"/>
					</g>
				</g>
			</g>
		</g>
		<g>
			<g>
				<g>
					<g>
						<path d="M468.65,247.17c-27.71,14.69-55.85,28.32-84.38,40.81c25.62-17.7,50.46-36.33,74.51-55.76
							c8.07-5.34,16.08-10.76,24.03-16.27c3.96-2.78,7.94-5.53,11.87-8.35l8.06-5.79l-0.03-3.8l0.06-8.5l0.19-8.49l0.33-8.49
							c0.52-11.32,1.4-22.62,2.64-33.88c1.23-11.26,2.82-22.48,4.76-33.64l1.52-8.36l1.65-8.33l1.78-8.31l0.95-4.12l-0.03-0.04
							c0.07-0.07,0.14-0.13,0.18-0.23c-0.01-0.02,0.02,0.01-0.01-0.04l-0.09-0.15l-0.19-0.3l-0.37-0.6c-0.24-0.41-0.5-0.8-0.76-1.2
							c-1.03-1.59-2.04-3.19-3.08-4.77l-3.18-4.72l-3.28-4.66c-4.45-6.17-9.16-12.2-14.12-18.04c-9.92-11.7-20.83-22.7-32.64-32.85
							c13.53,7.7,26.55,16.54,38.88,26.42c6.17,4.94,12.16,10.14,17.96,15.59l4.31,4.14l4.24,4.23c1.4,1.42,2.77,2.88,4.16,4.32
							l1.03,1.09l0.51,0.55l0.25,0.28l0.13,0.14l0.21,0.25l3.69,4.4l0,0l1.56,2.05l-2.81,12.16l-1.72,8.03l-1.6,8.06l-1.47,8.08
							c-1.87,10.79-3.41,21.64-4.6,32.53s-2.04,21.81-2.55,32.76l-0.32,8.21l-0.19,8.21l-0.06,8.21l0.11,12.91l-9.68,7.01
							l-5.99,4.28c-3.99,2.86-8.02,5.66-12.04,8.47C484.97,236.25,476.84,241.75,468.65,247.17z"/>
						<path d="M516.92,75.72L516.92,75.72l0.06,0.08l-0.99,4.28l-1.78,8.3l-1.65,8.33l-1.52,8.35c-1.94,11.15-3.52,22.37-4.76,33.62
							c-1.23,11.25-2.11,22.55-2.64,33.85l-0.33,8.48l-0.19,8.49l-0.06,8.49l0.04,3.99l-8.21,5.9c-3.93,2.82-7.91,5.58-11.87,8.35
							c-7.96,5.51-15.97,10.93-24.04,16.27c-23.09,18.65-46.91,36.57-71.45,53.63c27.35-12.06,54.33-25.19,80.92-39.28
							c8.18-5.41,16.31-10.91,24.37-16.5c4.02-2.82,8.05-5.61,12.03-8.47l5.98-4.28l9.53-6.9l-0.11-12.73l0.06-8.22l0.19-8.22
							l0.32-8.21c0.51-10.95,1.36-21.88,2.55-32.78c1.19-10.9,2.73-21.75,4.6-32.55l1.47-8.09l1.6-8.06l1.72-8.04l2.77-12
							l-1.53-2.01l-3.48-4.14l-0.21-0.26l-0.11-0.13l-0.06-0.07l-0.24-0.27l-0.49-0.53c-0.32-0.36-0.65-0.7-0.99-1.05l-3.98-4.15
							l-4.06-4.06l-4.13-3.97c-5.55-5.24-11.27-10.26-17.16-15.03c-11.77-9.55-24.16-18.17-37.06-25.71
							c11.23,9.86,21.58,20.55,31.04,31.84c4.73,5.65,9.22,11.45,13.48,17.4l3.15,4.48l3.05,4.54l2.96,4.59
							c0.25,0.38,0.49,0.76,0.73,1.15l0.36,0.58l0.18,0.29l0.04,0.07l0,0.01l0,0.02C517.01,75.54,516.96,75.62,516.92,75.72
							 M516.2,75.97c0.09-0.04,0.19-0.07,0.26-0.14c-0.48-0.79-1.02-1.66-1.55-2.48c-1.07-1.65-2.11-3.32-3.21-4.95
							c-2.18-3.28-4.43-6.52-6.75-9.73c-4.64-6.41-9.56-12.65-14.75-18.7c-10.38-12.1-21.84-23.45-34.26-33.84
							c14.18,7.83,27.81,16.91,40.71,27.12c6.45,5.1,12.71,10.49,18.77,16.15c3.02,2.83,6,5.73,8.92,8.69
							c1.47,1.47,2.89,2.99,4.34,4.49c0.74,0.76,1.41,1.49,2.15,2.31l3.91,4.67l1.59,2.09l-2.85,12.32L531.75,92l-1.59,8.05
							l-1.47,8.08c-1.87,10.78-3.41,21.63-4.6,32.51c-1.19,10.88-2.04,21.8-2.55,32.73l-0.32,8.2l-0.19,8.21l-0.06,8.21l0.12,13.09
							l-9.83,7.11l-5.99,4.28c-3.99,2.86-8.02,5.66-12.04,8.47c-8.07,5.59-16.2,11.09-24.39,16.51c-14.42,7.64-28.95,15-43.59,22.06
							c-14.65,7.05-29.41,13.8-44.26,20.27c13.34-9.18,26.49-18.6,39.43-28.24c12.93-9.66,25.65-19.55,38.15-29.65
							c8.07-5.34,16.08-10.76,24.03-16.26c3.96-2.78,7.93-5.53,11.86-8.35l7.91-5.67l-0.03-3.62l0.06-8.5l0.19-8.5l0.33-8.5
							c0.52-11.32,1.41-22.63,2.64-33.9c1.23-11.27,2.82-22.5,4.76-33.67l1.52-8.37l1.65-8.34l1.78-8.31L516.2,75.97z"/>
					</g>
				</g>
			</g>
		</g>
		<g>
			<g>
				<g>
					<g>
						<path d="M171.28,570.51c6.24-5.41,12.93-9.57,19.56-13.1c6.64-3.53,13.27-6.47,19.74-9.41c6.47-2.95,12.81-5.89,18.85-9.39
							c6.03-3.5,11.76-7.59,16.72-12.76c-3.44,6.27-8.12,12-13.29,17.18c-5.17,5.19-10.8,9.9-16.35,14.47
							c-5.55,4.57-11.04,9.02-16,13.65c-4.96,4.62-9.35,9.44-12.71,14.48c-8.48,9.26-14.13,21.19-17.96,34.42
							c-3.9,13.22-6.24,27.53-9.12,42.22c-1.43,7.35-3.04,14.83-5.05,22.34c-1.02,3.76-2.14,7.53-3.44,11.29l-0.98,2.82l-1.07,2.81
							c-0.35,0.94-0.72,1.87-1.13,2.8l-0.98,2.3c-0.1,0.12-0.07,0.27,0.04,0.38l0.44,0.83l0.57,0.78c0.39,0.52,0.7,1.07,1.13,1.57
							c0.89,0.99,1.7,2.03,2.76,2.97c0.93,1,2.14,1.87,3.23,2.81l1.83,1.31l0.92,0.66l0.99,0.62c2.57,1.7,5.52,3.18,8.5,4.65
							c5.44,3.61,11.52,6.93,17.83,10.29l4.86,2.6c1.67,0.93,3.32,1.87,4.94,2.88c3.24,1.99,6.38,4.14,9.38,6.47
							c5.99,4.65,11.51,10.05,15.66,16.44c2.04,3.21,3.72,6.64,4.73,10.25c0.51,1.79,0.87,3.62,1.02,5.45
							c0.19,1.82,0.14,3.64-0.04,5.42c-0.28-1.76-0.7-3.48-1.33-5.12c-0.59-1.64-1.35-3.2-2.23-4.66c-1.74-2.94-3.99-5.49-6.45-7.76
							c-5-4.49-10.91-7.8-17.09-10.4c-3.09-1.29-6.26-2.42-9.47-3.36c-1.6-0.49-3.22-0.9-4.84-1.31l-5.07-1.18
							c-6.96-1.62-14.16-3.34-21.54-5.8l0,0c-3.63-1.79-7.29-3.63-10.89-5.98l-1.35-0.85l-1.34-0.94c-0.89-0.64-1.78-1.25-2.66-1.91
							c-1.73-1.43-3.49-2.77-5.12-4.43l-1.24-1.2c-0.42-0.39-0.82-0.81-1.2-1.27l-2.31-2.68c-0.75-0.92-1.41-1.94-2.11-2.91
							l-1.03-1.48l-0.9-1.59l-1.29-2.36c-0.25-0.41-0.42-0.82-0.58-1.24l-0.51-1.24l-2.06-4.97c-1.31-1.67,0.16-3.29,0.74-4.94
							c0.73-1.64,1.43-3.28,2.18-4.92l1.19-2.79c0.34-0.76,0.64-1.54,0.94-2.33l0.9-2.36l0.83-2.41c1.11-3.21,2.09-6.52,3.01-9.87
							c1.8-6.73,3.31-13.68,4.7-20.81c2.82-14.24,5.18-29.13,9.62-44.25c1.08-3.77,2.4-7.55,3.79-11.32
							c1.49-3.75,3.04-7.51,4.95-11.18C160.78,583.84,165.59,576.8,171.28,570.51z"/>
						<path d="M168.29,723.62L168.29,723.62c-2.99-1.48-5.95-2.97-8.54-4.68l-1-0.62l-0.93-0.66l-1.85-1.32
							c-1.1-0.95-2.32-1.83-3.27-2.84c-1.08-0.95-1.9-2-2.8-3.01c-0.43-0.52-0.75-1.07-1.15-1.6l-0.58-0.79l-0.45-0.85l-0.06-0.11
							c-0.01-0.02,0-0.01-0.01-0.01l0,0l-0.01,0c0,0.01-0.03-0.05-0.04-0.07l-0.08-0.2c-0.06-0.13,0.09-0.26,0.12-0.39l0.98-2.31
							c0.41-0.93,0.77-1.86,1.12-2.79l1.07-2.8l0.98-2.81c1.3-3.75,2.41-7.51,3.43-11.26c2.01-7.5,3.61-14.97,5.05-22.31
							c2.88-14.68,5.22-29,9.13-42.26c3.84-13.27,9.51-25.27,18.06-34.6c3.27-4.87,7.46-9.52,12.19-13.98
							c4.73-4.47,9.96-8.76,15.27-13.13c5.31-4.37,10.73-8.81,15.78-13.66c5.04-4.86,9.71-10.16,13.34-16
							c-5.02,4.69-10.66,8.43-16.54,11.68c-5.89,3.25-12.03,6.03-18.26,8.86c-6.24,2.83-12.59,5.7-18.95,9.12
							c-6.35,3.42-12.73,7.45-18.69,12.6c-5.66,6.25-10.44,13.26-14.1,20.6c-1.9,3.65-3.45,7.4-4.94,11.14
							c-1.39,3.75-2.7,7.52-3.78,11.29c-4.43,15.07-6.79,29.95-9.61,44.21c-1.39,7.13-2.9,14.1-4.7,20.84
							c-0.92,3.36-1.9,6.68-3.01,9.9l-0.84,2.42l-0.91,2.37c-0.3,0.79-0.6,1.58-0.94,2.34l-1.19,2.78l-2.14,4.82
							c-0.57,1.61-2.01,3.2-0.73,4.84l2.02,4.87l0.51,1.21c0.16,0.4,0.33,0.8,0.57,1.21l1.27,2.31l0.89,1.57l1.02,1.47
							c0.69,0.96,1.35,1.97,2.09,2.88l2.29,2.65c0.75,0.92,1.61,1.63,2.42,2.45c1.62,1.65,3.37,2.98,5.09,4.4
							c0.87,0.66,1.76,1.27,2.64,1.9l1.33,0.94l1.34,0.84c3.58,2.34,7.22,4.17,10.84,5.95c7.07,2.35,13.96,4.01,20.67,5.59
							l4.94,1.15c1.57,0.36,3.12,0.78,4.67,1.21c3.1,0.89,6.17,1.92,9.17,3.11c5.99,2.4,11.8,5.43,16.84,9.52
							c2.53,2.03,4.81,4.38,6.79,7.03c1.91,2.67,3.52,5.67,4.44,8.98c-0.03-3.44-0.81-6.92-2.07-10.26
							c-1.31-3.31-3.09-6.5-5.22-9.41c-4.26-5.87-9.66-10.85-15.46-15.2c-2.91-2.17-5.94-4.18-9.06-6.06
							c-1.57-0.92-3.15-1.84-4.76-2.7l-4.61-2.46C179.36,730.29,173.53,727.09,168.29,723.62 M168.68,722.8
							c5.64,3.74,11.96,7.18,18.56,10.69l2.49,1.33c0.88,0.47,1.76,0.94,2.62,1.43c1.74,0.97,3.44,1.99,5.13,3.05
							c3.36,2.13,6.61,4.4,9.7,6.91c6.16,4.97,11.82,10.82,15.76,17.78c1.96,3.47,3.41,7.23,4.09,11.08
							c0.36,1.92,0.46,3.86,0.44,5.77c-0.04,1.91-0.33,3.78-0.71,5.6c-0.1-1.86-0.3-3.69-0.74-5.45c-0.45-1.76-1-3.46-1.77-5.05
							c-1.5-3.2-3.58-6.03-6-8.49c-4.86-4.93-10.89-8.53-17.22-11.33c-3.17-1.41-6.44-2.6-9.75-3.63c-1.66-0.51-3.32-0.98-5-1.4
							c-0.84-0.22-1.68-0.41-2.52-0.61l-2.68-0.62c-7.22-1.67-14.71-3.45-22.42-6.01c-3.65-1.8-7.32-3.65-10.94-6.01l-1.36-0.85
							l-1.35-0.95c-0.89-0.64-1.79-1.26-2.68-1.93c-1.74-1.44-3.52-2.79-5.16-4.46l-1.25-1.21c-0.42-0.39-0.82-0.82-1.21-1.28
							l-2.33-2.7c-0.76-0.92-1.43-1.95-2.13-2.94l-1.04-1.5l-0.91-1.6L127,716c-0.25-0.42-0.43-0.84-0.59-1.26l-0.52-1.26l-2.1-5.07
							c-1.34-1.7,0.16-3.36,0.75-5.03c0.74-1.67,1.45-3.34,2.22-5.01l1.2-2.8c0.33-0.76,0.64-1.54,0.93-2.32l0.9-2.35l0.83-2.4
							c1.11-3.2,2.08-6.5,3-9.85c1.8-6.72,3.3-13.66,4.69-20.78c2.82-14.23,5.18-29.14,9.63-44.29c1.08-3.78,2.4-7.57,3.8-11.35
							c1.5-3.77,3.05-7.54,4.97-11.22c3.69-7.4,8.52-14.48,14.24-20.8c6.52-5.67,13.53-9.97,20.44-13.6
							c6.93-3.63,13.82-6.64,20.52-9.7c6.7-3.06,13.25-6.16,19.42-9.93c6.16-3.76,11.97-8.24,16.81-13.91
							c-3.2,6.73-7.86,12.9-13.14,18.43c-5.28,5.54-11.13,10.5-16.92,15.28c-5.79,4.77-11.55,9.38-16.73,14.17
							c-5.19,4.78-9.77,9.76-13.23,14.98c-8.42,9.19-14.04,21.05-17.86,34.25c-3.89,13.18-6.23,27.48-9.11,42.18
							c-1.43,7.35-3.04,14.84-5.06,22.37c-1.03,3.77-2.14,7.55-3.45,11.32l-0.98,2.83l-1.08,2.82c-0.35,0.94-0.72,1.88-1.13,2.81
							l-0.97,2.29c0,0-0.02,0,0.01-0.01l0.44,0.81l0.56,0.77c0.38,0.51,0.69,1.05,1.11,1.55c0.88,0.98,1.67,2,2.72,2.92
							c0.92,0.98,2.12,1.85,3.2,2.77l1.82,1.3l0.91,0.65l0.99,0.61C162.78,719.86,165.72,721.34,168.68,722.8z"/>
					</g>
				</g>
			</g>
		</g>
		<g>
			<g>
				<g>
					<g>
						<path d="M412.02,582.57c-3.36-5.05-7.75-9.86-12.71-14.48c-4.96-4.63-10.45-9.08-16-13.65c-5.55-4.57-11.18-9.27-16.35-14.47
							c-5.16-5.18-9.84-10.91-13.29-17.18c4.96,5.17,10.69,9.26,16.72,12.76c6.04,3.5,12.38,6.45,18.85,9.39
							c6.47,2.95,13.09,5.88,19.74,9.41c6.63,3.52,13.33,7.69,19.56,13.1c5.69,6.28,10.5,13.33,14.17,20.7
							c1.91,3.67,3.46,7.43,4.95,11.18c1.39,3.76,2.71,7.55,3.79,11.32c4.44,15.11,6.8,30,9.62,44.25
							c1.39,7.13,2.89,14.08,4.7,20.81c0.92,3.36,1.89,6.67,3.01,9.87l0.83,2.41l0.9,2.36c0.29,0.79,0.6,1.57,0.94,2.33l1.19,2.79
							c0.75,1.64,1.45,3.28,2.18,4.92c0.58,1.64,2.05,3.27,0.74,4.93l-2.06,4.97l-0.51,1.24c-0.16,0.41-0.34,0.82-0.58,1.23
							l-1.29,2.36l-0.9,1.59l-1.03,1.48c-0.7,0.97-1.36,1.99-2.11,2.91l-2.31,2.68c-0.38,0.45-0.78,0.88-1.2,1.27l-1.24,1.2
							c-1.63,1.66-3.39,3-5.12,4.43c-0.88,0.66-1.77,1.28-2.66,1.91l-1.34,0.94l-1.35,0.85c-3.6,2.35-7.26,4.19-10.89,5.98
							c-7.38,2.45-14.58,4.17-21.54,5.8l-5.07,1.18c-1.61,0.41-3.24,0.83-4.84,1.31c-3.21,0.95-6.38,2.07-9.47,3.36
							c-6.18,2.59-12.09,5.91-17.09,10.4c-2.46,2.26-4.71,4.82-6.45,7.76c-0.88,1.46-1.64,3.02-2.23,4.66
							c-0.62,1.63-1.04,3.35-1.33,5.12c-0.18-1.78-0.23-3.6-0.04-5.42c0.15-1.83,0.5-3.66,1.02-5.45c1-3.61,2.69-7.04,4.73-10.25
							c4.15-6.38,9.68-11.79,15.66-16.44c3-2.33,6.14-4.48,9.38-6.47c1.62-1.01,3.27-1.95,4.94-2.88l4.86-2.6
							c6.31-3.36,12.38-6.69,17.82-10.29l0,0c2.97-1.47,5.92-2.96,8.49-4.65l0.99-0.62l0.92-0.66l1.83-1.31
							c1.09-0.94,2.3-1.81,3.23-2.81c1.06-0.93,1.87-1.98,2.76-2.97c0.42-0.51,0.74-1.06,1.13-1.57l0.57-0.78l0.44-0.83
							c0.12-0.11,0.14-0.26,0.04-0.38l-0.98-2.3c-0.41-0.93-0.77-1.86-1.13-2.8l-1.08-2.81l-0.98-2.82
							c-1.3-3.76-2.41-7.53-3.44-11.29c-2.02-7.52-3.62-15-5.05-22.34c-2.88-14.69-5.22-29-9.12-42.22
							C426.15,603.76,420.51,591.83,412.02,582.57z"/>
						<path d="M440.77,739.95L440.77,739.95c3.62-1.79,7.26-3.62,10.84-5.95l1.34-0.84l1.33-0.94c0.88-0.63,1.77-1.24,2.64-1.9
							c1.72-1.42,3.47-2.75,5.09-4.4c0.81-0.82,1.67-1.53,2.42-2.45l2.29-2.65c0.74-0.91,1.4-1.92,2.09-2.88l1.02-1.47l0.89-1.57
							l1.27-2.31c0.24-0.41,0.41-0.81,0.57-1.21l0.51-1.21l2.02-4.87c1.29-1.63-0.16-3.23-0.73-4.84l-2.14-4.82l-1.19-2.78
							c-0.34-0.76-0.64-1.55-0.94-2.34l-0.91-2.37l-0.84-2.42c-1.12-3.22-2.1-6.54-3.01-9.9c-1.81-6.75-3.31-13.71-4.7-20.85
							c-2.82-14.25-5.18-29.13-9.61-44.21c-1.07-3.76-2.39-7.53-3.78-11.29c-1.49-3.74-3.03-7.48-4.94-11.14
							c-3.66-7.34-8.44-14.35-14.1-20.6c-5.96-5.15-12.35-9.18-18.69-12.6c-6.36-3.43-12.71-6.29-18.95-9.12
							c-6.23-2.83-12.37-5.61-18.26-8.86c-5.87-3.25-11.52-6.99-16.54-11.68c3.63,5.83,8.3,11.14,13.34,16
							c5.05,4.86,10.47,9.29,15.78,13.66c5.31,4.36,10.55,8.66,15.27,13.13c4.73,4.46,8.93,9.11,12.19,13.98
							c8.55,9.32,14.22,21.33,18.06,34.6c3.92,13.26,6.25,27.58,9.13,42.26c1.43,7.34,3.03,14.81,5.05,22.31
							c1.02,3.75,2.13,7.51,3.43,11.26l0.98,2.81l1.07,2.8c0.35,0.93,0.72,1.87,1.12,2.79l0.98,2.31c0.04,0.13,0.18,0.26,0.12,0.39
							l-0.08,0.2c-0.01,0.02-0.04,0.08-0.04,0.07l-0.01,0l0,0c0,0,0-0.01-0.01,0.01l-0.06,0.11l-0.45,0.85l-0.58,0.79
							c-0.39,0.53-0.72,1.08-1.15,1.6c-0.9,1.01-1.72,2.07-2.8,3.01c-0.95,1.01-2.17,1.89-3.27,2.84l-1.85,1.32l-0.93,0.66l-1,0.62
							c-2.59,1.71-5.56,3.2-8.54,4.68c-5.24,3.47-11.07,6.68-17.1,9.9l-4.61,2.46c-1.61,0.86-3.19,1.77-4.76,2.7
							c-3.12,1.87-6.15,3.89-9.06,6.06c-5.8,4.35-11.2,9.33-15.46,15.2c-2.13,2.92-3.91,6.1-5.22,9.41
							c-1.26,3.34-2.04,6.82-2.07,10.26c0.92-3.31,2.52-6.31,4.44-8.98c1.97-2.65,4.25-4.99,6.79-7.03
							c5.05-4.09,10.85-7.12,16.84-9.52c3.01-1.19,6.07-2.22,9.17-3.11c1.56-0.43,3.11-0.85,4.67-1.21l4.94-1.15
							C426.82,743.96,433.71,742.3,440.77,739.95 M441.16,740.76c-7.7,2.56-15.2,4.33-22.42,6.01l-2.68,0.62
							c-0.84,0.2-1.68,0.39-2.52,0.61c-1.68,0.42-3.34,0.9-5,1.4c-3.31,1.03-6.58,2.22-9.75,3.63c-6.33,2.8-12.36,6.41-17.22,11.33
							c-2.42,2.46-4.5,5.29-6,8.49c-0.77,1.6-1.32,3.3-1.77,5.05c-0.43,1.76-0.64,3.59-0.74,5.45c-0.38-1.81-0.67-3.69-0.71-5.6
							c-0.02-1.9,0.07-3.85,0.44-5.77c0.68-3.85,2.13-7.61,4.09-11.08c3.94-6.96,9.6-12.8,15.76-17.78c3.09-2.5,6.34-4.78,9.7-6.91
							c1.68-1.06,3.39-2.08,5.13-3.05c0.87-0.49,1.74-0.96,2.62-1.43l2.49-1.33c6.59-3.5,12.91-6.95,18.56-10.69
							c2.96-1.47,5.9-2.94,8.45-4.63l0.99-0.61l0.91-0.65l1.82-1.3c1.08-0.93,2.28-1.79,3.2-2.77c1.05-0.92,1.84-1.95,2.72-2.92
							c0.42-0.5,0.73-1.04,1.11-1.55l0.56-0.77l0.44-0.81c0.03,0.01,0.01,0,0.01,0.01l-0.97-2.29c-0.41-0.93-0.78-1.87-1.13-2.81
							l-1.08-2.82l-0.98-2.83c-1.31-3.77-2.42-7.55-3.45-11.32c-2.02-7.53-3.63-15.02-5.06-22.37c-2.88-14.7-5.22-29-9.11-42.18
							c-3.82-13.2-9.44-25.06-17.86-34.25c-3.46-5.22-8.04-10.2-13.23-14.98c-5.19-4.79-10.94-9.4-16.73-14.17
							c-5.79-4.77-11.64-9.73-16.92-15.28c-5.27-5.53-9.93-11.7-13.14-18.43c4.84,5.67,10.65,10.15,16.81,13.91
							c6.18,3.77,12.72,6.87,19.42,9.93c6.71,3.06,13.59,6.07,20.52,9.7c6.91,3.63,13.92,7.93,20.44,13.6
							c5.72,6.31,10.55,13.39,14.24,20.8c1.92,3.68,3.48,7.46,4.97,11.22c1.4,3.78,2.72,7.57,3.8,11.35
							c4.45,15.15,6.81,30.05,9.63,44.29c1.39,7.13,2.89,14.07,4.69,20.78c0.91,3.35,1.89,6.65,3,9.85l0.83,2.4l0.9,2.35
							c0.29,0.79,0.6,1.57,0.93,2.32l1.2,2.8c0.77,1.67,1.48,3.34,2.22,5.01c0.59,1.67,2.09,3.33,0.75,5.03l-2.1,5.07l-0.52,1.26
							c-0.17,0.42-0.34,0.84-0.59,1.26l-1.32,2.4l-0.91,1.6l-1.04,1.5c-0.7,0.98-1.38,2.01-2.13,2.94l-2.33,2.7
							c-0.39,0.46-0.79,0.89-1.21,1.28l-1.25,1.21c-1.65,1.68-3.42,3.02-5.16,4.46c-0.89,0.67-1.78,1.29-2.68,1.93l-1.35,0.95
							l-1.36,0.85C448.48,737.12,444.81,738.96,441.16,740.76z"/>
					</g>
				</g>
			</g>
		</g>
	</g>
</g>
</svg>
