<?xml version="1.0" encoding="utf-8"?>
<!-- Generator: Adobe Illustrator 27.9.0, SVG Export Plug-In . SVG Version: 6.00 Build 0)  -->
<svg version="1.1" xmlns="http://www.w3.org/2000/svg" xmlns:xlink="http://www.w3.org/1999/xlink" x="0px" y="0px"
	 viewBox="0 0 957.13 1165.37" style="enable-background:new 0 0 957.13 1165.37;" xml:space="preserve">
<style type="text/css">
	.st0{fill:#F5EE81;stroke:#F5EE81;stroke-width:0.3775;stroke-miterlimit:10;}
	.st1{fill:none;stroke:#FEFDF2;stroke-miterlimit:10;}
	.st2{fill:#26619C;stroke:#26619C;stroke-width:0.1888;stroke-miterlimit:10;}
	.st3{fill:#D744DC;stroke:#D744DC;stroke-width:0.1888;stroke-miterlimit:10;}
	.st4{fill:#918D91;stroke:#918D91;stroke-width:0.2831;stroke-miterlimit:10;}
	.st5{fill:none;stroke:#6F96BD;stroke-miterlimit:10;}
	.st6{fill:#3F3F3F;stroke:#3F3F3F;stroke-width:0.2831;stroke-miterlimit:10;}
	.st7{fill:#26619C;stroke:#26619C;stroke-width:0.3775;stroke-miterlimit:10;}
	.st8{fill:#918D91;stroke:#918D91;stroke-width:0.3775;stroke-miterlimit:10;}
	.st9{fill:#3F3F3F;stroke:#3F3F3F;stroke-width:0.3775;stroke-miterlimit:10;}
	.st10{fill:#F5EE81;stroke:#F5EE81;stroke-width:0.1888;stroke-miterlimit:10;}
	.st11{stroke:#000000;stroke-width:1.1326;stroke-miterlimit:10;}
	.st12{fill:#26619C;stroke:#26619C;stroke-width:0.0944;stroke-miterlimit:10;}
	.st13{fill:#26619C;stroke:#26619C;stroke-width:0.2615;stroke-miterlimit:10;}
	.st14{fill:none;stroke:#6F96BD;stroke-width:0.6926;stroke-miterlimit:10;}
	.st15{fill:#202020;}
	.st16{stroke:#000000;stroke-width:0.3295;stroke-miterlimit:10;}
	.st17{fill:#2DF15B;}
	.st18{fill:#26619C;stroke:#26619C;stroke-width:0.1915;stroke-miterlimit:10;}
	.st19{fill:#26619C;stroke:#26619C;stroke-width:0.1905;stroke-miterlimit:10;}
	.st20{fill:none;stroke:#6F96BD;stroke-width:0.5045;stroke-miterlimit:10;}
	.st21{stroke:#000000;stroke-width:0.9886;stroke-miterlimit:10;}
	.st22{fill:#F5EE81;stroke:#F5EE81;stroke-width:0.7551;stroke-miterlimit:10;}
	.st23{fill:none;stroke:#FEFDF2;stroke-width:2;stroke-miterlimit:10;}
</style>
<g id="shine">
</g>
<g id="spyglass">
	<g>
		<g>
			<g>
				<g>
					<polygon class="st2" points="24.13,1148.43 62.58,1125.1 79.83,1110.18 58.63,1118.59 20.18,1141.92 2.94,1156.84 					"/>
				</g>
			</g>
		</g>
		<g>
			<g>
				<g>
					<path class="st2" d="M98.58,1151.65c-21.7,1.06-43.41,1.68-65.14,1.86c-10.85,1.36-21.73,2.61-32.63,3.75
						c10.87,1.4,21.77,2.68,32.69,3.86c21.82-0.18,43.64-0.81,65.44-1.87c10.84-1.8,21.64-3.71,32.42-5.72
						C120.42,1153.02,109.49,1152.39,98.58,1151.65z"/>
				</g>
			</g>
		</g>
		<g>
			<g>
				<g>
					<path class="st2" d="M134.67,1141.97c-5.37-8.17-10.4-16.56-15.08-25.14c-3.46-3.68-6.85-7.46-10.17-11.33
						c1.05,4.99,2.21,9.98,3.49,14.97c4.78,8.76,9.92,17.34,15.41,25.68c2.43,2.23,4.9,4.4,7.37,6.55l1.01-2.15l-5.2,1.81l5.43,0.92
						l1.92,0.32l-0.91-2.47C136.8,1148.08,135.7,1145.03,134.67,1141.97z"/>
				</g>
			</g>
		</g>
		<g>
			<g>
				<g>
					<path class="st2" d="M214.07,1156.62c0.47-2.69,0.87-5.4,1.21-8.11c-1.09-1.51-2.21-2.99-3.34-4.45
						c-1.39,1.21-2.8,2.38-4.22,3.51c-0.32,2.59-0.7,5.16-1.15,7.73c1.03,1.5,2.03,3.03,3.01,4.59
						C211.09,1158.84,212.59,1157.74,214.07,1156.62z"/>
				</g>
			</g>
		</g>
		<g>
			<g>
				<g>
					<polygon class="st2" points="216.45,1131.54 216.48,1128.2 212.69,1126.58 208.87,1128.22 208.84,1131.41 212.64,1133.11 					
						"/>
				</g>
			</g>
		</g>
		<g>
			<g>
				<g>
					<path class="st2" d="M266.96,1155.97c-13.12,1.28-26.32,1.83-39.5,1.65c-6.61,1.18-13.29,2.17-20.03,2.97
						c6.56,1.73,13.2,3.28,19.92,4.65c13.47,0.19,26.95-0.37,40.35-1.68c6.58-1.92,13.07-4.02,19.46-6.29
						C280.38,1157.03,273.64,1156.6,266.96,1155.97z"/>
				</g>
			</g>
		</g>
		<g>
			<g>
				<g>
					<polygon class="st2" points="208.92,1134.85 208.5,1142.39 212.09,1146.37 216.1,1142.81 216.52,1135.27 212.93,1131.29 					
						"/>
				</g>
			</g>
		</g>
		<g>
			<g>
				<g>
					<path class="st2" d="M215.1,1142.39c-0.83-2.47-2.15-4.75-3.88-6.7c-1.81-0.13-3.56,0.01-5.15,0.41
						c0.09,1.64-0.12,3.21-0.55,4.64c1.04,1.17,1.86,2.58,2.35,4.07c1.45,0.34,2.91,0.95,4.29,1.84
						C213.31,1145.47,214.31,1144.03,215.1,1142.39z"/>
				</g>
			</g>
		</g>
		<g>
			<g>
				<g>
					<g>
						<path class="st2" d="M78.42,896.62c-4.37,28.59-5.52,57.66-3.42,86.5c2.32,14.33,5.43,28.46,9.33,42.29
							c-1.41-14.3-1.98-28.62-1.74-42.84c-2.06-28.27-0.93-56.78,3.35-84.8c0.89-14.2,2.59-28.42,5.12-42.57
							C86.08,868.68,81.86,882.52,78.42,896.62z"/>
					</g>
				</g>
			</g>
			<g>
				<g>
					<g>
						<polygon class="st2" points="111.85,1088.42 110.9,1051.34 106.61,1032.9 103.29,1051.54 104.24,1088.61 108.52,1107.05 
													"/>
					</g>
				</g>
			</g>
			<g>
				<g>
					<g>
						<path class="st2" d="M87.45,1090.28c1.87-14.75,2.64-29.65,2.32-44.52c-1.43-7.41-3.13-14.71-5.1-21.9
							c-0.56,7.43-1.4,14.79-2.51,22.07c0.32,14.49-0.44,29.01-2.26,43.39c0.35,7.35,0.42,14.76,0.21,22.21
							C82.8,1104.59,85.26,1097.5,87.45,1090.28z"/>
					</g>
				</g>
			</g>
			<g>
				<g>
					<g>
						<path class="st2" d="M206.89,1087.36c-1.97-8.23-4.76-16.19-7.78-23.92l-1.17-2.95c-0.4-0.98-0.85-1.93-1.26-2.88l-2.42-5.61
							l-4.73-11.34c-3.12-7.59-6.37-15.26-9.8-22.76c-3.4-7.51-6.89-14.98-10.43-22.42c-8.22-14.33-16.61-28.5-24.85-42.78
							c5.96,15.37,12.08,30.69,17.98,46.05c3.52,7.41,6.99,14.83,10.37,22.29c3.41,7.46,6.56,14.92,9.7,22.53l4.76,11.41l2.46,5.7
							c0.4,0.93,0.84,1.84,1.21,2.76l1.1,2.78c2.96,7.57,5.61,15.17,7.47,22.93c0.61,1.89,1.21,3.84,1.72,5.73
							c0.53,1.87,0.93,3.85,1.31,5.8c0.74,3.9,1.12,7.81,1.03,11.82c-0.07,4.05-0.39,8.13-0.74,12.23c-0.18,2.02-0.43,4.22,0,6.33
							c0.36,2.12,1.56,4.12,3.33,5.2c-1.59-1.35-2.35-3.35-2.39-5.31c-0.09-1.99,0.43-3.89,0.93-5.91
							c0.98-4.01,1.94-8.04,2.66-12.18c0.75-4.17,1.01-8.52,0.86-12.79c-0.08-2.13-0.18-4.23-0.43-6.39
							C207.53,1091.54,207.23,1089.47,206.89,1087.36z"/>
					</g>
				</g>
			</g>
			<g>
				<g>
					<g>
						<path class="st2" d="M189.55,967.95c4.39,24.25,9.67,48.29,15.95,72.17c3.22,11.94,6.95,23.85,11.9,35.38
							c4.94,11.51,11.33,22.55,18.9,32.52c4.01,4.83,8.24,9.43,12.65,13.81c4.4,4.39,8.92,8.62,13.58,12.68
							c9.28,8.16,18.91,15.79,28.54,23.41c-8.8-8.57-17.59-17.16-25.89-26.14c-4.17-4.47-8.16-9.08-11.99-13.78
							c-3.84-4.7-7.46-9.55-10.8-14.55c-7.26-9.58-13.25-19.94-18-30.97c-4.74-11.04-8.37-22.6-11.54-34.34
							c-6.21-23.58-11.47-47.51-15.81-71.55c-5.6-23.83-10.3-47.91-14.08-72.19C184.22,918.94,186.41,943.48,189.55,967.95z"/>
					</g>
				</g>
			</g>
			<g>
				<g>
					<g>
						<path class="st2" d="M55.02,739.08c-1.31,30.11,4.49,60.46,16.8,87.97c7.31,13.23,16.15,25.47,26.28,36.3
							c-8.13-12.39-14.58-25.69-19.33-39.41c-11.82-26.41-17.4-55.62-16.14-84.53c-0.64-14.51,0.45-29.24,3.45-43.75
							C60.65,709.45,56.94,724.08,55.02,739.08z"/>
					</g>
				</g>
			</g>
			<g>
				<g>
					<g>
						<path class="st2" d="M163.69,771.45c-5.93,16.85-7.78,35.08-5.37,52.78c2.46,8.68,5.97,16.91,10.4,24.42
							c-2.08-8.47-2.99-17.04-2.86-25.45c-2.25-16.48-0.52-33.53,5.01-49.22c1.56-8.26,4.18-16.48,7.92-24.36
							C172.94,756.09,167.85,763.45,163.69,771.45z"/>
					</g>
				</g>
			</g>
			<g>
				<g>
					<g>
						<path class="st2" d="M174.85,888.77c-2.5,1.06-5.08,1.64-7.59,1.56c-2.52-0.07-4.95-0.78-6.84-2.09
							c-3.8-2.56-5.75-8.05-5.56-13.39c-1.01-4.86-0.5-10.51,0.09-16.09l0.36-3.4l-1.21,3.02c-0.39,0.96,0.01,1.96,0.67,2.39
							c-0.45-0.66-0.29-1.53,0.13-1.9l-0.85-0.38c-2.68,4.92-5.5,9.95-6.81,16.17c-0.1,3.58,0.44,7.27,1.82,10.75
							c1.35,3.47,3.71,6.82,7.03,9.11c3.31,2.28,7.18,3.32,10.94,3.43c3.8,0.12,7.49-0.76,10.77-2.15c2.08-1.35,3.91-2.89,5.55-4.53
							c0.82-0.82,1.68-1.72,2.42-2.78c0.74-1.06,1.35-2.32,1.5-3.69c0.15-1.34-0.27-2.59-0.97-3.52c-0.69-0.94-1.84-1.57-2.88-1.4
							c1.02,0.26,1.6,1.12,1.8,1.96c0.21,0.86,0.08,1.73-0.3,2.33c-0.86,1.42-2.52,2.2-4.4,2.96
							C178.63,887.87,176.71,888.45,174.85,888.77z"/>
					</g>
				</g>
			</g>
			<g>
				<g>
					<g>
						<path class="st2" d="M184.05,860.37c-1.22,5.23-3.04,10.32-5.41,15.13c-0.05,2.97-0.3,6-0.78,9.06
							c2.6-1.68,5.15-3.58,7.6-5.69c2.64-5.34,4.65-10.97,6-16.77c-0.56-3.19-1.32-6.27-2.27-9.22
							C187.62,855.55,185.89,858.05,184.05,860.37z"/>
					</g>
				</g>
			</g>
			<g>
				<g>
					<g>
						<path class="st2" d="M236.32,793.68c-11.93,12.42-23.45,25.24-34.52,38.44c-4.56,7.41-8.99,14.89-13.28,22.41
							c6.28-5.96,12.66-11.8,19.11-17.52c10.96-13.06,22.37-25.76,34.18-38.06c4.99-7.03,10.12-13.99,15.37-20.87
							C250.15,783.15,243.2,788.35,236.32,793.68z"/>
					</g>
				</g>
			</g>
			<g>
				<g>
					<g>
						<path class="st2" d="M206.24,797.67c-10.93,13.76-22.49,27.01-34.65,39.7c-5.16,7.22-10.51,14.34-16.05,21.36
							c7.28-5.17,14.47-10.54,21.55-16.09c12.32-12.86,24.04-26.29,35.12-40.23c4.54-7.76,8.89-15.61,13.03-23.52
							C219.03,785.31,212.7,791.58,206.24,797.67z"/>
					</g>
				</g>
			</g>
			<g>
				<g>
					<g>
						<polygon class="st2" points="180.18,750.81 204.07,775 218.73,784.42 209.49,769.65 185.6,745.46 170.94,736.04 						"/>
					</g>
				</g>
			</g>
			<g>
				<g>
					<g>
						<path class="st2" d="M198.34,717.31c11.86,14.72,24.15,29.1,36.84,43.11c7.29,6.15,14.65,12.19,22.08,18.11
							c-5.6-7.67-11.08-15.41-16.44-23.22c-12.59-13.9-24.78-28.17-36.56-42.78c-6.87-6.51-13.67-13.12-20.37-19.85
							C188.58,700.94,193.4,709.15,198.34,717.31z"/>
					</g>
				</g>
			</g>
			<g>
				<g>
					<g>
						<path class="st2" d="M154.5,687.1c-19.7-1.25-39.49-1.16-59.18,0.27c-9.75,1.98-19.4,4.29-28.91,6.91
							c9.87-0.11,19.69,0.12,29.46,0.68c19.35-1.4,38.79-1.49,58.15-0.26c9.76-0.65,19.58-0.97,29.45-0.95
							C173.93,691.21,164.27,688.99,154.5,687.1z"/>
					</g>
				</g>
			</g>
			<g>
				<g>
					<g>
						<path class="st2" d="M133.21,676.17c0.94,5.41,2.59,10.69,4.9,15.68c2.3,1.96,4.7,3.7,7.16,5.19
							c-0.31-2.86-0.39-5.67-0.25-8.39c-2.03-4.38-3.48-9.03-4.31-13.79c-1.66-2.16-3.2-4.51-4.57-7.04
							C134.97,670.45,133.98,673.24,133.21,676.17z"/>
					</g>
				</g>
			</g>
			<g>
				<g>
					<g>
						<path class="st2" d="M79.08,656.76c6.09,6.99,10.39,15.58,12.33,24.65c2.21,4.26,3.91,8.97,4.88,14
							c1.56-4.88,2.43-10.16,2.56-15.6c-2.22-10.35-7.09-20.07-14.03-28.05c-4.43-3.16-9.18-5.62-14.02-7.3
							C74.25,648.26,76.99,652.44,79.08,656.76z"/>
					</g>
				</g>
			</g>
			<g>
				<g>
					<g>
						<path class="st2" d="M119.57,664.98c-0.26,0.24-0.48,0.44-0.66,0.59l-0.03,0.02c-0.01,0.01-0.03,0.01-0.05,0.01
							c-0.02,0-0.03-0.01-0.05-0.02c-0.01,0,0-0.01,0,0c-0.06-0.05-0.13-0.14-0.2-0.21c-0.14-0.16-0.3-0.35-0.46-0.56
							c-0.16-0.21-0.32-0.44-0.49-0.7l-0.57-0.86l-1.3-1.91c-0.92-1.23-1.85-2.46-2.86-3.62c-2-2.33-4.19-4.49-6.54-6.47
							c-2.36-1.95-4.88-3.72-7.52-5.27c-5.91-2.04-12.03-2.9-17.87-2.78c5.36,2.38,10.11,5.54,14.02,9.35
							c2.28,1.34,4.46,2.86,6.5,4.55c2.02,1.71,3.91,3.57,5.63,5.57c0.87,0.99,1.66,2.05,2.45,3.1l1.11,1.63l0.61,0.92
							c0.22,0.34,0.47,0.69,0.74,1.05c0.27,0.36,0.56,0.73,0.9,1.1c0.18,0.19,0.34,0.37,0.54,0.56c0.26,0.26,0.53,0.49,0.81,0.7
							c1.1,0.88,2.41,1.46,3.78,1.62c1.37,0.15,2.78-0.12,4.01-0.78c0.61-0.32,1.2-0.75,1.73-1.18c0.37-0.31,0.68-0.59,0.94-0.84
							c3.53-4.99,6.43-10.26,8.7-15.65C129.1,658.85,124.43,662.22,119.57,664.98z"/>
					</g>
				</g>
			</g>
			<g>
				<g>
					<g>
						<path class="st2" d="M157.64,634.75c-4.7,7.63-9.6,15.14-14.68,22.51c-1.5,4.41-3.06,8.81-4.69,13.21
							c3.68-2.9,7.34-5.86,10.96-8.89c5.16-7.48,10.13-15.1,14.9-22.84c1.3-4.54,2.54-9.07,3.71-13.61
							C164.47,628.4,161.07,631.6,157.64,634.75z"/>
					</g>
				</g>
			</g>
			<g>
				<g>
					<g>
						<path class="st2" d="M146.45,596.4c-4.94-3.65-10.17-6.93-15.7-9.62c-2.71-1.35-5.66-2.69-8.9-3.57
							c-3.21-0.86-6.9-1.35-10.71-0.38c-1.87,0.49-3.74,1.36-5.28,2.51c-1.54,1.13-2.78,2.44-3.85,3.72
							c-1.06,1.28-1.97,2.56-2.83,3.75l-2.59,3.6l-10.36,14.4L68.6,641.83l23.81-26.57l10.36-14.4c1.72-2.35,3.48-4.95,5.09-6.93
							c0.82-0.99,1.65-1.82,2.5-2.45c0.84-0.62,1.7-1.01,2.68-1.27c1.95-0.52,4.34-0.32,6.8,0.36c2.48,0.67,4.95,1.76,7.53,3.05
							c5.11,2.48,9.94,5.51,14.51,8.89c4.95,2.88,9.64,6.28,14.07,10.07c4.41,3.82,8.5,8.08,12.22,12.72
							c-2.65-5.32-5.8-10.47-9.44-15.31C155.09,605.15,151.01,600.56,146.45,596.4z"/>
					</g>
				</g>
			</g>
			<g>
				<g>
					<g>
						<path class="st2" d="M66.19,809.1c-3.65-5.2-7.54-10.22-11.65-15.06c-3.02-1.59-6.07-3.09-9.12-4.5
							c1.2,3.14,2.31,6.29,3.33,9.44c3.96,4.65,7.71,9.49,11.21,14.49c2.79,1.77,5.56,3.63,8.3,5.59
							C67.66,815.75,66.97,812.43,66.19,809.1z"/>
					</g>
				</g>
			</g>
			<g>
				<g>
					<g>
						<path class="st2" d="M63.02,876.11c-0.81,1.61-1.42,3.35-1.73,5.23c-0.29,1.85-0.28,3.75,0.07,5.62
							c0.35,1.87,1.05,3.72,2.14,5.4c0.56,0.84,1.19,1.61,1.96,2.35c0.76,0.71,1.59,1.32,2.48,1.83c2.08,0.45,4.12,0.34,5.91-0.2
							c0.9-0.28,1.73-0.67,2.46-1.14c0.73-0.49,1.34-1.07,1.82-1.69c-3.19,0.29-5.56-1.65-6.43-3.59c-0.76-0.44-1.32-0.96-1.82-1.73
							c-0.49-0.75-0.84-1.65-1.02-2.62c-0.18-0.98-0.19-2.02-0.03-3.02c0.16-0.99,0.5-2,1-2.98c-0.15-2.54,0.69-5.5,2.24-8.24
							C68.98,872.06,65.8,873.48,63.02,876.11z"/>
					</g>
				</g>
			</g>
			<g>
				<g>
					<g>
						<path class="st2" d="M75.71,862.53c-3.38,2.76-5.71,6.57-6.63,10.83c0.78,2.4,2.06,4.46,3.61,5.94
							c0.95-1.92,2.33-3.38,3.84-4.36c0.52-2.49,2-4.9,3.98-6.51c0.19-1.79,0.85-3.68,2.13-5.4
							C80.61,862.33,78.2,862.13,75.71,862.53z"/>
					</g>
				</g>
			</g>
			<g>
				<g>
					<g>
						<path class="st2" d="M32.14,749.66c-4.25,8.82-8.3,17.74-12.12,26.76c-1.92,4.51-3.76,9.04-5.57,13.59l-2.66,6.84l-3.52,9.39
							l33.91,28.08L83,863.18l-35.97-34.73l-29.74-24.62l1.61-4.27l2.63-6.76c1.79-4.49,3.61-8.97,5.5-13.42
							c3.78-8.9,7.77-17.71,11.97-26.42c6.03-15.42,12.73-30.64,20.06-45.61C49.54,721.03,40.55,735.15,32.14,749.66z"/>
					</g>
				</g>
			</g>
			<g>
				<g>
					<g>
						<polygon class="st2" points="53.69,774.93 48,785.58 48.51,792.7 54.72,789.17 60.41,778.51 59.89,771.4 						"/>
					</g>
				</g>
			</g>
			<g>
				<g>
					<g>
						<path class="st2" d="M115.32,961.99c-5.59,17.28-9.39,35.13-11.33,53.19c0.29,9.16,1.07,18.25,2.31,27.2
							c1.29-8.94,3.06-17.76,5.26-26.39c1.88-17.53,5.58-34.88,11.01-51.65c1.51-8.78,3.49-17.54,5.95-26.24
							C123.73,945.76,119.32,953.74,115.32,961.99z"/>
					</g>
				</g>
			</g>
			<g>
				<g>
					<g>
						<polygon class="st2" points="126.85,933.36 124.32,938.11 126.42,942.27 131.04,941.69 133.57,936.94 131.47,932.77 						"/>
					</g>
				</g>
			</g>
			<g>
				<g>
					<g>
						<path class="st2" d="M127.74,932.3c3.6,4.45,6.78,9.24,9.49,14.28c2.47,1.92,4.88,4.01,7.21,6.26
							c0.01-3.24-0.15-6.53-0.5-9.86c-2.93-5.46-6.38-10.64-10.28-15.46c-2.94-1.61-5.91-3.04-8.9-4.28
							C125.94,926.25,126.93,929.28,127.74,932.3z"/>
					</g>
				</g>
			</g>
			<g>
				<g>
					<g>
						<path class="st3" d="M248.98,690.17c-4.96-0.48-9.89-1.53-14.63-3.13c-4.74-1.63-9.3-3.77-13.57-6.38
							c-8.52-5.26-15.84-12.48-21.47-20.85c-2.84-4.17-5.25-8.65-7.22-13.3c-2-4.67-3.51-9.45-4.64-14.47
							c-1.17-5.01-2.07-10.23-3.23-15.51c-1.19-5.28-2.56-10.67-4.92-15.89c-0.62-1.28-1.38-2.51-2.12-3.74
							c-0.37-0.61-0.81-1.2-1.21-1.79c-0.41-0.6-0.82-1.19-1.29-1.74c-1.74-2.3-3.82-4.36-6.02-6.17
							c-4.43-3.63-9.55-6.17-14.86-7.74c-5.33-1.54-10.86-2.05-16.25-1.68c-5.4,0.35-10.66,1.57-15.64,3.39
							c10.28-2.46,21.26-2.12,30.61,1.88c4.65,2.01,8.9,4.83,12.28,8.37c1.69,1.77,3.2,3.66,4.41,5.76c1.25,2.07,2.3,4.26,3.13,6.57
							c2.02,4.45,3.3,9.37,4.43,14.42c1.11,5.07,2.02,10.29,3.25,15.6c0.59,2.65,1.34,5.32,2.15,7.96c0.87,2.63,1.79,5.24,2.9,7.77
							c2.17,5.09,4.8,9.99,7.92,14.58c6.19,9.19,14.27,17.2,23.79,23.07c4.76,2.91,9.84,5.3,15.12,7.11
							c5.29,1.79,10.79,2.96,16.37,3.5c1.1,0.07,2.2,0.02,3.29,0.04l0.21,0l0.1,0c0.03,0-0.01,0-0.01,0c-0.06-0.02,0-0.02,0-0.03
							l0.08-0.05c0.06-0.03,0.14-0.06,0.22-0.09c0.34-0.12,0.89-0.26,1.63-0.44l0.29-0.07l0.15-0.04c0.01,0.01,0,0.03,0,0.04
							c0,0.06-0.02,0.13-0.04,0.21c-0.04,0.17-0.13,0.35-0.26,0.57c-0.12,0.23-0.31,0.46-0.54,0.73c-0.11,0.14-0.23,0.28-0.37,0.42
							c-0.17,0.17-0.17,0.2-0.67,0.61c-3.16,2.58-6.67,4.78-10.42,6.53c-7.5,3.51-15.99,5.26-24.51,4.69
							c8.39,1.59,17.3,0.91,25.64-1.84c4.17-1.37,8.2-3.26,11.97-5.65c0.35-0.23,1.23-0.81,1.89-1.29c0.7-0.5,1.33-1.04,1.98-1.59
							c1.28-1.09,2.7-2.2,3.82-3.36c1.19-1.16,2.38-2.32,3.68-3.64l1.94-1.96l0.49-0.49l0.28-0.35l0.59-0.73l-5.77,0.37l-3.15,0.2
							c-0.52,0.03-1.09,0.09-1.58,0.09l-1.48,0l-3.02,0l-1.54,0c-0.27-0.01-0.47-0.01-0.78-0.04l-0.2-0.02l-0.09-0.01l-0.18-0.02
							C250.92,690.42,249.95,690.35,248.98,690.17z"/>
					</g>
				</g>
			</g>
			<g>
				<g>
					<g>
						<path class="st3" d="M250.4,749.72c2.13,0,4.27-0.14,6.37-0.49c1.05-0.17,2.11-0.34,3.14-0.63l1.33-0.33
							c0.47-0.11,0.89-0.28,1.34-0.42c0.85-0.32,1.66-0.66,2.5-0.99c0.81-0.34,1.69-0.65,2.45-1.01l2.04-1.17
							c1.4-0.77,2.63-1.57,3.87-2.38l3.99-2.58l1.76-1.15l1.45-0.96l-6.39-0.96c-2.25-0.32-4.18-0.68-6.22-1.02l-1.51-0.26
							c-0.5-0.09-1.04-0.16-1.4-0.29l-2.42-0.69l-2.38-0.68l-1.16-0.43c-3.09-1.15-6.07-2.59-8.9-4.29
							c-6.56-2.47-12.87-6.35-18.25-11.58c3.33,6.73,8.22,12.95,14.32,18.1c3.23,1.94,6.64,3.59,10.17,4.9l1.33,0.49l0.21,0.07
							l0.23,0.07l0.13,0.03c0.08,0,0.02,0.03-0.02,0.05c-0.04,0.02-0.08,0.04-0.13,0.06l-0.03,0.01l-0.02,0l0,0l0,0
							c0.01,0,0.01,0-0.07,0.02c-0.83,0.24-1.68,0.37-2.53,0.51c-1.7,0.29-3.43,0.39-5.15,0.4c-6.61,1.24-14.05,0.47-20.69-3.05
							C234.82,744.61,242.25,748.44,250.4,749.72z"/>
					</g>
				</g>
			</g>
			<g>
				<g>
					<g>
						<path class="st4" d="M450.92,562.76c3.5-6.34,5.49-13.46,5.94-20.43c0.48-6.98-0.17-13.85-1.53-20.39
							c-1.35-6.56-3.25-12.89-5.49-19c-2.25-6.1-4.64-12.01-7.22-17.91c-5.14-11.78-10.99-23.25-17.46-34.35
							c-6.5-11.11-13.51-21.82-21.33-32.15c-7.85-10.29-16.8-20.16-27.63-28.09c-10.81-7.94-23.6-13.69-37.32-15.39
							c-6.85-0.81-13.92-0.63-20.79,0.95c-6.88,1.55-13.44,4.43-19.19,8.35c-11.56,7.84-20.16,19.19-25.38,31.79
							c-2.4,6.39-3.82,13.19-4.37,19.86c-0.57,6.7-0.32,13.4,0.58,19.94c1.8,13.11,6.22,25.55,12.09,37.03
							c5.9,11.49,13.28,22,21.28,31.86c8,9.87,16.6,19.15,25.21,28.41c-7.88-9.88-15.76-19.78-22.92-30.12
							c-7.16-10.32-13.59-21.15-18.39-32.56c-4.78-11.39-8.02-23.42-8.74-35.48c-0.73-12.03,0.96-24.09,5.84-34.6
							c4.42-10.7,11.78-20.29,21.18-26.64c4.68-3.2,9.9-5.47,15.35-6.7c5.46-1.26,11.19-1.42,16.88-0.75
							c2.84,0.36,5.67,0.94,8.47,1.68c2.78,0.81,5.55,1.71,8.24,2.87c2.68,1.15,5.33,2.41,7.86,3.9c1.29,0.7,2.51,1.52,3.76,2.29
							c1.22,0.84,2.46,1.64,3.64,2.54c9.59,7.01,17.85,16.03,25.3,25.8c7.43,9.82,14.29,20.27,20.54,30.97
							c6.25,10.73,11.9,21.81,16.86,33.18c2.48,5.67,4.83,11.48,6.95,17.23c2.11,5.74,3.84,11.55,5.03,17.37
							c1.22,5.81,1.72,11.65,1.34,17.27c-0.36,5.63-1.93,10.94-4.51,15.68c-0.31,0.6-0.67,1.17-0.99,1.76l-0.5,0.88
							c-0.17,0.29-0.39,0.56-0.58,0.84l-1.17,1.67l-1.32,1.57l-0.66,0.79l-0.73,0.73l-1.47,1.47c-1.08,0.89-2.08,1.88-3.26,2.68
							c-2.23,1.75-4.76,3.17-7.33,4.52c-1.33,0.61-2.62,1.28-4.01,1.8c-0.69,0.27-1.36,0.56-2.06,0.82l-2.1,0.72
							c-5.63,1.89-11.61,2.95-17.64,3.47c-6.08,0.42-12.22,0.31-18.34-0.33c-24.45-2.67-48.33-14.14-65.66-32.6
							c15.9,19.71,39.31,33.49,64.83,38.25c6.39,1.16,12.89,1.77,19.44,1.81c6.58-0.07,13.21-0.73,19.72-2.37l2.44-0.63
							c0.81-0.23,1.61-0.5,2.41-0.75c1.62-0.47,3.19-1.13,4.78-1.73c3.13-1.35,6.25-2.81,9.17-4.74c1.5-0.88,2.87-2,4.3-3.02
							c0.68-0.56,1.35-1.15,2.02-1.73l1.01-0.87l0.94-0.95l1.87-1.93l1.72-2.09c0.28-0.35,0.58-0.69,0.84-1.06l0.77-1.12
							C449.92,564.27,450.45,563.53,450.92,562.76z"/>
					</g>
				</g>
			</g>
			<g>
				<g>
					<g>
						<path class="st6" d="M467.81,576.04c7.89-13.62,11.53-29.14,11.75-44.52c0.06-1.93-0.07-3.85-0.1-5.78
							c-0.08-1.93-0.29-3.85-0.43-5.77c-0.22-1.9-0.49-3.79-0.74-5.69c-0.34-1.87-0.65-3.76-1.02-5.63
							c-1.53-7.46-3.74-14.73-6.4-21.77c-5.34-14.09-12.46-27.23-20.13-39.81c-7.68-12.53-15.89-24.81-25.1-36.47
							c-9.19-11.65-19.45-22.64-31.11-32.16l-2.18-1.79l-2.25-1.71l-2.25-1.71c-0.75-0.57-1.54-1.09-2.31-1.64
							c-3.06-2.2-6.23-4.28-9.52-6.22c-6.57-3.87-13.58-7.22-21.11-9.47c-7.49-2.25-15.58-3.35-23.57-2.76
							c-7.97,0.57-15.61,2.62-22.75,5.3c-7.17,2.7-13.87,5.99-20.45,9.47c-6.59,3.52-13.16,7.45-19.23,12.37
							c-5.91,5.08-11.25,11.24-14.94,18.4c-3.68,7.12-5.67,14.84-6.51,22.46c-0.84,7.64-0.6,15.24,0.3,22.67
							c0.96,7.42,2.51,14.73,4.61,21.85c8.55,28.45,26.35,53.73,49.96,70.78c-22.44-18.56-38.05-44.52-44.44-72.24
							c-1.56-6.94-2.58-13.98-3.02-21.03c-0.39-7.04-0.13-14.07,1.07-20.83c1.2-6.75,3.38-13.21,6.77-18.82
							c3.37-5.59,8.03-10.34,13.41-14.39c5.23-4.24,11.17-7.84,17.4-11.16c6.27-3.31,12.66-6.43,19.09-8.85
							c6.44-2.42,13.01-4.14,19.55-4.6c6.51-0.48,13.07,0.39,19.49,2.31c12.86,3.86,24.78,11.62,35.64,20.44
							c10.87,8.88,20.58,19.25,29.39,30.41c8.82,11.16,16.8,23.09,24.31,35.33c7.46,12.23,14.23,24.78,19.19,37.89
							c2.48,6.55,4.5,13.24,5.89,20.02c0.34,1.7,0.61,3.4,0.93,5.1c0.23,1.71,0.47,3.42,0.67,5.12c0.12,1.7,0.31,3.4,0.38,5.1
							c0.02,1.71,0.14,3.41,0.08,5.12c-0.18,13.63-3.47,27.32-10.19,38.89c-3.16,5.88-7.19,11.31-12.15,15.76
							c-4.93,4.48-10.74,8.01-17.04,10.55c-6.3,2.57-13.13,3.99-20.04,4.56c-6.93,0.54-13.99,0.25-20.93-0.98
							c-13.9-2.37-27.24-8.24-39.42-15.88c-12.24-7.62-23.39-17.05-34-26.97c9.95,10.59,20.48,20.77,32.41,29.34
							c11.88,8.57,25.22,15.59,39.86,19.1c7.28,1.79,14.83,2.62,22.41,2.52c7.58-0.13,15.25-1.18,22.61-3.63
							c7.35-2.41,14.43-6.06,20.6-10.98C458.47,588.8,463.66,582.7,467.81,576.04z"/>
					</g>
				</g>
			</g>
			<g>
				<g>
					<g>
						<path class="st7" d="M596.29,467.56l6.03-6.88c1.01-1.14,2-2.3,2.98-3.47l3.64-4.28l2.9-3.4l0.72-0.85l0.36-0.43
							c0.1-0.06,0.02-0.16,0-0.25l-0.08-0.27l-0.64-2.14l-2.11-7.02c-0.9-2.95-1.73-5.93-2.77-8.83l-2.98-8.76l-3.28-8.65
							c-1.05-2.9-2.3-5.72-3.48-8.57c-1.2-2.84-2.35-5.7-3.68-8.49c-10.14-22.49-22.61-43.92-37.17-63.83
							c-7.2-10.02-15.11-19.51-23.34-28.69c-2.09-2.27-4.15-4.56-6.27-6.8l-6.49-6.6l-1.62-1.65l-1.68-1.59l-3.36-3.18
							c-2.23-2.12-4.46-4.25-6.85-6.33c-4.74-4.16-9.81-8.18-15.5-11.66c-5.68-3.46-12.07-6.4-19.15-7.8
							c-3.51-0.76-7.21-0.94-10.86-0.81c-3.66,0.18-7.23,0.83-10.62,1.8c-6.79,1.95-12.75,5.08-18.22,8.36
							c-2.66,1.79-5.19,3.63-7.65,5.46l-7.27,5.45l-14.5,10.88l-29.01,21.76l-58.02,43.52l62.26-37.2l31.13-18.6l15.56-9.3
							l7.76-4.63c2.56-1.51,5.09-2.97,7.6-4.3c4.85-2.92,9.72-5.4,14.56-6.77c4.85-1.39,9.54-1.65,14.33-0.69
							c4.78,0.94,9.57,3.05,14.17,5.86c4.61,2.82,9.05,6.31,13.38,10.11c8.63,7.84,17.2,16.12,25.02,24.92
							c7.87,8.79,15.45,17.87,22.34,27.46c13.94,19.06,25.88,39.59,35.58,61.11c1.28,2.66,2.37,5.4,3.52,8.12
							c1.13,2.73,2.33,5.42,3.33,8.2l3.14,8.28l2.84,8.38c0.99,2.78,1.78,5.62,2.64,8.44l0.5,1.65c0.02,0.04-0.02,0.06-0.04,0.09
							l-2.23,2.61c-0.97,1.14-1.93,2.28-2.92,3.39l-5.91,6.74c-14.94,18.69-30.83,36.69-47.58,53.95
							c-16.78,17.23-34.44,33.68-52.9,49.3c19.99-13.59,39.38-28.18,58.07-43.71C561.16,501.42,579.13,484.94,596.29,467.56z"/>
					</g>
				</g>
			</g>
			<g>
				<g>
					<g>
						<path class="st7" d="M604.4,183.78c5.23-3.48,10.5-6.88,15.8-10.25l7.97-5.01l3.55-2.18l6.49,5.12
							c3.53,2.8,7.03,5.61,10.49,8.45c6.91,5.68,13.65,11.5,20.07,17.57c6.42,6.07,12.51,12.4,18.1,19.08
							c5.57,6.68,10.66,13.76,14.92,21.13c8.52,14.8,14.17,31.38,15.31,48.1c0.59,8.35-0.12,16.69-2.12,24.65
							c-0.54,1.98-1,3.98-1.75,5.88l-1.02,2.89c-0.36,0.96-0.81,1.89-1.2,2.84c-1.69,3.75-3.6,7.42-5.91,10.88
							c-4.79,8.54-11.23,16.42-18.51,23.73c-7.3,7.31-15.39,14.08-23.65,20.75c-8.27,6.66-16.74,13.24-24.92,20.18
							c-8.16,6.95-16.05,14.3-22.98,22.42c7.85-7.24,16.44-13.51,25.27-19.38c8.85-5.86,17.96-11.34,27.04-17.02
							c9.08-5.7,18.15-11.6,26.81-18.41c8.63-6.83,16.87-14.64,23.7-23.99c2.72-4.09,5.02-8.49,7.05-13c0.48-1.14,1-2.26,1.45-3.42
							l1.25-3.52c0.9-2.33,1.49-4.74,2.13-7.14c2.42-9.63,3.22-19.59,2.54-29.34c-0.66-9.75-2.63-19.31-5.6-28.48
							c-2.97-9.17-6.94-17.96-11.72-26.26c-9.63-16.63-22.23-30.87-35.74-43.65c-6.76-6.39-13.77-12.43-20.87-18.27
							c-3.55-2.92-7.12-5.78-10.7-8.62l-14.9-11.7l-12.63,7.76l-8.1,5.09c-5.38,3.43-10.74,6.89-16.05,10.42
							c-34.4,25.85-66.9,53.93-97.24,83.95C532.44,228.83,567.78,205.02,604.4,183.78z"/>
					</g>
				</g>
			</g>
			<g>
				<g>
					<g>
						<path class="st7" d="M755.91,95.15c3.33-1.8,6.79-3.21,10.27-4.43c1.75-0.53,3.5-1.12,5.26-1.47
							c1.76-0.48,3.52-0.67,5.28-0.95c0.88-0.14,1.75-0.13,2.63-0.2c0.88-0.06,1.75-0.14,2.61-0.07l2.59,0.06l2.54,0.32
							c0.42,0.06,0.85,0.09,1.27,0.17l1.24,0.3c0.82,0.21,1.66,0.35,2.47,0.6c1.58,0.6,3.22,1.03,4.74,1.82
							c6.17,2.86,11.61,7.67,16.4,13.49c4.8,5.83,8.96,12.59,13.08,19.61c4.14,7.02,7.94,13.95,10.7,21
							c2.76,7.01,4.27,14.14,3.48,20.51c-0.15,0.78-0.22,1.58-0.4,2.35c-0.22,0.76-0.42,1.51-0.61,2.28
							c-0.3,0.72-0.59,1.45-0.86,2.18c-0.29,0.73-0.66,1.41-1.05,2.11c-1.56,2.77-3.79,5.44-6.41,8.05
							c-2.63,2.62-5.64,5.17-8.81,7.87l-9.44,8.05l-70.54,70.19l80.42-58.61l9.44-8.05c3.12-2.67,6.43-5.45,9.67-8.66
							c3.22-3.21,6.4-6.91,8.92-11.34c0.62-1.1,1.22-2.26,1.72-3.44l1.41-3.59l1.01-3.71c0.29-1.24,0.44-2.51,0.65-3.76
							c0.63-5.03,0.31-10-0.53-14.66c-0.86-4.67-2.2-9.11-3.86-13.28c-3.28-8.36-7.52-15.96-11.76-23.18
							c-4.25-7.22-8.74-14.63-14.46-21.59c-2.86-3.47-6.04-6.82-9.65-9.84c-3.6-3.02-7.65-5.71-12.06-7.76
							c-8.83-4.24-18.97-5.4-28.32-4.31c-2.33,0.35-4.67,0.65-6.92,1.24c-2.29,0.47-4.47,1.19-6.68,1.87
							c-4.33,1.5-8.54,3.25-12.49,5.37c-7.69,4.7-14.47,10.39-20.58,16.59c-6.01,6.17-11.34,12.66-16.61,19.08
							c-5.26,6.42-10.43,12.81-16.03,18.8c-5.57,6.02-11.67,11.55-18.5,16.28c7.46-3.61,14.52-8.26,21.07-13.47
							c6.6-5.17,12.8-10.81,18.97-16.35c6.16-5.52,12.29-10.99,18.67-15.78C742.16,102.1,748.9,98.05,755.91,95.15z"/>
					</g>
				</g>
			</g>
			<g>
				<g>
					<g>
						<polygon class="st8" points="897.52,70.93 870.8,98.83 862.94,118.05 881.8,109.36 908.52,81.46 916.38,62.24 						"/>
					</g>
				</g>
			</g>
			<g>
				<g>
					<g>
						<polygon class="st8" points="877.08,36.62 845.64,61.15 834.6,79.42 855.01,73.16 886.45,48.62 893.49,36.96 904.77,18.29 
							890.68,32.27 885.19,37.71 892.91,37.31 890.1,32.62 						"/>
					</g>
				</g>
			</g>
			<g>
				<g>
					<g>
						<path class="st9" d="M930.37,64.49c0.8-5.1,0.45-10.07-0.44-14.64c-0.45-2.29-1.03-4.51-1.7-6.66
							c-0.68-2.16-1.48-4.34-2.44-6.48c-1.91-4.27-4.46-8.5-8.11-12.26c-1.83-1.86-3.95-3.59-6.38-4.97
							c-1.22-0.68-2.48-1.3-3.81-1.79c-0.61-0.27-1.42-0.49-2.19-0.69c-0.39-0.1-0.77-0.21-1.16-0.29l-1.15-0.18
							c-6.35,0.41-11.31,3.34-14.72,7.2c-1.69,1.95-2.97,4.22-3.54,6.61c-0.59,2.38-0.36,4.81,0.5,6.72
							c0.41-2.09,1.49-3.77,2.85-4.91c1.35-1.15,2.95-1.83,4.55-2.17c1.6-0.34,3.22-0.34,4.66-0.06c1.45,0.3,2.7,0.92,3.5,1.68
							l0.34,0.03l0.3,0.09c0.2,0.06,0.38,0.06,0.68,0.21c0.56,0.2,1.1,0.48,1.64,0.77c1.07,0.6,2.11,1.43,3.09,2.43
							c1.96,2.01,3.71,4.73,5.06,7.79c0.68,1.53,1.28,3.13,1.8,4.8c0.53,1.69,0.96,3.37,1.29,5.02c0.65,3.3,0.8,6.49,0.35,9.34
							c0.19,0.76,0.35,1.55,0.46,2.33c0.11,0.75,0.18,1.54,0.16,2.35c-0.02,1.62-0.29,3.32-0.85,5c-1.11,3.32-3.37,6.61-7.13,8.61
							c4.2,0.56,9.03-0.89,13-3.76c2-1.43,3.83-3.2,5.43-5.25c0.81-1.02,1.53-2.14,2.21-3.31
							C929.27,66.89,929.84,65.71,930.37,64.49z"/>
					</g>
				</g>
			</g>
			<g>
				<g>
					<g>
						<path class="st6" d="M894.16,13.63c6.93-2.62,14.91-2.68,22.23-0.62c7.39,2.03,13.84,6.4,18.75,12.34
							c4.93,5.91,8.21,13.29,9.63,20.97c1.44,7.67,0.97,15.74-1.61,22.88c-0.41,1.86-0.98,3.69-1.71,5.44
							c-0.72,1.77-1.59,3.47-2.65,5.06c-2.1,3.23-4.82,5.95-8.28,7.93c-3.42,1.99-7.42,3.24-11.57,3.43
							c-2.07,0.07-4.18-0.07-6.25-0.58c-2.06-0.52-4.07-1.35-5.96-2.5c1.59,1.52,3.43,2.82,5.47,3.84c2.04,1.01,4.26,1.67,6.54,2.09
							c4.58,0.79,9.42,0.43,14.03-1.03c4.62-1.42,9.03-4.16,12.54-7.63c1.8-1.72,3.41-3.64,4.83-5.69c1.44-2.04,2.69-4.21,3.75-6.47
							c3.37-9.34,3.87-19.36,2.11-28.85c-1.77-9.49-5.78-18.63-12.07-26.18c-3.13-3.77-6.79-7.13-10.95-9.89
							c-4.15-2.76-8.71-4.81-13.47-6.15c-4.75-1.34-9.7-1.99-14.66-1.87c-4.96,0.12-9.96,0.98-14.69,2.78
							c-4.55,2.21-8.71,5.29-12.02,8.93c-3.32,3.64-5.89,7.78-7.65,12.17c-1.75,4.39-2.7,9.02-2.78,13.6
							c-0.08,4.58,0.74,9.1,2.45,13.15c-1.61-8.71,0.83-17.4,5.39-24.11c2.3-3.36,5.16-6.24,8.33-8.46
							C887.06,16,890.52,14.5,894.16,13.63z"/>
					</g>
				</g>
			</g>
			<g>
				<g>
					<g>
						<polygon class="st10" points="318.38,431.89 315.55,479.11 317.94,502.95 323.15,479.57 325.98,432.34 323.6,408.5 						"/>
					</g>
				</g>
			</g>
			<g>
				<g>
					<g>
						<polygon class="st10" points="335.26,481.89 335.26,499.68 339.06,508.58 342.87,499.68 342.87,481.89 339.06,473 						"/>
					</g>
				</g>
			</g>
			<g>
				<g>
					<g>
						<polygon class="st10" points="351.94,504.97 351.94,517.76 355.75,524.15 359.55,517.76 359.55,504.97 355.75,498.57 						
							"/>
					</g>
				</g>
			</g>
		</g>
	</g>
</g>
<g id="plug_prong">
</g>
<g id="female_plug">
</g>
<g id="electicity">
</g>
</svg>
