<?xml version="1.0" encoding="utf-8"?>
<!-- Generator: Adobe Illustrator 27.9.0, SVG Export Plug-In . SVG Version: 6.00 Build 0)  -->
<svg version="1.1" xmlns="http://www.w3.org/2000/svg" xmlns:xlink="http://www.w3.org/1999/xlink" x="0px" y="0px"
	 viewBox="0 0 1425.89 1429.79" style="enable-background:new 0 0 1425.89 1429.79;" xml:space="preserve">
<style type="text/css">
	.st0{fill:#D744DC;}
	.st1{fill:none;stroke:#EBA2EE;stroke-width:2.5206;stroke-miterlimit:10;}
	.st2{fill:none;stroke:#EBA2EE;stroke-miterlimit:10;}
	.st3{fill:#26619C;}
	.st4{fill:#FF007A;}
	.st5{fill:#F5EE81;}
	.st6{fill:#DC5CE0;}
</style>
<g id="brand">
</g>
<g id="web">
	<g>
		<g>
			<g>
				<g>
					<g>
						<path class="st3" d="M398.22,1048.75c-92.95,95.37-185.11,191.53-276.45,288.48c88.64-99.43,178.13-198.13,268.46-296.07
							c190.73-201.12,385-398.87,582.71-593.13c96.32-92.05,193.41-183.27,291.26-273.65c-95.32,93.05-189.84,186.89-283.54,281.52
							l0,0C783.04,650.06,588.86,847.72,398.22,1048.75z"/>
						<path class="st3" d="M973.09,448.19L973.09,448.19C775.39,642.45,581.11,840.2,390.38,1041.32
							c-86.68,94-172.6,188.7-257.73,284.07c87.73-92.99,176.2-185.26,265.41-276.8C588.7,847.56,782.89,649.9,980.5,455.73
							c89.94-90.81,180.63-180.9,272.05-270.27C1158.71,272.28,1065.55,359.85,973.09,448.19 M972.78,447.87
							c100.19-95.77,201.22-190.64,303.07-284.6c-99.22,96.73-197.57,194.33-295.04,292.77
							C783.2,650.22,589.01,847.87,398.38,1048.9c-96.7,99.2-192.54,199.26-287.5,300.18c92.14-103.5,185.21-206.19,279.19-308.06
							C580.79,839.89,775.07,642.14,972.78,447.87z"/>
					</g>
				</g>
			</g>
		</g>
		<g>
			<g>
				<g>
					<g>
						<path class="st3" d="M406.67,492.35c-92.39-91.12-182.04-185.18-265.35-284.59c86.09,97,178.2,188.32,272.97,276.64
							c194.6,186.51,401.14,360.57,593.58,550.14c91.14,92.4,178.87,188.34,259.41,290c-83.39-99.33-173.62-192.56-267.14-282.15
							l0,0C808.12,853.21,601.62,679.18,406.67,492.35z"/>
						<path class="st3" d="M1007.72,1034.69L1007.72,1034.69C815.29,845.13,608.76,671.07,414.14,484.55
							c-90.95-84.78-179.44-172.32-262.55-264.97c80.46,94.97,166.58,185.14,255.24,272.61
							c194.94,186.82,401.43,360.85,593.47,550.03c89.75,86.01,176.45,175.36,257.05,270.21
							C1179.47,1215.34,1095.18,1123.39,1007.72,1034.69 M1008.03,1034.38c94.83,96.1,185.99,196.05,269.2,302.26
							c-86.19-103.81-179.95-200.92-277.25-294.1c-192.02-189.17-398.51-363.2-593.47-550.03
							c-96.13-94.77-189.31-192.74-275.46-296.58c89.06,101.36,184.8,196.46,283.4,288.3
							C609.05,670.74,815.58,844.8,1008.03,1034.38z"/>
					</g>
				</g>
			</g>
		</g>
		<g>
			<g>
				<g>
					<g>
						<path class="st3" d="M369.3,763.55c-112.79,4.91-225.53,12.05-338.12,21.44c112.18-13.44,224.67-24.66,337.37-33.65
							c234.75-14.42,470.09-19.2,705.24-14.35c112.98,4.4,225.83,11.02,338.46,19.87c-112.88-4.78-225.82-7.32-338.72-7.64l0,0
							C838.73,744.37,603.72,749.15,369.3,763.55z"/>
						<path class="st3" d="M1073.79,737.23L1073.79,737.23c-235.14-4.86-470.47-0.08-705.22,14.35
							c-108.16,8.65-216.13,19.34-323.81,32.08c108.07-8.84,216.28-15.62,324.54-20.36c234.42-14.4,469.44-19.18,704.25-14.33
							c108.36,0.33,216.75,2.7,325.09,7.11C1290.53,747.76,1182.22,741.48,1073.79,737.23 M1073.8,736.74
							c117.53,4.55,234.93,11.51,352.08,20.89c-117.42-5.14-234.9-7.86-352.35-8.16c-234.8-4.85-469.81-0.08-704.22,14.33
							c-117.34,5.09-234.61,12.59-351.72,22.52c116.68-14.16,233.69-25.89,350.94-35.22C603.3,736.66,838.65,731.88,1073.8,736.74z"
							/>
					</g>
				</g>
			</g>
		</g>
		<g>
			<g>
				<g>
					<g>
						<path class="st3" d="M693.61,1072.31c-2.47,114.53-4.4,229.07-5.81,343.63c-2.66-114.54-4.8-229.11-6.39-343.69
							c0.92-238.37,4.14-476.73,9.67-715.04c4.7-114.49,9.92-228.96,15.68-343.38c-1.69,114.56-2.86,229.12-3.48,343.67v0
							C697.75,595.73,694.53,834.02,693.61,1072.31z"/>
						<path class="st3" d="M691.32,357.22L691.32,357.22c-5.53,238.31-8.75,476.67-9.67,715.04c1.54,109.97,3.57,219.92,6.08,329.85
							c1.39-109.95,3.26-219.89,5.63-329.81c0.91-238.29,4.14-476.58,9.66-714.81c0.61-109.94,1.71-219.89,3.29-329.84
							C700.84,137.48,695.84,247.34,691.32,357.22 M690.83,357.21C695.71,238.11,701.17,119.03,707.2,0
							c-1.8,119.17-3.03,238.34-3.68,357.51c-5.53,238.23-8.75,476.51-9.66,714.8c-2.57,119.14-4.57,238.3-5.99,357.48
							c-2.81-119.15-5.05-238.33-6.7-357.52C682.08,833.89,685.3,595.52,690.83,357.21z"/>
					</g>
				</g>
			</g>
		</g>
		<g>
			<g>
				<g>
					<g>
						<path class="st3" d="M705.48,941.33c-2.69,3.41-5.09,7.03-7.45,10.72c-2.25,3.74-4.45,7.56-6.33,11.55
							c-1.97,3.96-3.61,8.08-5.16,12.26l-1.06,3.18l-0.53,1.59l-0.46,1.61l-0.93,3.24l-0.79,3.28l0.11-3.39l0.25-3.39l0.13-1.7
							l0.2-1.69l0.4-3.39c0.68-4.5,1.49-9.03,2.65-13.48c1.08-4.48,2.52-8.88,4.07-13.27c1.65-4.34,3.4-8.69,5.49-12.88
							c10.13-16.58,23.65-31,39.44-42.3c7.93-5.6,16.38-10.5,25.34-14.33c4.45-1.98,9.06-3.59,13.7-5.07
							c2.35-0.65,4.68-1.4,7.06-1.92c1.19-0.28,2.37-0.58,3.56-0.84l3.6-0.69c9.44-0.81,19.04-0.4,28.18,1.9
							c4.56,1.16,9,2.82,13.05,5.1c4.05,2.28,7.7,5.2,10.6,8.65c-3.55-2.79-7.55-4.81-11.71-6.13c-4.16-1.33-8.47-1.99-12.77-2.18
							c-8.62-0.35-17.19,1.05-25.38,3.5l0,0l-3.28,0.63c-1.09,0.24-2.17,0.51-3.25,0.76c-2.18,0.47-4.3,1.16-6.45,1.75
							c-4.24,1.36-8.47,2.82-12.55,4.64c-8.22,3.5-16,8.02-23.32,13.19C727.35,912.68,714.82,926.04,705.48,941.33z"/>
						<path class="st3" d="M788.83,870.66L788.83,870.66l-3.59,0.69c-1.19,0.26-2.37,0.56-3.56,0.83c-2.38,0.52-4.7,1.26-7.05,1.91
							c-4.64,1.48-9.24,3.08-13.68,5.06c-8.94,3.82-17.38,8.71-25.3,14.3c-15.77,11.28-29.27,25.68-39.38,42.23
							c-7.87,16.15-12.45,33.62-13.21,50.93c4.26-16.79,12.05-32.23,22.23-45.4c9.35-15.32,21.9-28.7,36.5-39.15
							c7.33-5.17,15.13-9.7,23.36-13.21c4.09-1.83,8.32-3.29,12.57-4.65c2.15-0.59,4.28-1.28,6.46-1.75
							c1.09-0.25,2.17-0.53,3.26-0.77l3.28-0.63c7.88-2.35,16.1-3.74,24.41-3.55c8.25,0.23,16.73,2.17,23.89,7.12
							c-2.98-3.14-6.61-5.76-10.57-7.8c-3.96-2.05-8.24-3.53-12.62-4.57C807.05,870.24,797.87,869.88,788.83,870.66 M788.75,870.22
							c9.83-0.84,19.86-0.37,29.36,2.19c4.74,1.29,9.33,3.14,13.47,5.68c4.14,2.53,7.79,5.76,10.59,9.53
							c-3.51-3.12-7.58-5.42-11.84-6.95c-4.27-1.53-8.72-2.33-13.18-2.61c-8.94-0.52-17.85,0.9-26.34,3.44l-3.27,0.63
							c-1.09,0.23-2.16,0.51-3.24,0.76c-2.17,0.47-4.29,1.16-6.44,1.75c-4.24,1.36-8.45,2.81-12.53,4.63
							c-8.21,3.5-15.98,8.01-23.28,13.16c-14.55,10.41-27.06,23.75-36.38,39.02c-11.02,14.22-19.17,31.11-23.17,49.47
							c0.18-18.77,4.81-37.91,13.4-55.46c10.14-16.6,23.68-31.05,39.5-42.36c7.94-5.61,16.41-10.52,25.38-14.35
							c4.46-1.99,9.07-3.59,13.73-5.08c2.35-0.65,4.68-1.4,7.07-1.92c1.19-0.28,2.38-0.58,3.57-0.84L788.75,870.22z"/>
					</g>
				</g>
			</g>
		</g>
		<g>
			<g>
				<g>
					<g>
						<path class="st3" d="M721.35,1059.36c-15.11,17.44-27.74,37.39-37,59.1l-0.2-0.5c1.5,0.92,3.62,0.84,5.26-0.16
							c-1.48,1.21-3.68,1.72-5.64,0.89l-0.3-0.13l0.1-0.37c6.08-22.9,15.9-45.05,28.95-65.42c16.23-21.76,36.21-40.74,58.93-55.67
							c22.72-14.93,48.11-25.69,74.54-31.89c25.83-4.17,52.06-4.01,77.22,0.5c-25.55-0.86-50.9,2.76-74.71,10.23l0,0
							c-25.2,5.92-49.4,16.17-71,30.38C755.89,1020.51,736.83,1038.62,721.35,1059.36z"/>
						<path class="st3" d="M846.04,965.43L846.04,965.43c-26.4,6.2-51.76,16.94-74.47,31.86c-22.7,14.91-42.66,33.88-58.88,55.62
							c-13.04,20.35-22.85,42.49-28.92,65.36l-0.05,0.17l0.14,0.06c0.86,0.36,1.79,0.45,2.67,0.33c-0.89,0-1.77-0.23-2.5-0.67
							l0.09,0.23c9.27-21.74,21.91-41.7,37.03-59.16c15.49-20.77,34.57-38.89,56.2-53.1c21.63-14.22,45.85-24.48,71.08-30.41
							c22.88-7.16,47.16-10.78,71.69-10.31C895.94,961.43,870.81,961.44,846.04,965.43 M845.94,965
							c26.89-4.36,54.22-4.02,80.34,1.02c-26.57-1.24-52.98,2.37-77.72,10.14c-25.18,5.91-49.35,16.16-70.93,30.35
							c-21.59,14.18-40.63,32.27-56.09,52.99c-15.09,17.42-27.71,37.35-36.97,59.04l-0.31-0.77c2.16,1.39,5.82,0.4,7.03-2.34
							c-0.8,2.88-4.45,4.81-7.61,3.47l-0.46-0.19l0.15-0.58c6.08-22.92,15.91-45.09,28.98-65.48
							c16.25-21.78,36.24-40.78,58.99-55.72C794.08,981.97,819.49,971.21,845.94,965z"/>
					</g>
				</g>
			</g>
		</g>
		<g>
			<g>
				<g>
					<g>
						<path class="st3" d="M749.13,1204.49c-0.74,0.76-1.51,1.51-2.23,2.29l-2.14,2.37l-4.28,4.74l-4.29,4.75l-2.15,2.38
							c-0.7,0.8-1.36,1.64-2.05,2.46c-5.4,6.6-11.02,13.07-16.04,20.01l-3.87,5.13l-1.94,2.57c-0.65,0.85-1.29,1.71-1.88,2.6
							l-7.28,10.61c-1.2,1.78-2.46,3.53-3.62,5.33l-3.4,5.47l-6.82,10.97l-0.16-0.26l3.37,0.14l-3.37,0.21l-0.29,0.02l0.13-0.27
							l5.66-11.63l2.84-5.83c0.97-1.93,2.05-3.8,3.06-5.71l6.2-11.4c0.5-0.96,1.06-1.89,1.62-2.81l1.68-2.78l3.36-5.56
							c4.34-7.52,9.32-14.62,14.11-21.89c0.61-0.9,1.19-1.82,1.82-2.71l1.92-2.63l3.85-5.27l3.86-5.28l1.93-2.64
							c0.66-0.87,1.35-1.71,2.03-2.56l9.31-10.49l2.33-2.62l2.44-2.52l4.88-5.04c6.38-6.84,13.31-13.14,20.07-19.59
							c1.66-1.64,3.49-3.11,5.24-4.66l5.29-4.6l5.3-4.6c1.77-1.53,3.64-2.93,5.46-4.41l10.98-8.73l11.33-8.27l5.68-4.11l5.85-3.88
							c3.91-2.57,7.77-5.2,11.72-7.71l12.02-7.23l3.01-1.81l1.5-0.9l1.54-0.84l6.17-3.35l6.17-3.35c2.06-1.11,4.09-2.26,6.22-3.25
							l12.62-6.14l3.16-1.53c1.06-0.49,2.15-0.93,3.22-1.4l6.44-2.78l6.45-2.78c2.13-0.95,4.32-1.83,6.52-2.68
							c8.61-2.85,17.38-5.28,26.28-7.12c8.9-1.84,17.94-3.06,27.03-3.35c9.08-0.29,18.21,0.37,27.03,2.41
							c8.81,2.02,17.26,5.5,24.65,10.46c-7.87-4.17-16.46-6.68-25.14-7.75c-8.69-1.08-17.47-0.8-26.09,0.37
							c-8.63,1.17-17.11,3.22-25.41,5.86c-8.3,2.63-16.42,5.82-24.37,9.4l0,0C857.9,1105.3,796.7,1149.02,749.13,1204.49z"/>
						<path class="st3" d="M921.77,1068.24L921.77,1068.24c-2.2,0.85-4.38,1.73-6.51,2.68l-6.44,2.78l-6.44,2.78
							c-1.07,0.47-2.15,0.92-3.22,1.4l-3.15,1.53l-12.62,6.13c-2.12,0.98-4.16,2.14-6.22,3.25l-6.16,3.34l-6.16,3.35l-1.54,0.84
							l-1.5,0.9l-3.01,1.81l-12.02,7.23c-3.95,2.51-7.81,5.14-11.71,7.71l-5.84,3.87l-5.68,4.11l-11.33,8.26l-10.97,8.73
							c-1.81,1.47-3.69,2.87-5.45,4.4l-5.29,4.6l-5.29,4.6c-1.75,1.55-3.57,3.02-5.24,4.66c-6.76,6.45-13.69,12.74-20.06,19.58
							l-4.88,5.04l-2.44,2.52l-2.33,2.62l-9.31,10.49c-0.67,0.85-1.36,1.68-2.01,2.54l-1.91,2.62l-3.82,5.23l-3.81,5.22l-1.9,2.61
							c-0.64,0.87-1.21,1.79-1.81,2.68c-4.73,7.21-9.69,14.22-13.99,21.68c-2.2,3.69-4.47,7.33-6.61,11.04l-6.14,11.3l-3.06,5.64
							l-2.81,5.77l-5.6,11.52l6.76-10.88l3.37-5.42l3.62-5.27l7.22-10.52c2.5-3.44,5.1-6.8,7.64-10.2
							c4.97-6.88,10.57-13.27,15.91-19.83c0.68-0.81,1.33-1.65,2.04-2.43l2.13-2.36l4.25-4.71l4.25-4.7l2.12-2.35
							c0.72-0.77,1.48-1.51,2.21-2.27c47.59-55.49,108.82-99.23,176.64-126.24c15.26-6.85,31.2-12.4,47.76-14.98
							c8.27-1.25,16.69-1.72,25.07-0.99c8.38,0.71,16.71,2.72,24.5,6.23c-7.38-4.3-15.62-7.24-24.13-8.85
							c-8.51-1.64-17.27-2.07-25.96-1.66C955.41,1058.75,938.28,1062.8,921.77,1068.24 M921.61,1067.82
							c8.97-2.97,18.1-5.49,27.39-7.35c9.28-1.85,18.72-3.04,28.19-3.19c9.46-0.14,18.98,0.78,28.07,3.27
							c9.09,2.47,17.69,6.56,25.06,12.17c-7.92-4.82-16.71-7.91-25.68-9.37c-8.98-1.48-18.11-1.42-27.08-0.35
							c-8.98,1.07-17.82,3.13-26.45,5.81c-8.64,2.68-17.09,5.98-25.35,9.7c-67.74,26.98-128.92,70.68-176.46,126.12
							c-0.74,0.76-1.51,1.51-2.23,2.28l-2.14,2.37l-4.28,4.74l-4.29,4.75l-2.15,2.38c-0.7,0.8-1.36,1.64-2.05,2.45
							c-5.39,6.6-11.01,13.07-16.03,20l-3.87,5.13l-1.94,2.57c-0.65,0.85-1.29,1.71-1.88,2.6l-7.28,10.6
							c-1.2,1.78-2.46,3.53-3.62,5.33l-3.4,5.47l-6.81,10.96l-0.35-0.58l7.67,0.32l-7.66,0.47l-0.66,0.04l0.3-0.62l5.66-11.64
							l2.84-5.83c0.97-1.93,2.05-3.8,3.07-5.71l6.2-11.41c0.5-0.96,1.06-1.89,1.62-2.81l1.68-2.78l3.36-5.57
							c4.34-7.53,9.32-14.63,14.11-21.9c0.61-0.9,1.19-1.82,1.82-2.71l1.92-2.63l3.85-5.27l3.86-5.28l1.93-2.64
							c0.66-0.87,1.35-1.71,2.03-2.56l9.32-10.5l2.33-2.62l2.44-2.52l4.88-5.04c6.39-6.85,13.31-13.14,20.08-19.6
							c1.67-1.64,3.5-3.11,5.24-4.66l5.3-4.6l5.3-4.6c1.77-1.53,3.64-2.94,5.46-4.41l10.98-8.74l11.34-8.27l5.68-4.12l5.85-3.88
							c3.91-2.57,7.78-5.21,11.73-7.72l12.03-7.23l3.01-1.81l1.5-0.9l1.54-0.84l6.17-3.35l6.17-3.35c2.06-1.11,4.1-2.26,6.22-3.25
							l12.63-6.14l3.16-1.53c1.06-0.49,2.15-0.93,3.22-1.4l6.45-2.78l6.45-2.78C917.22,1069.56,919.41,1068.68,921.61,1067.82z"/>
					</g>
				</g>
			</g>
		</g>
		<g>
			<g>
				<g>
					<g>
						<path class="st3" d="M583.18,905.62c-11.23-1.51-23.02-1.16-34.69,1.34c10.35-5.94,22.04-10.17,34.39-12.36
							c12.9-0.36,25.86,1.51,38.13,5.63c12.27,4.13,23.73,10.48,33.79,18.56c8.51,9.2,15.27,19.64,19.93,30.63
							c-7.78-9.05-16.97-16.45-26.83-22.03l0,0c-9.07-7.29-19.41-13.01-30.4-16.7C606.5,906.98,594.81,905.29,583.18,905.62z"/>
						<path class="st3" d="M654.66,918.96L654.66,918.96c-10.04-8.06-21.48-14.4-33.72-18.52c-12.24-4.12-25.19-5.98-38.06-5.62
							c-11.83,2.11-23.04,6.09-33.06,11.64c11.23-2.24,22.55-2.51,33.35-1.07c11.66-0.32,23.37,1.37,34.39,5.07
							c11.02,3.71,21.38,9.44,30.47,16.74c9.48,5.38,18.33,12.43,25.93,21C669.34,937.74,662.8,927.79,654.66,918.96 M654.94,918.62
							c8.88,9.58,15.86,20.5,20.55,32c-7.97-9.53-17.48-17.29-27.73-23.06c-9.05-7.27-19.36-12.98-30.33-16.67
							c-10.97-3.69-22.64-5.37-34.24-5.05c-11.66-1.59-23.93-1.16-36.03,1.62c10.69-6.33,22.85-10.81,35.71-13.08
							c12.92-0.36,25.92,1.51,38.21,5.64C633.37,904.16,644.86,910.53,654.94,918.62z"/>
					</g>
				</g>
			</g>
		</g>
		<g>
			<g>
				<g>
					<g>
						<path class="st3" d="M524.8,995.7c-20.26-4.95-41.51-7-62.85-5.56c20.79-5.07,42.65-6.81,64.52-5.33
							c44.93,6.91,87.61,27.13,121.41,57.52c15,15.98,27.5,34.01,36.74,53.3c-12.41-17.43-27.45-32.57-44.12-45.12l0,0
							C608.35,1021.6,567.55,1002.26,524.8,995.7z"/>
						<path class="st3" d="M647.73,1042.5L647.73,1042.5c-33.77-30.36-76.41-50.57-121.29-57.47c-20.97-1.4-41.93,0.15-61.94,4.74
							c20.5-1.1,40.87,0.98,60.34,5.72c42.79,6.57,83.63,25.92,115.82,54.87c15.99,12.07,30.5,26.51,42.64,43.08
							C674.17,1075.04,662.09,1057.84,647.73,1042.5 M648.02,1042.17c15.63,16.63,28.56,35.48,37.92,55.68
							c-12.68-18.3-28.26-34.14-45.59-47.16c-32.12-28.9-72.89-48.21-115.59-54.76c-21.05-5.16-43.18-7.18-65.37-5.41
							c21.56-5.54,44.34-7.48,67.1-5.92C571.47,991.51,614.19,1011.75,648.02,1042.17z"/>
					</g>
				</g>
			</g>
		</g>
		<g>
			<g>
				<g>
					<g>
						<path class="st3" d="M430.9,1134.82c-30.6-7.92-62.32-12.42-94.34-13.01c31.89-3.08,64.35-2.28,96.49,2.2
							c66.12,13.12,129.05,41.73,182.41,82.92c24.51,21.27,46.45,45.2,65.1,71.25c-21.51-23.74-45.74-44.68-71.83-62.53l0,0
							C556.73,1175.51,495.32,1147.59,430.9,1134.82z"/>
						<path class="st3" d="M615.32,1207.1L615.32,1207.1c-53.33-41.17-116.24-69.77-182.32-82.88c-30.83-4.28-61.95-5.18-92.58-2.54
							c30.73,0.89,61.13,5.33,90.53,12.92c64.46,12.78,125.9,40.71,177.91,80.87c25.04,17.16,48.38,37.14,69.25,59.71
							C659.96,1250.37,638.81,1227.52,615.32,1207.1 M615.59,1206.75c25.52,22.12,48.27,47.13,67.41,74.42
							c-22.14-24.91-47.27-46.8-74.41-65.35c-51.96-40.12-113.34-68.02-177.73-80.79c-31.82-8.26-64.84-12.8-98.16-13.1
							c33.14-3.52,66.95-2.83,100.39,1.86C499.24,1136.92,562.2,1165.54,615.59,1206.75z"/>
					</g>
				</g>
			</g>
		</g>
		<g>
			<g>
				<g>
					<g>
						<path class="st3" d="M831.62,825.26c-1.45,8.93-1.35,18.44,0.63,27.91c-5.37-8.05-9.38-17.4-11.65-27.45
							c-0.44-10.54,1.02-21.17,4.43-31.2c3.41-10.03,8.74-19.35,15.52-27.43c7.93-6.58,16.8-11.55,25.97-14.65
							c-7.35,6.3-13.23,13.77-17.53,21.73l0,0c-5.93,7.06-10.57,15.21-13.53,23.89C832.52,806.77,831.24,816.05,831.62,825.26z"/>
						<path class="st3" d="M840.73,767.24L840.73,767.24c-6.76,8.06-12.07,17.35-15.48,27.36c-3.4,10.01-4.86,20.61-4.42,31.12
							c2.18,9.62,5.95,18.59,10.99,26.4c-1.76-9.12-1.81-18.24-0.42-26.84c-0.39-9.24,0.9-18.55,3.86-27.27
							c2.96-8.72,7.63-16.88,13.57-23.97c4.15-7.66,9.75-14.86,16.71-21.01C856.79,756.14,848.33,760.95,840.73,767.24
							 M840.39,766.96c8.26-6.87,17.55-12,27.13-15.09c-7.74,6.44-13.91,14.18-18.35,22.45c-5.91,7.04-10.54,15.16-13.49,23.82
							c-2.95,8.66-4.23,17.92-3.84,27.11c-1.52,9.26-1.36,19.16,0.85,28.98c-5.71-8.3-9.95-18.02-12.3-28.5
							c-0.44-10.56,1.02-21.22,4.44-31.28C828.26,784.4,833.6,775.06,840.39,766.96z"/>
					</g>
				</g>
			</g>
		</g>
		<g>
			<g>
				<g>
					<g>
						<path class="st3" d="M926.52,889.47c-1.56,8.42-2.56,17-2.97,25.68c-0.06,2.17-0.22,4.35-0.2,6.52l0.03,6.55l0.29,6.57
							c0.11,2.2,0.36,4.37,0.53,6.58c-0.62-2.11-1.33-4.21-1.89-6.35l-1.67-6.44l-1.41-6.52c-0.48-2.18-0.79-4.38-1.19-6.59
							c-1.44-8.82-2.28-17.81-2.51-26.87c1.46-18.71,5.65-37.19,12.33-54.74c3.35-8.78,7.3-17.3,12.05-25.51
							c4.74-8.19,10.36-16.03,17.1-22.97c7.1-6.05,15.16-10.99,23.7-14.26c8.53-3.28,17.61-4.96,26.42-4.4
							c-8.73,1.28-16.84,4.71-23.94,9.32c-7.13,4.63-13.22,10.44-18.28,17.02l0,0c-5.97,6.16-11.08,13.24-15.47,20.83
							c-4.4,7.58-8.14,15.66-11.29,23.92C931.86,854.36,927.9,871.81,926.52,889.47z"/>
						<path class="st3" d="M957.17,785.55L957.17,785.55c-6.72,6.93-12.33,14.75-17.06,22.93c-4.75,8.19-8.69,16.71-12.04,25.47
							c-6.67,17.53-10.86,35.99-12.31,54.68c0.23,8.69,1.01,17.3,2.33,25.78c1.28,8.48,3.29,16.79,5.71,24.89
							c-0.69-8.43-0.92-16.84-0.43-25.18c0.46-8.33,1.44-16.57,2.93-24.66c1.38-17.69,5.35-35.16,11.65-51.72
							c3.16-8.27,6.91-16.36,11.31-23.95c4.39-7.6,9.52-14.7,15.5-20.87c4.88-6.31,10.68-11.96,17.48-16.5
							c6.77-4.53,14.47-7.96,22.79-9.54c-8.47-0.19-17.11,1.59-25.24,4.85C971.64,774.97,963.98,779.77,957.17,785.55
							 M956.85,785.24c7.39-6.32,15.86-11.4,24.8-14.7c8.93-3.31,18.47-4.75,27.61-3.88c-9.13,1.05-17.67,4.33-25.1,9.03
							c-7.46,4.72-13.84,10.7-19.08,17.53c-5.96,6.14-11.06,13.21-15.44,20.78c-4.39,7.57-8.13,15.64-11.28,23.89
							c-6.29,16.52-10.25,33.95-11.62,51.59c-3.25,17.49-4.07,35.72-2.14,53.96c-5.67-17.44-8.82-35.98-9.29-54.86
							c1.46-18.73,5.65-37.23,12.34-54.8c3.36-8.79,7.31-17.32,12.07-25.54C944.47,800.05,950.1,792.2,956.85,785.24z"/>
					</g>
				</g>
			</g>
		</g>
		<g>
			<g>
				<g>
					<g>
						<path class="st3" d="M1042.47,966.12c-7.08,24.83-10.52,51-9.82,77.36c-4.36-26.01-4.68-52.97-0.97-79.63
							c5.76-27.34,15.76-53.8,29.75-78.02c13.99-24.22,31.9-46.12,52.7-64.77c21.24-16.55,44.74-29.74,69.45-38.96
							c-23.19,12.57-44.13,28.62-62.1,47.17l0,0c-19.95,17.89-37.13,38.89-50.52,62.07C1057.6,914.53,1047.99,939.9,1042.47,966.12z
							"/>
						<path class="st3" d="M1114.29,821.23L1114.29,821.23c-20.78,18.63-38.68,40.51-52.66,64.71
							c-13.98,24.2-23.98,50.64-29.73,77.96c-3.54,25.57-3.39,51.41,0.47,76.42c-0.34-25.31,3.1-50.38,9.88-74.24
							c5.52-26.24,15.14-51.64,28.54-74.84c13.4-23.21,30.59-44.23,50.56-62.13c17.27-17.8,37.27-33.31,59.36-45.66
							C1157.13,792.6,1134.67,805.38,1114.29,821.23 M1114,820.9c22.09-17.24,46.66-30.86,72.48-40.14
							c-24.28,12.78-46.17,29.38-64.83,48.67c-19.93,17.87-37.1,38.85-50.47,62.02c-13.38,23.16-22.97,48.52-28.49,74.72
							c-7.38,25.8-10.82,53.06-9.75,80.48c-4.87-27-5.36-55.09-1.46-82.84c5.76-27.36,15.78-53.84,29.78-78.09
							C1075.25,861.48,1093.18,839.57,1114,820.9z"/>
					</g>
				</g>
			</g>
		</g>
		<g>
			<g>
				<g>
					<g>
						<path class="st3" d="M539.99,834.41c1.18,10.75,0.46,21.42-2.03,31.32c-1.18-10.14-4.19-19.72-8.56-28.27
							c-2.71-9.41-7.09-18.35-12.93-26.18c-5.83-7.82-13.15-14.57-21.4-19.86c-6.94-6.62-15.27-12.24-24.65-16.27
							c10.2,0.44,20.63,2.79,30.6,6.99l0,0c9.34,5.99,17.63,13.62,24.29,22.55C531.97,813.62,536.92,823.75,539.99,834.41z"/>
						<path class="st3" d="M495.19,791.24L495.19,791.24c8.27,5.3,15.61,12.07,21.46,19.91c5.85,7.85,10.24,16.81,12.96,26.25
							c4.19,8.22,7.13,17.4,8.41,27.12c2.24-9.54,2.87-19.75,1.75-30.05c-3.07-10.63-8.01-20.73-14.65-29.64
							c-6.64-8.91-14.92-16.52-24.23-22.49c-9.55-4.01-19.52-6.32-29.3-6.9C480.55,779.44,488.51,784.88,495.19,791.24
							 M494.95,791.61c-7.19-6.88-15.89-12.68-25.71-16.73c10.62,0.31,21.51,2.69,31.9,7.08c9.36,6,17.67,13.65,24.35,22.6
							c6.67,8.95,11.64,19.1,14.72,29.78c1.25,11.21,0.42,22.33-2.31,32.59c-1.08-10.57-4.16-20.56-8.7-29.42
							c-2.71-9.39-7.07-18.3-12.89-26.11C510.48,803.61,503.18,796.89,494.95,791.61z"/>
					</g>
				</g>
			</g>
		</g>
		<g>
			<g>
				<g>
					<g>
						<path class="st3" d="M423.07,905.08c8.05,19.26,13.59,39.35,16.33,59.59c-6.32-19.42-15.22-37.72-26.09-54.46
							c-19.27-36.61-48-68.26-82.58-90.96c-15.62-12.43-32.97-23.05-51.69-31.22c19.88,4.68,39.34,12.14,57.74,22l0,0
							C372.95,833.8,402.91,866.79,423.07,905.08z"/>
						<path class="st3" d="M330.86,819.07L330.86,819.07c34.61,22.73,63.37,54.4,82.65,91.05c10.43,16.09,19.04,33.61,25.32,52.17
							c-2.85-19.39-8.26-38.62-15.97-57.1c-20.14-38.25-50.07-71.22-86.21-94.96c-17.65-9.45-36.27-16.69-55.29-21.4
							C299.25,796.87,315.85,807.13,330.86,819.07 M330.62,819.44c-16.22-12.94-34.33-23.9-53.89-32.19
							c20.73,4.65,41.04,12.32,60.18,22.61c36.2,23.78,66.18,56.8,86.36,95.13c8.39,20.05,14.07,41,16.7,62.08
							c-6.37-20.27-15.53-39.36-26.85-56.75C393.87,873.74,365.17,842.12,330.62,819.44z"/>
					</g>
				</g>
			</g>
		</g>
		<g>
			<g>
				<g>
					<g>
						<path class="st3" d="M291.62,1004.88c10.31,26.7,17.79,54.31,22.15,82.21c-7.95-27.1-18.82-53.12-32.15-77.58
							c-24.29-52.5-59.88-99.77-103.6-137.64c-19.82-19.58-41.81-37.22-65.66-52.36c25.61,11.91,50.07,26.73,72.87,44.03l0,0
							C230.15,902.44,266.66,950.94,291.62,1004.88z"/>
						<path class="st3" d="M178.16,871.69L178.16,871.69c43.75,37.89,79.35,85.19,103.66,137.72c12.78,23.5,23.32,48.42,31.18,74.36
							c-4.43-26.74-11.71-53.18-21.59-78.8c-24.95-53.9-61.44-102.38-106.33-141.27c-21.88-16.58-45.28-30.89-69.75-42.54
							C138.08,835.89,159.12,852.91,178.16,871.69 M177.87,872.03c-20.6-20.36-43.55-38.64-68.49-54.17
							c26.75,12.16,52.27,27.49,75.99,45.51c44.94,38.93,81.47,87.46,106.45,141.42c10.75,27.78,18.42,56.55,22.71,85.62
							c-8.02-28.27-19.24-55.38-33.11-80.81C257.14,957.13,221.57,909.88,177.87,872.03z"/>
					</g>
				</g>
			</g>
		</g>
		<g>
			<g>
				<g>
					<g>
						<path class="st3" d="M505.94,723.42c-3.25,2.63-6.7,4.96-10.18,7.11c-3.52,2.12-7.16,3.96-10.83,5.58l-1.96-2.78l9.3-5.1
							l-7.2,7.79l-1.96-2.78c2.86-2.62,5.56-5.35,8.02-8.23c2.43-2.92,4.71-5.9,6.71-9.05c7.5-8.1,13.37-17.7,17.23-28
							c3.85-10.3,5.6-21.39,5.16-32.42c1.44-10.67,0.9-21.95-1.93-33.03c6.2,9.61,10.66,20.74,12.94,32.62v0
							c0.49,12.43-1.47,24.98-5.84,36.68C521.02,703.48,514.4,714.29,505.94,723.42z"/>
						<path class="st3" d="M520.44,655.52L520.44,655.52c0.44,11.06-1.31,22.19-5.17,32.51c-3.86,10.33-9.75,19.96-17.27,28.08
							c-2,3.15-4.29,6.14-6.73,9.06c-2.47,2.89-5.17,5.63-8.04,8.25l1.71,2.42l6.26-6.77l-8.08,4.44l1.71,2.42
							c3.67-1.62,7.3-3.46,10.81-5.57c3.48-2.14,6.92-4.47,10.16-7.09c8.43-9.12,15.04-19.89,19.4-31.54
							c4.36-11.67,6.32-24.19,5.83-36.59c-2.18-11.38-6.37-22.06-12.18-31.38C521.38,634.43,521.82,645.26,520.44,655.52
							 M520,655.54c1.49-11.07,0.87-22.8-2.24-34.29c6.59,9.9,11.32,21.48,13.7,33.87c0.49,12.46-1.47,25.04-5.86,36.77
							c-4.38,11.71-11.01,22.53-19.49,31.69c-3.25,2.64-6.71,4.97-10.2,7.13c-3.53,2.12-7.17,3.97-10.85,5.6l-2.22-3.14l10.51-5.77
							l-8.13,8.8l-2.22-3.14c2.86-2.61,5.54-5.33,8-8.22c2.42-2.92,4.7-5.89,6.69-9.02c7.48-8.08,13.34-17.65,17.18-27.93
							C518.69,677.61,520.44,666.54,520,655.54z"/>
					</g>
				</g>
			</g>
		</g>
		<g>
			<g>
				<g>
					<g>
						<path class="st3" d="M342.17,675.05c-14.02,23.21-31.52,43.99-51.64,61.3c17.54-19.92,31.61-42.47,41.84-66.34
							c12.32-23.97,20.78-49.94,24.7-76.58c3.92-26.64,3.3-53.95-1.61-80.45c-2.93-25.81-9.91-51.45-20.97-75.58
							c14.29,22.37,25.06,47.31,31.81,73.57l0,0c5.12,27.67,5.77,56.18,1.67,84.06C363.87,622.91,355.03,650.03,342.17,675.05z"/>
						<path class="st3" d="M355.68,512.94L355.68,512.94c4.91,26.52,5.53,53.86,1.61,80.52c-3.92,26.67-12.38,52.66-24.72,76.65
							c-9.85,22.92-23.22,44.62-39.78,63.97c19.08-16.88,35.72-36.9,49.19-59.14c12.85-25,21.68-52.1,25.78-79.95
							c4.1-27.85,3.44-56.34-1.67-83.98c-6.49-25.18-16.67-49.14-30.08-70.79C346.29,463.53,352.84,488.16,355.68,512.94
							 M355.24,513.02c-3.02-26.82-10.43-53.48-22.26-78.44c15.16,23.08,26.53,49.01,33.53,76.35c5.12,27.69,5.78,56.23,1.67,84.13
							s-12.94,55.04-25.82,80.09c-14.57,24.17-32.93,45.73-54.09,63.47c18.51-20.5,33.28-43.89,43.9-68.71
							c12.31-23.95,20.76-49.9,24.67-76.51C360.76,566.78,360.14,539.5,355.24,513.02z"/>
					</g>
				</g>
			</g>
		</g>
		<g>
			<g>
				<g>
					<g>
						<path class="st3" d="M166.98,643.62c-16.12,33.19-35.74,64.49-58.51,93.01c19.79-30.67,35.94-63.43,48.37-97.33
							c29.34-69.06,43.3-144.66,40.54-219.65c0.49-36.1-2.9-72.46-10.44-108.18c11.09,34.78,18.24,71.02,21.45,107.78v0
							C211.21,495.88,196.96,573.04,166.98,643.62z"/>
						<path class="st3" d="M197.6,419.65L197.6,419.65c2.76,75.02-11.2,150.65-40.56,219.74c-11.96,32.54-27.32,64.03-46.03,93.65
							c21.59-27.59,40.28-57.68,55.76-89.51c29.97-70.55,44.2-147.67,41.39-224.27c-3.1-35.26-9.81-70.04-20.13-103.52
							C194.94,350.09,198.05,384.99,197.6,419.65 M197.16,419.67c0.53-37.54-3.14-75.36-11.32-112.45
							c11.86,36.08,19.46,73.78,22.77,112.03c2.81,76.66-11.44,153.85-41.43,224.46c-16.76,34.55-37.31,67.05-61.27,96.52
							c20.88-31.73,37.81-65.75,50.72-101C185.97,570.19,199.91,494.62,197.16,419.67z"/>
					</g>
				</g>
			</g>
		</g>
		<g>
			<g>
				<g>
					<g>
						<path class="st3" d="M799.41,1309.94c-34.54,18.38-67.14,40.89-96.62,67.27c26.91-29,57.6-54.77,91-76.75
							c71.49-42.39,153.07-67.5,236.03-72.67c39.98-0.62,79.85,3.42,118.41,12.27c-39.21-5.23-78.83-5.5-117.73-1.27h0
							C949.32,1243.84,869.37,1268.45,799.41,1309.94z"/>
						<path class="st3" d="M1029.83,1228.01L1029.83,1228.01c-82.92,5.17-164.47,30.27-235.93,72.64
							c-32.03,21.1-61.57,45.68-87.69,73.23c28.56-25.02,59.93-46.47,93.09-64.14c69.99-41.5,149.97-66.13,231.19-71.18
							c37.35-4.04,75.35-3.94,113.04,0.67C1106.43,1231.15,1068.19,1227.44,1029.83,1228.01 M1029.8,1227.57
							c41.6-0.67,83.1,3.71,123.13,13.31c-40.74-5.84-81.97-6.3-122.42-1.87c-81.15,5.05-161.06,29.65-230.99,71.12
							c-35.93,19.09-69.76,42.66-100.16,70.4c27.7-30.45,59.54-57.41,94.32-80.26C865.2,1257.87,946.81,1232.74,1029.8,1227.57z"/>
					</g>
				</g>
			</g>
		</g>
		<g>
			<g>
				<g>
					<g>
						<path class="st3" d="M1196.21,1090.33c-5.33,36.96-6.3,74.78-2.41,112.36c-7.52-37.03-10.32-75.23-8.56-113.4
							c7.52-79.07,34.44-156.16,77.78-222.73c22.39-30.97,48.36-59.12,77.3-83.41c-26.44,26.99-49.23,57.19-68.07,89.43l0,0
							C1229.9,937.62,1203.55,1013.07,1196.21,1090.33z"/>
						<path class="st3" d="M1263.21,866.69L1263.21,866.69c-43.32,66.53-70.23,143.59-77.75,222.63
							c-1.66,36.62,0.85,73.26,7.68,108.87c-3.34-36.11-2.25-72.38,2.84-107.87c7.35-77.31,33.71-152.78,76.08-217.85
							c18.11-30.95,39.84-60.01,64.93-86.19C1309.48,809.89,1284.71,836.99,1263.21,866.69 M1262.83,866.45
							c23.28-32.25,50.45-61.44,80.81-86.41c-27.79,27.8-51.64,59.13-71.2,92.67c-42.34,65.01-68.67,140.42-76.01,217.65
							c-5.57,38.43-6.41,77.79-1.97,116.85c-8.21-38.44-11.3-78.21-9.44-117.93C1192.54,1010.16,1219.47,933.04,1262.83,866.45z"/>
					</g>
				</g>
			</g>
		</g>
		<g>
			<g>
				<g>
					<g>
						<path class="st3" d="M563.89,1311.22c30.49,20.46,59.24,43.28,85.82,68.19c-28.95-22.11-59.6-41.73-91.49-58.74
							c-64.4-38.62-135.19-66.58-208.6-82.4c-34.9-9.37-70.69-15.99-106.93-19.64c36.43-0.03,73.01,2.96,109.26,8.86l0,0
							C426.53,1243.57,498.44,1271.98,563.89,1311.22z"/>
						<path class="st3" d="M349.66,1238.05L349.66,1238.05c73.43,15.82,144.25,43.8,208.67,82.43
							c30.59,16.36,60.06,35.11,87.98,56.15c-25.66-23.74-53.3-45.56-82.54-65.22c-65.43-39.23-137.31-67.63-211.88-83.7
							c-34.78-5.63-69.87-8.59-104.82-8.8C281.82,1222.64,316.15,1229.09,349.66,1238.05 M349.57,1238.49
							c-36.29-9.77-73.54-16.58-111.27-20.14c37.9-0.25,75.98,2.76,113.69,8.93c74.62,16.08,146.55,44.49,212.02,83.75
							c31.75,21.27,61.61,45.09,89.1,71.17c-29.98-23.19-61.83-43.68-95-61.34C493.72,1282.26,422.95,1254.3,349.57,1238.49z"/>
					</g>
				</g>
			</g>
		</g>
		<g>
			<g>
				<g>
					<g>
						<path class="st3" d="M188.03,1082.29c8.16,35.18,12.8,71.01,13.68,106.76c-4.55-35.46-12.78-70.25-24.27-103.72
							c-20.28-70.69-55.07-137.21-101.57-194.18c-20.94-28.53-44.81-55.13-71.35-79.09c28.86,21.11,55.64,45.36,79.89,72.13l0,0
							C131.86,942.33,167.33,1010.15,188.03,1082.29z"/>
						<path class="st3" d="M76.04,891.01L76.04,891.01c46.52,57,81.33,123.54,101.61,194.26c11.01,32.14,19.04,65.49,23.71,99.48
							c-1.15-34.29-5.73-68.64-13.54-102.4c-20.69-72.11-56.15-139.91-103.58-198.03c-23.27-25.67-48.87-49.02-76.38-69.53
							C33.11,838.02,55.92,863.63,76.04,891.01 M75.7,891.29C53.94,861.61,29,834.02,1.19,809.31
							c30.2,21.72,58.18,46.85,83.39,74.73c47.47,58.17,82.96,126.02,103.66,198.19c8.51,36.61,13.2,73.92,13.82,111.12
							c-4.43-36.93-12.87-73.16-24.84-107.96C156.96,1014.73,122.18,948.24,75.7,891.29z"/>
					</g>
				</g>
			</g>
		</g>
		<g>
			<g>
				<g>
					<g>
						<path class="st3" d="M66.93,633.45c-18.37,39.97-39.84,78.38-64.2,114.66c21.22-38.21,39.25-78.01,54-118.84
							c34.2-83.52,54.71-172.64,60.46-262.71c4.58-43.17,5.77-86.85,3.38-130.49c6.04,43.29,8.57,87.21,7.62,131.19v0
							C122.37,458.53,101.59,548.81,66.93,633.45z"/>
						<path class="st3" d="M117.42,366.57L117.42,366.57c-5.75,90.09-26.27,179.24-60.48,262.78
							C42.76,668.55,25.58,706.8,5.47,743.6c23.13-34.99,43.61-71.89,61.26-110.24c34.64-84.61,55.42-174.87,61.24-266.11
							c0.89-42.2-1.4-84.35-6.91-125.93C123.07,283.22,121.8,325.13,117.42,366.57 M116.98,366.55c4.78-44.9,5.89-90.35,3.11-135.73
							c6.58,44.99,9.33,90.69,8.32,136.46c-5.83,91.29-26.61,181.6-61.28,266.26c-19.1,41.6-41.56,81.5-67.14,119.09
							c22.33-39.6,41.2-80.97,56.53-123.44C90.72,545.69,111.23,456.59,116.98,366.55z"/>
					</g>
				</g>
			</g>
		</g>
		<g>
			<g>
				<g>
					<g>
						<path class="st3" d="M851.38,689.19c3.58,6.36,8.45,12.33,14.63,17.27c-7.75-1.61-15.48-4.91-22.57-9.63
							c-11.98-12.49-19.53-28.92-21.19-46.15c1.04-8.45,3.58-16.47,7.41-23.39c-0.28,7.91,1.08,15.49,3.56,22.36v0
							C834.61,664.3,841.17,678.59,851.38,689.19z"/>
						<path class="st3" d="M822.48,650.67L822.48,650.67c1.66,17.18,9.18,33.56,21.13,46.02c6.8,4.51,14.17,7.71,21.57,9.38
							c-5.85-4.84-10.5-10.6-13.96-16.71c-10.25-10.64-16.82-24.97-18.22-39.68c-2.38-6.61-3.72-13.88-3.58-21.48
							C825.86,634.9,823.49,642.58,822.48,650.67 M822.03,650.71c1.07-8.82,3.78-17.17,7.87-24.31c-0.42,8.23,0.95,16.12,3.54,23.23
							c1.38,14.6,7.92,28.84,18.1,39.41c3.7,6.6,8.8,12.78,15.31,17.83c-8.09-1.55-16.18-4.95-23.57-9.88
							C831.27,684.46,823.7,667.99,822.03,650.71z"/>
					</g>
				</g>
			</g>
		</g>
		<g>
			<g>
				<g>
					<g>
						<path class="st3" d="M587.51,610.83c-10.32-2.88-19.65-7.92-27.1-14.51c9.34,3.43,19.06,4.47,28.19,3.54
							c9.31,0.92,18.83-0.22,27.52-3.48c8.69-3.26,16.61-8.66,23.02-15.48c7.48-5.31,14.12-12.49,18.9-21.22
							c-1.27,9.87-4.98,19.81-10.86,28.76l0,0c-7.51,8-16.81,14.37-27.18,18.26C609.63,610.58,598.43,611.91,587.51,610.83z"/>
						<path class="st3" d="M639.3,581.04L639.3,581.04c-6.42,6.85-14.38,12.27-23.1,15.54c-8.72,3.28-18.28,4.43-27.62,3.5
							c-8.79,0.88-18.13-0.05-27.15-3.17c7.27,6.18,16.23,10.93,26.11,13.7c10.89,1.08,22.05-0.24,32.38-4.12
							c10.33-3.88,19.6-10.23,27.09-18.2c5.61-8.58,9.24-18.05,10.65-27.49C652.91,569.07,646.49,575.92,639.3,581.04
							 M638.97,580.74c7.77-5.49,14.64-13.01,19.43-22.19c-1.14,10.29-4.93,20.7-11.08,30.03c-7.53,8.02-16.86,14.41-27.26,18.31
							c-10.4,3.9-21.63,5.23-32.58,4.15c-10.77-2.98-20.48-8.32-28.1-15.32c9.65,3.75,19.77,4.9,29.23,3.92
							c9.28,0.92,18.77-0.22,27.42-3.47C624.7,592.92,632.59,587.54,638.97,580.74z"/>
					</g>
				</g>
			</g>
		</g>
		<g>
			<g>
				<g>
					<g>
						<path class="st3" d="M777.04,591.27c7.72,1.96,15.9,2.96,24.32,2.74c-7.52,3.78-15.8,6.58-24.51,8.28
							c-18.05-0.32-35.92-5.32-51.52-14.4c-6.57-5.96-12.19-12.65-16.66-19.78c7.08,4.55,14.6,7.94,22.21,10.26l0,0
							C744.81,586.49,760.92,590.99,777.04,591.27z"/>
						<path class="st3" d="M725.44,587.7L725.44,587.7c15.57,9.06,33.41,14.05,51.42,14.37c8.34-1.64,16.28-4.29,23.54-7.84
							c-8.07,0.12-15.93-0.86-23.35-2.73c-16.17-0.28-32.31-4.79-46.28-12.93c-7.32-2.25-14.54-5.48-21.39-9.77
							C713.74,575.59,719.16,581.98,725.44,587.7 M725.22,588.08c-6.85-6.2-12.69-13.2-17.27-20.66c7.32,4.8,15.13,8.36,23.04,10.76
							c13.9,8.1,29.97,12.59,46.06,12.87c8.01,2.05,16.53,3.06,25.28,2.74c-7.78,4.01-16.4,6.97-25.48,8.72
							C758.76,602.19,740.85,597.19,725.22,588.08z"/>
					</g>
				</g>
			</g>
		</g>
		<g>
			<g>
				<g>
					<g>
						<path class="st3" d="M1127.58,642.27c18.03,25.16,40.5,47.55,66.47,65.52c-27.88-14.83-53.37-34.77-75.04-58.58
							c-21.03-25.99-37.53-55.68-48.16-87.44c-10.63-31.76-15.31-65.4-14.16-98.82c2.97-32.06,11.33-63.32,24.68-91.94
							c-9.93,29.98-14.4,61.38-13.66,92.32v0c-1.11,32.13,3.4,64.48,13.59,94.94C1091.49,588.72,1107.35,617.28,1127.58,642.27z"/>
						<path class="st3" d="M1056.92,462.95L1056.92,462.95c-1.16,33.39,3.53,67.01,14.15,98.74c10.62,31.73,27.11,61.4,48.12,87.37
							c20.8,22.82,45.09,42.08,71.63,56.71c-24.66-17.62-46.06-39.22-63.41-63.37c-20.24-25.01-36.11-53.59-46.31-84.07
							c-10.2-30.49-14.72-62.86-13.6-95.02c-0.68-29.73,3.42-59.86,12.51-88.77C1067.6,402.2,1059.8,432.21,1056.92,462.95
							 M1056.47,462.93c3.06-33.37,11.97-65.9,26.27-95.49c-10.77,31.05-15.61,63.72-14.82,95.88c-1.11,32.1,3.4,64.43,13.58,94.86
							c10.18,30.44,26.03,58.97,46.24,83.94c18.72,26.17,42.25,49.35,69.53,67.67c-29.23-15.02-55.91-35.65-78.44-60.46
							c-21.05-26.01-37.56-55.73-48.2-87.51C1060.01,530.04,1055.31,496.37,1056.47,462.93z"/>
					</g>
				</g>
			</g>
		</g>
		<g>
			<g>
				<g>
					<g>
						<path class="st3" d="M1281.38,603.47c19.07,38.2,43.6,73.99,73.21,105.48c-32.18-28.85-60.07-62.83-82.85-100.14
							c-43.99-79.56-65.1-171.48-60.23-262.26c4.22-43.52,14.49-86.25,30.86-126.26c-12.91,41.25-19.36,84.16-19.86,126.85v0
							C1217.75,435.81,1238.41,525.77,1281.38,603.47z"/>
						<path class="st3" d="M1211.73,346.56c-4.87,90.74,16.23,182.62,60.2,262.14c21.88,35.78,48.44,68.49,78.96,96.58
							c-28.02-30.58-51.36-65.03-69.71-101.7c-42.99-77.74-63.66-167.74-58.89-256.45c0.51-41,6.48-82.17,18.35-121.92
							C1225.44,263.8,1215.81,304.81,1211.73,346.56 M1211.29,346.53c4.35-45.29,15.28-89.75,32.81-131.17
							c-13.94,42.76-20.88,87.39-21.36,131.79c-4.77,88.62,15.89,178.55,58.84,256.21c19.8,39.74,45.52,76.87,76.72,109.26
							c-33.84-29.62-63.07-64.86-86.75-103.71C1227.54,529.32,1206.42,437.36,1211.29,346.53z"/>
					</g>
				</g>
			</g>
		</g>
		<g>
			<g>
				<g>
					<g>
						<path class="st3" d="M984.48,658.74c6.37,15.65,14.89,30.69,25.55,44.42c-13.31-11.18-25.19-24.43-35.24-39.19
							c-17.53-32.53-26.29-69.64-25.16-106.57c2.4-17.69,7.09-34.86,14-50.81c-3.4,17.05-4.29,34.3-2.98,51.15v0
							C959.56,592.69,967.88,627.96,984.48,658.74z"/>
						<path class="st3" d="M949.84,557.4c-1.13,36.9,7.62,73.97,25.13,106.46c9.65,14.14,20.97,26.9,33.61,37.78
							c-10.07-13.3-18.17-27.76-24.31-42.8c-16.62-30.81-24.95-66.12-23.87-101.11c-1.24-16.19-0.46-32.75,2.6-49.15
							C956.57,523.97,952.16,540.44,949.84,557.4 M949.4,557.39c2.48-18.42,7.46-36.29,14.83-52.8c-3.73,17.7-4.74,35.65-3.37,53.16
							c-1.08,34.91,7.24,70.15,23.82,100.89c6.61,16.27,15.54,31.88,26.79,46.04c-13.97-11.48-26.42-25.23-36.88-40.6
							C957.04,631.51,948.27,594.36,949.4,557.39z"/>
					</g>
				</g>
			</g>
		</g>
		<g>
			<g>
				<g>
					<g>
						<path class="st3" d="M446.49,456.6c-20.9-7.73-40.57-18.2-58.14-31.11c19.49,9.77,40.15,16.56,61.09,20.49
							c42.57,11.83,88.42,11.97,131.06,0.39c20.97-3.81,41.66-10.47,61.21-20.13c-17.65,12.81-37.38,23.15-58.32,30.76l0,0
							C538.79,469.11,491.02,468.97,446.49,456.6z"/>
						<path class="st3" d="M580.56,446.59L580.56,446.59c-42.68,11.59-88.56,11.45-131.18-0.39c-20.11-3.8-39.96-10.2-58.78-19.35
							c17.01,12.18,35.91,22.11,55.95,29.54c44.49,12.36,92.22,12.5,136.78,0.41c20.08-7.31,39.04-17.13,56.12-29.21
							C620.59,436.62,600.7,442.91,580.56,446.59 M580.45,446.16c21.79-3.94,43.3-10.97,63.53-21.25
							c-18.21,13.53-38.71,24.41-60.52,32.31c-44.64,12.11-92.45,11.97-137.02-0.41c-21.76-8.03-42.2-19.03-60.33-32.67
							c20.16,10.4,41.63,17.56,63.4,21.63C492.04,457.59,537.84,457.73,580.45,446.16z"/>
					</g>
				</g>
			</g>
		</g>
		<g>
			<g>
				<g>
					<g>
						<path class="st3" d="M878.83,462.91c17.85-0.93,35.83-4.4,53.12-10.66c-15.7,9.58-33.13,16.83-51.43,21.55
							c-38.68,6-78.92,0.89-114.87-14.6c-16.54-9.14-31.6-20.52-44.4-33.73c15.18,10.39,31.72,18.24,48.77,23.61l0,0
							C804.01,463.73,842.26,468.59,878.83,462.91z"/>
						<path class="st3" d="M765.74,458.99L765.74,458.99c35.91,15.47,76.11,20.58,114.75,14.58c17.54-4.54,34.27-11.39,49.46-20.39
							c-16.68,5.79-33.94,9.03-51.09,9.94c-36.62,5.69-74.9,0.83-108.94-13.84c-16.38-5.17-32.28-12.62-46.98-22.4
							C735.41,439.39,749.89,450.21,765.74,458.99 M765.57,459.4c-17.23-9.51-32.86-21.45-46.02-35.34
							c15.66,11,32.83,19.25,50.56,24.82c33.95,14.64,72.16,19.49,108.69,13.81c18.55-0.95,37.24-4.65,55.16-11.38
							c-16.22,10.16-34.33,17.81-53.4,22.71C841.84,480.02,801.56,474.9,765.57,459.4z"/>
					</g>
				</g>
			</g>
		</g>
		<g>
			<g>
				<g>
					<g>
						<path class="st3" d="M960.43,352.58c26.76-1.45,53.59-6.68,79.27-15.99c-24.2,12.68-50.6,21.71-77.93,26.93
							c-57.36,7.02-116.53-2.44-168.84-26.99c-24.34-13.48-46.61-30.29-65.65-49.88c21.5,16.86,45.36,30.18,70.34,39.91l0,0
							C848,350.21,905.19,359.35,960.43,352.58z"/>
						<path class="st3" d="M793.02,336.33L793.02,336.33c52.27,24.53,111.41,33.98,168.72,26.97c26.21-5.03,51.55-13.54,74.93-25.4
							c-24.77,8.62-50.52,13.49-76.22,14.91c-55.29,6.77-112.52-2.37-162.94-26.05c-23.98-9.36-46.93-22.02-67.78-37.93
							C748.27,307.39,769.69,323.38,793.02,336.33 M792.84,336.73c-25.35-14.01-48.45-31.64-68.02-52.26
							c22.16,17.81,46.93,31.8,72.9,41.89c50.34,23.64,107.49,32.77,162.69,26.01c27.82-1.49,55.71-7.06,82.32-17.07
							c-25.02,13.49-52.47,23.04-80.93,28.45C904.4,370.76,845.19,361.29,792.84,336.73z"/>
					</g>
				</g>
			</g>
		</g>
		<g>
			<g>
				<g>
					<g>
						<path class="st3" d="M351.51,331.78c-34.25-11.52-66.74-27.65-95.98-48.03c31.19,17.27,64.68,29.71,98.96,37.42
							c70.34,19.68,146.16,19.64,216.47-0.11c34.27-7.75,67.75-20.22,98.92-37.52c-29.22,20.42-61.7,36.58-95.93,48.13l0,0
							C501.63,351.96,423.84,352,351.51,331.78z"/>
						<path class="st3" d="M571.02,321.27L571.02,321.27c-70.36,19.76-146.22,19.8-216.59,0.11c-32.91-7.43-65.09-19.2-95.23-35.39
							c28.31,19.21,59.53,34.5,92.38,45.57c72.29,20.21,150.03,20.17,222.31-0.12c32.84-11.11,64.04-26.43,92.33-45.67
							C636.09,302,603.92,313.8,571.02,321.27 M570.9,320.84c35.64-8.03,70.42-21.18,102.64-39.56
							c-30.15,21.6-63.9,38.6-99.54,50.59c-72.35,20.31-150.17,20.35-222.55,0.12c-35.66-11.96-69.42-28.93-99.59-50.49
							c32.24,18.34,67.04,31.46,102.68,39.45C424.84,340.62,500.62,340.58,570.9,320.84z"/>
					</g>
				</g>
			</g>
		</g>
		<g>
			<g>
				<g>
					<g>
						<path class="st3" d="M301.68,229.95c-43.4-4.97-86.08-14.72-126.86-29.23c41.86,10.99,84.79,16.98,127.64,18.23
							c88.91,6.36,179.25-7.6,262.08-40.51c40.48-14.13,79.59-32.81,116.18-55.93c-34.5,26.14-72.24,48.32-112.11,66.17l0,0
							C484.22,222.22,392.27,236.43,301.68,229.95z"/>
						<path class="st3" d="M564.64,178.65L564.64,178.65c-82.87,32.92-173.24,46.89-262.18,40.53
							c-41.14-1.23-82.35-6.8-122.63-16.95c39.27,13.53,80.24,22.7,121.87,27.5c90.55,6.47,182.47-7.74,266.84-41.25
							c38.24-17.15,74.53-38.26,107.88-63.01C641.09,147.3,603.49,165.06,564.64,178.65 M564.47,178.24
							c42.1-14.67,82.73-34.27,120.57-58.67c-35.64,27.53-74.84,50.78-116.34,69.32c-84.43,33.54-176.42,47.76-267.04,41.28
							c-45.17-5.15-89.56-15.48-131.84-30.96c43.45,11.84,88.1,18.25,132.66,19.52C391.36,225.1,481.67,211.14,564.47,178.24z"/>
					</g>
				</g>
			</g>
		</g>
		<g>
			<g>
				<g>
					<g>
						<path class="st3" d="M1088.26,205.5c40.41-1.02,80.91-6.33,120.52-16.18c-38.56,13.37-78.82,22.44-119.75,27.17
							c-85.44,5.99-172.1-6.82-252.15-37.26c-37.81-16.37-73.72-36.69-106.77-60.64c35.07,20.88,72.3,37.68,110.69,50.34l0,0
							C919.33,198.8,1004.44,211.37,1088.26,205.5z"/>
						<path class="st3" d="M836.95,179.02L836.95,179.02c80.03,30.43,166.65,43.23,252.06,37.24c39.27-4.57,77.91-13.1,115.04-25.58
							c-38.1,9.09-76.98,14.03-115.78,15.03c-83.86,5.88-168.99-6.7-247.56-36.58c-36.85-12.18-72.64-28.15-106.48-47.87
							C766.17,143.95,800.69,163.3,836.95,179.02 M836.8,179.44c-39.36-17.01-76.66-38.31-110.83-63.53
							c36.29,22.05,74.97,39.68,114.9,52.82c78.51,29.86,163.58,42.43,247.37,36.55c42.02-1.03,84.15-6.72,125.27-17.33
							c-40,14.27-81.87,23.87-124.46,28.77C1003.57,222.7,916.88,209.89,836.8,179.44z"/>
					</g>
				</g>
			</g>
		</g>
	</g>
</g>
<g id="spider">
</g>
</svg>
